{"glyphs":{"0":{"ha":815,"x_min":81,"x_max":757,"o":"m 713 376 q 675 229 702 300 q 604 103 649 157 q 495 16 559 48 q 345 -14 431 -16 q 210 22 263 -12 q 126 112 156 57 q 89 236 97 167 q 90 376 81 304 l 126 612 q 164 759 137 688 q 235 885 191 830 q 344 971 280 939 q 494 1002 408 1004 q 591 984 549 1000 q 663 940 633 968 q 713 876 694 913 q 743 796 733 839 q 755 706 753 753 q 751 612 757 659 l 713 376 m 288 464 l 571 655 q 575 718 574 684 q 567 780 575 751 q 538 829 558 809 q 479 850 517 848 q 407 832 436 852 q 359 782 378 813 q 331 714 340 751 q 316 642 321 677 l 288 464 m 551 518 l 266 326 q 263 265 263 298 q 273 204 264 233 q 302 157 281 176 q 360 137 322 138 q 433 155 404 135 q 480 205 462 174 q 509 274 499 237 q 524 347 519 312 l 551 518 z "},"1":{"ha":815,"x_min":158,"x_max":637,"o":"m 471 0 l 285 0 l 416 753 l 158 665 l 188 836 l 624 987 l 637 987 l 471 0 z "},"2":{"ha":815,"x_min":2,"x_max":739,"o":"m 656 0 l 2 0 l 23 136 l 380 473 q 431 522 404 496 q 484 579 459 549 q 527 642 509 609 q 549 709 545 674 q 548 761 553 736 q 531 803 544 785 q 498 832 519 821 q 448 845 477 844 q 379 833 410 846 q 328 799 349 821 q 294 746 307 777 q 276 680 281 715 l 92 679 q 131 811 98 751 q 215 913 163 871 q 331 979 266 956 q 467 1001 396 1002 q 582 979 530 1000 q 669 922 633 959 q 722 833 705 885 q 734 717 739 781 q 703 607 729 659 q 640 511 677 556 q 559 426 603 466 q 476 348 516 385 l 265 151 l 680 151 l 656 0 z "},"3":{"ha":815,"x_min":35,"x_max":767,"o":"m 306 576 l 397 576 q 463 586 432 576 q 517 614 493 595 q 556 660 541 632 q 576 723 571 687 q 554 814 583 780 q 469 850 526 848 q 415 842 440 850 q 370 819 390 834 q 337 782 351 804 q 318 732 323 760 l 135 730 q 171 847 140 796 q 249 932 201 898 q 355 985 296 967 q 477 1001 414 1002 q 593 982 539 1000 q 687 929 648 964 q 747 843 726 894 q 762 725 767 792 q 743 651 758 684 q 704 590 728 617 q 649 541 680 562 q 583 503 618 519 q 638 464 616 487 q 675 412 661 441 q 695 350 690 383 q 698 282 701 317 q 660 153 692 209 q 575 60 627 98 q 459 4 524 22 q 326 -14 394 -15 q 209 7 262 -12 q 116 63 155 27 q 56 152 77 100 q 37 269 35 203 l 220 269 q 250 175 218 211 q 342 138 282 140 q 406 147 376 137 q 459 176 435 157 q 497 223 482 195 q 517 284 513 250 q 492 390 526 353 q 390 429 458 427 l 280 430 l 306 576 z "},"4":{"ha":815,"x_min":13,"x_max":732,"o":"m 621 367 l 732 367 l 705 214 l 594 214 l 557 0 l 373 0 l 410 214 l 13 214 l 27 340 l 536 987 l 728 987 l 621 367 m 217 367 l 437 367 l 506 736 l 482 701 l 217 367 z "},"5":{"ha":815,"x_min":52,"x_max":789,"o":"m 115 489 l 256 987 l 789 987 l 762 827 l 382 827 l 315 609 q 384 639 347 629 q 459 648 421 648 q 579 620 530 647 q 659 547 629 592 q 700 443 689 502 q 705 320 711 384 q 668 185 698 247 q 590 78 638 123 q 479 9 543 33 q 340 -14 415 -16 q 224 9 277 -12 q 133 67 172 30 q 73 157 94 105 q 52 273 52 210 l 231 273 q 241 220 233 245 q 264 178 249 196 q 301 149 279 159 q 354 137 323 138 q 425 153 395 136 q 475 197 455 170 q 506 260 495 225 q 522 331 517 295 q 521 395 525 364 q 503 450 517 426 q 463 488 488 473 q 400 503 438 503 q 327 490 359 504 q 264 450 294 476 l 115 489 z "},"6":{"ha":815,"x_min":58,"x_max":715,"o":"m 667 996 l 650 839 l 642 840 q 514 821 572 840 q 411 767 456 802 q 331 680 365 731 q 274 565 296 629 q 366 633 315 607 q 477 659 417 659 q 592 628 545 657 q 667 552 639 599 q 705 447 694 505 q 710 330 715 389 q 674 194 704 258 q 597 84 645 131 q 487 11 550 37 q 349 -14 423 -16 q 211 23 268 -12 q 119 112 154 57 q 71 236 84 167 q 66 378 58 305 l 75 450 q 136 664 91 564 q 252 837 180 763 q 420 953 323 910 q 638 996 517 996 l 667 996 m 414 508 q 365 501 388 509 q 322 480 342 494 q 285 449 302 467 q 255 411 268 431 l 248 354 q 245 309 245 333 q 248 261 245 286 q 258 215 250 237 q 278 176 265 193 q 311 149 291 159 q 358 138 330 138 q 427 153 397 136 q 478 198 456 170 q 511 259 499 225 q 527 328 524 294 q 526 389 530 357 q 509 447 522 420 q 473 490 496 473 q 414 508 450 507 z "},"7":{"ha":815,"x_min":85,"x_max":810,"o":"m 792 874 l 286 0 l 85 0 l 589 833 l 111 833 l 136 987 l 810 987 l 792 874 z "},"8":{"ha":815,"x_min":43,"x_max":754,"o":"m 749 730 q 732 656 746 690 q 696 595 718 623 q 644 544 673 567 q 580 504 614 522 q 667 406 639 465 q 690 276 695 346 q 654 150 686 205 q 574 59 623 96 q 463 3 526 22 q 334 -14 401 -15 q 217 6 271 -13 q 124 60 163 25 q 64 146 85 95 q 48 264 43 197 q 67 347 52 309 q 109 415 83 385 q 169 470 135 446 q 242 512 203 494 q 168 603 192 549 q 149 719 144 657 q 182 840 154 787 q 255 929 210 892 q 359 984 300 966 q 482 1001 417 1002 q 593 981 542 1000 q 681 927 644 962 q 735 843 717 892 q 749 730 754 793 m 509 288 q 507 342 512 317 q 487 388 501 368 q 451 418 473 407 q 398 431 429 430 q 336 419 364 431 q 287 387 308 408 q 252 338 265 366 q 235 277 239 310 q 237 223 232 248 q 257 179 243 197 q 294 149 271 160 q 347 137 317 138 q 408 148 380 136 q 457 180 436 160 q 492 229 479 201 q 509 288 505 256 m 565 722 q 563 769 568 747 q 546 810 558 792 q 515 838 534 827 q 469 849 496 848 q 414 839 438 850 q 372 808 390 827 q 343 764 354 789 q 330 711 333 739 q 332 663 328 686 q 348 622 336 640 q 378 592 359 604 q 425 581 397 581 q 479 592 455 581 q 522 623 504 604 q 551 668 540 643 q 565 722 562 694 z "},"9":{"ha":815,"x_min":96,"x_max":739,"o":"m 172 149 q 391 207 304 148 q 522 390 477 267 q 340 321 446 319 q 225 350 273 321 q 148 425 177 378 q 107 529 119 471 q 102 648 96 587 q 120 740 106 695 q 158 825 135 785 q 214 898 182 865 q 284 954 245 930 q 368 990 323 977 q 463 1001 413 1002 q 561 983 518 1000 q 635 937 604 966 q 688 868 667 907 q 721 785 709 829 q 736 693 733 741 q 734 598 739 645 l 726 533 q 666 317 710 416 q 552 145 623 218 q 383 33 481 73 q 163 -9 286 -8 l 145 -9 l 161 150 l 172 149 m 394 465 q 441 472 419 465 q 483 493 464 479 q 517 524 502 506 q 545 564 533 543 l 554 632 q 557 698 557 661 q 546 768 556 735 q 513 825 536 802 q 450 849 490 848 q 382 831 412 850 q 333 783 353 812 q 301 718 313 753 q 286 650 290 683 q 286 588 283 621 q 301 529 289 556 q 335 484 313 503 q 394 465 357 466 z "},"\u0000":{"ha":0,"x_min":0,"x_max":0,"o":""},"\r":{"ha":815,"x_min":0,"x_max":0,"o":""}," ":{"ha":815,"x_min":0,"x_max":0,"o":""},"\"":{"ha":815,"x_min":227,"x_max":690,"o":"m 408 960 l 346 684 l 227 684 l 283 1042 l 420 1042 l 408 960 m 677 960 l 616 684 l 498 684 l 555 1042 l 690 1042 l 677 960 z "},"#":{"ha":815,"x_min":4,"x_max":814,"o":"m 403 278 l 275 278 l 178 0 l 56 0 l 153 278 l 4 278 l 24 393 l 192 393 l 260 589 l 107 589 l 127 705 l 300 705 l 399 987 l 520 987 l 422 705 l 550 705 l 648 987 l 771 987 l 672 705 l 814 705 l 793 589 l 633 589 l 564 393 l 709 393 l 689 278 l 525 278 l 429 0 l 306 0 l 403 278 m 314 393 l 442 393 l 510 589 l 382 589 l 314 393 z "},"$":{"ha":815,"x_min":63,"x_max":798,"o":"m 545 264 q 541 319 549 296 q 515 360 532 342 q 474 390 498 377 q 425 414 451 403 q 324 462 372 435 q 240 525 276 489 q 185 609 205 562 q 170 721 166 657 q 200 834 174 785 q 268 918 227 883 q 362 973 309 953 q 475 999 416 993 l 503 1145 l 609 1145 l 582 996 q 683 955 642 985 q 750 884 725 926 q 787 790 776 842 q 795 682 798 739 l 611 682 q 609 740 612 711 q 593 793 605 770 q 559 832 581 817 q 501 848 536 847 q 446 840 471 848 q 401 815 420 831 q 369 774 381 798 q 352 721 356 751 q 357 666 348 689 q 385 627 367 644 q 426 598 402 610 q 475 574 450 585 q 575 525 528 552 q 658 461 623 497 q 712 377 693 425 q 727 265 731 329 q 696 151 723 200 q 628 67 670 102 q 532 14 587 33 q 418 -12 478 -5 l 393 -144 l 288 -144 l 313 -10 q 201 26 248 -1 q 122 95 153 53 q 77 191 92 136 q 66 308 63 245 l 250 307 q 254 242 248 273 q 276 189 260 212 q 317 152 291 165 q 381 138 343 138 q 439 145 411 137 q 489 169 467 153 q 526 209 511 185 q 545 264 541 233 z "},"%":{"ha":815,"x_min":83,"x_max":755,"o":"m 90 810 q 112 889 95 853 q 156 950 129 924 q 220 989 184 975 q 301 1002 257 1003 q 375 986 343 1001 q 429 946 408 972 q 460 886 450 921 q 467 811 469 852 l 462 759 q 440 682 457 717 q 396 621 423 646 q 332 582 368 596 q 252 570 296 568 q 179 585 211 570 q 125 625 146 600 q 93 684 103 650 q 85 759 83 718 l 90 810 m 212 758 q 213 729 211 743 q 220 704 214 715 q 236 685 226 692 q 264 678 247 678 q 294 685 281 678 q 316 703 307 692 q 329 729 324 714 q 336 758 334 743 l 342 812 q 341 840 342 826 q 334 866 339 854 q 317 885 328 878 q 289 892 307 892 q 258 885 271 892 q 237 867 245 878 q 223 841 229 856 q 216 812 218 827 l 212 758 m 376 228 q 398 306 380 271 q 443 367 415 342 q 507 406 470 393 q 587 419 543 420 q 661 403 629 418 q 714 363 693 389 q 746 304 736 338 q 753 229 755 269 l 748 176 q 726 98 743 133 q 682 37 709 62 q 618 -1 655 12 q 538 -14 582 -15 q 464 1 496 -14 q 410 41 432 16 q 378 101 388 66 q 371 176 368 135 l 376 228 m 497 174 q 498 146 496 161 q 507 121 500 132 q 524 102 513 110 q 551 95 534 95 q 582 101 569 94 q 603 118 595 107 q 615 144 611 130 q 622 176 620 159 l 627 229 q 626 258 628 243 q 619 283 625 272 q 603 301 613 294 q 575 309 592 309 q 545 302 557 309 q 523 284 532 296 q 509 259 514 273 q 503 229 505 244 l 497 174 m 229 135 l 142 181 l 631 875 l 718 829 l 229 135 z "},"&":{"ha":815,"x_min":21,"x_max":796,"o":"m 25 247 q 47 336 28 296 q 95 410 66 376 q 161 471 124 444 q 237 522 198 498 q 217 575 227 549 q 201 629 208 602 q 191 684 194 656 q 191 741 188 712 q 218 848 195 799 q 278 931 241 897 q 365 984 315 966 q 474 1002 415 1003 q 557 982 519 1000 q 621 933 595 964 q 661 863 647 903 q 671 779 674 823 q 654 708 669 740 q 617 649 640 676 q 567 598 595 622 q 509 555 538 575 l 441 505 l 565 296 q 614 384 595 338 q 640 480 633 429 l 796 480 q 753 307 788 388 q 651 161 718 227 l 745 0 l 546 0 l 514 55 q 402 4 460 22 q 281 -14 345 -15 q 175 6 224 -13 q 92 58 127 24 q 39 140 57 92 q 25 247 21 188 m 298 138 q 370 148 336 136 q 438 174 405 159 l 308 406 l 300 401 q 270 372 284 388 q 243 337 255 355 q 224 298 232 319 q 214 257 216 278 q 214 213 211 235 q 228 176 218 192 q 256 149 239 159 q 298 138 273 138 m 351 742 q 355 679 347 709 q 375 620 363 649 l 444 667 q 489 710 471 686 q 510 768 507 733 q 509 795 511 781 q 502 821 508 809 q 486 841 496 833 q 460 850 476 849 q 418 842 437 850 q 385 818 399 833 q 362 782 371 802 q 351 742 354 762 z "},"'":{"ha":815,"x_min":342,"x_max":541,"o":"m 525 937 l 466 673 l 342 673 l 399 1042 l 541 1042 l 525 937 z "},"(":{"ha":815,"x_min":213,"x_max":683,"o":"m 226 399 q 252 534 235 465 q 295 672 269 604 q 356 804 321 740 q 435 925 391 869 q 534 1025 479 981 q 654 1099 589 1070 l 683 994 q 563 873 613 941 q 476 729 512 806 q 419 569 441 652 q 385 401 397 486 l 382 385 q 372 288 376 340 q 366 180 367 235 q 371 70 366 125 q 391 -36 376 15 q 430 -131 405 -87 q 494 -209 455 -176 l 451 -310 q 353 -229 394 -277 q 284 -123 312 -181 q 241 -1 257 -66 q 219 130 225 64 q 215 261 213 196 q 224 383 216 326 l 226 399 z "},")":{"ha":815,"x_min":111,"x_max":589,"o":"m 577 389 q 550 254 568 323 q 505 115 532 184 q 442 -19 478 46 q 360 -139 406 -83 q 259 -239 315 -195 q 137 -311 203 -283 l 111 -208 q 231 -87 180 -155 q 318 58 282 -19 q 375 219 353 136 q 410 387 397 302 l 412 404 q 423 500 418 448 q 428 607 428 552 q 423 718 429 662 q 403 824 418 773 q 363 920 389 876 q 300 998 338 964 l 343 1098 q 442 1018 400 1066 q 512 912 484 970 q 558 790 541 854 q 582 659 574 725 q 588 527 589 592 q 579 405 587 463 l 577 389 z "},"*":{"ha":815,"x_min":113,"x_max":785,"o":"m 360 435 l 113 500 l 177 634 l 410 520 l 432 816 l 577 816 l 506 524 l 764 631 l 785 485 l 512 423 l 656 201 l 531 118 l 432 370 l 256 128 l 145 216 l 360 435 z "},"+":{"ha":815,"x_min":60,"x_max":747,"o":"m 507 551 l 747 551 l 718 378 l 477 378 l 428 99 l 253 99 l 301 378 l 60 378 l 90 551 l 331 551 l 378 818 l 553 818 l 507 551 z "},",":{"ha":815,"x_min":129,"x_max":427,"o":"m 401 16 q 378 -68 394 -28 q 340 -146 363 -109 q 288 -216 317 -183 q 225 -275 258 -248 l 129 -222 q 189 -113 163 -168 q 227 6 215 -58 l 254 165 l 427 165 l 401 16 z "},"-":{"ha":815,"x_min":177,"x_max":753,"o":"m 726 359 l 177 359 l 203 512 l 753 512 l 726 359 z "},".":{"ha":815,"x_min":227,"x_max":480,"o":"m 227 104 q 236 157 227 133 q 263 198 246 180 q 305 225 281 215 q 357 235 329 235 q 406 226 383 235 q 445 201 429 217 q 471 163 461 185 q 480 114 480 140 q 470 62 480 86 q 443 22 460 39 q 401 -5 425 5 q 350 -14 377 -14 q 301 -6 323 -14 q 262 18 279 3 q 236 56 245 34 q 227 104 227 78 z "},"/":{"ha":815,"x_min":56,"x_max":779,"o":"m 233 -85 l 56 -85 l 600 987 l 779 987 l 233 -85 z "},":":{"ha":815,"x_min":236,"x_max":586,"o":"m 236 104 q 246 157 236 133 q 273 198 256 180 q 314 225 290 215 q 366 235 338 235 q 415 226 393 235 q 454 201 438 217 q 480 163 471 185 q 490 114 490 140 q 479 62 490 86 q 452 22 469 39 q 411 -5 435 5 q 359 -14 387 -14 q 311 -6 333 -14 q 272 18 288 3 q 245 56 255 34 q 236 104 236 78 m 332 665 q 342 717 332 693 q 369 758 352 741 q 411 785 387 775 q 463 795 435 795 q 512 786 489 795 q 551 761 534 777 q 576 723 567 745 q 586 674 586 701 q 576 623 586 646 q 548 582 566 599 q 507 555 531 565 q 456 546 483 546 q 407 554 429 546 q 368 578 385 563 q 342 616 351 594 q 332 665 332 638 z "},";":{"ha":815,"x_min":179,"x_max":612,"o":"m 358 665 q 368 717 358 693 q 395 758 378 741 q 436 785 412 775 q 488 795 460 795 q 537 786 515 795 q 576 761 560 777 q 602 723 593 745 q 612 674 612 701 q 602 623 612 646 q 574 582 591 599 q 533 555 557 565 q 481 546 509 546 q 433 554 455 546 q 394 578 410 563 q 368 616 377 594 q 358 665 358 638 m 452 16 q 429 -68 444 -28 q 390 -146 413 -109 q 338 -216 367 -183 q 275 -275 309 -248 l 179 -222 q 239 -113 213 -168 q 277 6 265 -58 l 304 165 l 477 165 l 452 16 z "},"<":{"ha":815,"x_min":92,"x_max":745,"o":"m 339 439 l 283 419 l 316 406 l 663 278 l 633 101 l 92 351 l 119 503 l 745 752 l 717 565 l 339 439 z "},"=":{"ha":815,"x_min":66,"x_max":768,"o":"m 741 486 l 117 486 l 144 641 l 768 641 l 741 486 m 690 194 l 66 194 l 94 348 l 717 348 l 690 194 z "},">":{"ha":815,"x_min":51,"x_max":714,"o":"m 134 569 l 164 745 l 714 496 l 688 342 l 51 93 l 84 283 l 475 410 l 526 426 l 497 437 l 134 569 z "},"?":{"ha":815,"x_min":165,"x_max":787,"o":"m 316 299 q 326 371 319 339 q 344 431 332 404 q 377 483 357 458 q 430 533 398 508 q 479 573 453 551 q 529 621 506 595 q 570 675 553 646 q 592 734 587 703 q 573 818 600 789 q 492 848 547 847 q 440 841 464 849 q 397 817 416 832 q 367 779 379 801 q 349 730 355 757 l 165 729 q 200 849 171 798 q 276 935 230 901 q 380 986 321 969 q 505 1002 439 1003 q 618 984 566 1000 q 709 937 671 968 q 767 856 747 905 q 782 742 787 808 q 756 649 778 690 q 704 574 735 608 q 635 509 673 539 q 561 450 597 479 q 527 417 541 433 q 504 384 513 401 q 488 345 494 366 q 479 300 482 324 l 316 299 m 248 90 q 255 133 248 113 q 278 168 263 153 q 312 192 292 183 q 355 200 332 200 q 397 193 377 201 q 431 172 416 186 q 453 140 445 159 q 461 98 461 121 q 453 55 461 75 q 430 22 445 36 q 396 -1 416 7 q 353 -9 376 -9 q 312 -2 331 -9 q 278 18 292 5 q 256 50 264 31 q 248 90 248 68 z "},"@":{"ha":815,"x_min":28,"x_max":803,"o":"m 796 563 q 784 492 791 531 q 763 413 776 453 q 732 336 750 374 q 688 269 713 298 q 630 223 663 240 q 555 206 597 205 q 495 224 521 208 q 458 274 470 241 q 407 229 435 248 q 343 208 380 209 q 268 235 294 208 q 230 301 241 262 q 220 385 219 341 q 227 464 220 429 q 244 536 233 499 q 272 608 255 573 q 310 673 288 642 q 361 726 332 703 q 424 761 389 748 q 500 772 459 773 q 575 759 541 772 q 639 720 609 747 l 556 361 q 554 342 555 352 q 554 325 553 333 q 561 312 555 317 q 578 306 566 307 q 617 319 601 304 q 646 356 634 333 q 667 408 659 379 q 680 464 675 436 q 689 516 686 492 q 694 553 692 540 q 701 628 699 590 q 699 701 703 666 q 684 767 695 736 q 652 822 673 798 q 598 859 631 845 q 520 874 566 873 q 418 859 465 876 q 332 811 371 842 q 263 738 294 780 q 210 649 233 696 q 171 553 186 602 q 149 456 156 503 q 139 376 142 417 q 140 296 136 335 q 156 221 144 256 q 191 159 168 186 q 249 117 214 133 q 334 101 283 102 q 418 110 376 100 q 500 137 460 120 l 515 43 q 427 5 475 17 q 332 -5 379 -6 q 215 15 265 -4 q 129 66 165 34 q 71 142 94 98 q 38 237 49 186 q 28 344 28 288 q 37 457 28 400 q 67 581 46 518 q 119 702 87 644 q 192 811 151 760 q 286 900 234 863 q 398 959 337 938 q 528 978 458 979 q 628 959 585 977 q 704 911 672 941 q 758 842 736 882 q 789 756 779 802 q 802 661 800 711 q 796 563 803 612 m 344 464 q 340 442 342 456 q 336 411 338 428 q 335 377 335 395 q 340 346 336 360 q 352 322 344 331 q 374 312 360 313 q 395 315 385 311 q 413 325 404 319 q 429 337 422 330 q 444 352 437 345 l 446 363 l 527 668 q 509 670 517 670 q 440 651 469 671 q 392 601 412 631 q 361 533 372 570 q 344 464 349 496 z "},"A":{"ha":815,"x_min":-56,"x_max":735,"o":"m 525 206 l 238 206 l 146 0 l -56 0 l 429 987 l 598 987 l 735 0 l 545 0 l 525 206 m 312 368 l 509 368 l 475 730 l 312 368 z "},"B":{"ha":815,"x_min":14,"x_max":813,"o":"m 14 0 l 185 987 l 497 987 q 618 971 559 985 q 720 925 676 956 q 789 844 764 893 q 808 723 813 794 q 790 649 804 682 q 752 589 776 615 q 698 542 729 562 q 631 506 667 521 q 689 472 665 494 q 728 422 713 450 q 749 362 743 395 q 753 295 755 329 q 715 161 748 217 q 630 68 682 104 q 511 16 578 33 q 374 0 445 -1 l 14 0 m 276 435 l 227 154 l 382 153 q 448 162 416 153 q 505 189 479 171 q 547 233 530 207 q 570 296 564 260 q 550 396 579 359 q 457 435 521 432 l 276 435 m 300 573 l 429 572 q 494 579 463 572 q 552 603 526 587 q 596 645 578 619 q 619 707 614 670 q 616 764 624 741 q 590 802 608 787 q 547 824 572 817 q 490 831 521 831 l 345 832 l 300 573 z "},"C":{"ha":815,"x_min":50,"x_max":800,"o":"m 729 310 q 686 175 719 235 q 602 72 652 115 q 485 6 551 29 q 345 -14 419 -16 q 237 6 284 -13 q 156 56 191 24 q 100 130 122 87 q 65 221 77 172 q 52 322 54 269 q 57 427 50 374 l 77 559 q 102 669 85 614 q 145 774 119 724 q 206 866 171 823 q 285 939 241 908 q 382 986 329 969 q 498 1002 435 1003 q 630 975 574 1000 q 723 905 686 949 q 779 801 760 861 q 800 669 798 741 l 616 669 q 611 737 616 705 q 591 793 606 769 q 551 831 576 817 q 484 847 525 846 q 416 836 446 848 q 363 802 386 823 q 324 751 340 781 q 296 690 307 722 q 277 625 284 658 q 265 561 269 591 l 246 426 q 240 370 243 401 q 238 309 237 340 q 243 248 238 277 q 262 194 249 218 q 299 156 276 171 q 358 140 322 142 q 431 151 399 138 q 486 185 463 163 q 524 239 509 208 q 546 309 538 271 l 729 310 z "},"D":{"ha":815,"x_min":12,"x_max":782,"o":"m 12 0 l 182 987 l 421 987 q 587 947 517 985 q 703 847 658 909 q 765 704 747 785 q 771 534 782 623 l 760 452 q 706 277 746 359 q 604 133 666 194 q 459 35 542 71 q 279 0 377 -1 l 12 0 m 343 833 l 225 153 l 287 152 q 400 177 351 152 q 484 244 449 203 q 539 340 518 286 q 570 452 561 395 l 581 536 q 586 603 585 568 q 581 669 586 637 q 564 731 576 702 q 532 782 552 760 q 483 817 512 804 q 414 832 454 830 l 343 833 z "},"E":{"ha":815,"x_min":26,"x_max":842,"o":"m 681 433 l 288 433 l 239 154 l 699 154 l 672 0 l 26 0 l 197 987 l 842 987 l 814 832 l 357 832 l 313 583 l 707 583 l 681 433 z "},"F":{"ha":815,"x_min":27,"x_max":847,"o":"m 695 409 l 285 409 l 214 0 l 27 0 l 198 987 l 847 987 l 819 832 l 358 832 l 311 564 l 722 564 l 695 409 z "},"G":{"ha":815,"x_min":56,"x_max":797,"o":"m 701 115 q 629 54 671 79 q 541 14 588 29 q 446 -8 494 -1 q 353 -14 397 -14 q 244 6 292 -12 q 163 56 197 25 q 106 130 129 87 q 72 220 83 172 q 58 320 60 268 q 62 426 56 373 l 82 560 q 107 669 90 614 q 150 772 124 723 q 210 864 175 821 q 288 937 244 906 q 384 985 331 968 q 498 1001 436 1002 q 625 978 570 1000 q 716 917 680 956 q 773 820 753 877 q 797 694 793 764 l 616 694 q 608 754 615 726 q 587 802 602 782 q 548 834 572 823 q 488 848 524 846 q 423 836 452 849 q 371 801 394 823 q 331 749 348 779 q 301 687 314 720 q 281 623 289 655 q 269 562 273 590 l 250 425 q 244 369 246 399 q 243 307 241 338 q 252 246 245 275 q 273 194 258 217 q 312 156 288 170 q 372 140 336 142 q 448 149 410 139 q 517 182 487 159 l 552 362 l 393 362 l 418 505 l 762 505 l 701 115 z "},"H":{"ha":815,"x_min":10,"x_max":820,"o":"m 648 0 l 465 0 l 539 428 l 269 428 l 195 0 l 10 0 l 181 987 l 366 987 l 296 583 l 566 583 l 636 987 l 820 987 l 648 0 z "},"I":{"ha":815,"x_min":56,"x_max":783,"o":"m 227 987 l 783 987 l 755 833 l 569 833 l 451 153 l 638 153 l 611 0 l 56 0 l 83 153 l 264 153 l 382 833 l 200 833 l 227 987 z "},"J":{"ha":815,"x_min":48,"x_max":825,"o":"m 638 987 l 825 987 l 709 303 q 665 175 699 233 q 582 74 632 116 q 469 8 532 31 q 335 -14 406 -15 q 210 9 264 -13 q 120 70 156 31 q 66 166 83 110 q 50 291 48 222 l 237 290 q 239 231 235 258 q 256 183 243 203 q 292 152 269 163 q 351 139 315 140 q 415 152 386 138 q 466 188 444 165 q 502 240 488 210 q 522 302 516 270 l 638 987 z "},"K":{"ha":815,"x_min":14,"x_max":924,"o":"m 377 404 l 250 283 l 201 0 l 14 0 l 185 987 l 372 987 l 294 545 l 401 663 l 685 987 l 924 987 l 517 543 l 753 0 l 543 0 l 377 404 z "},"L":{"ha":815,"x_min":28,"x_max":690,"o":"m 241 154 l 690 154 l 663 0 l 28 0 l 199 987 l 386 987 l 241 154 z "},"M":{"ha":815,"x_min":12,"x_max":838,"o":"m 412 987 l 438 619 l 605 987 l 838 987 l 667 0 l 496 0 l 548 300 l 632 739 l 439 326 l 346 326 l 304 743 l 233 285 l 183 0 l 12 0 l 184 987 l 412 987 z "},"N":{"ha":815,"x_min":10,"x_max":819,"o":"m 648 0 l 467 0 l 309 644 l 197 0 l 10 0 l 181 987 l 365 987 l 520 347 l 633 987 l 819 987 l 648 0 z "},"O":{"ha":815,"x_min":50,"x_max":788,"o":"m 759 422 q 733 313 750 367 q 690 210 716 258 q 629 119 664 161 q 550 47 594 77 q 453 1 506 18 q 338 -14 400 -15 q 233 6 279 -12 q 154 57 187 25 q 98 130 120 88 q 65 219 77 172 q 52 319 54 267 q 56 421 50 370 l 79 565 q 103 673 87 619 q 145 776 120 727 q 203 867 170 825 q 280 939 237 909 q 375 986 323 969 q 489 1001 427 1002 q 595 981 549 1000 q 676 931 642 963 q 734 858 711 900 q 770 769 758 817 q 785 669 783 721 q 781 565 788 616 l 759 422 m 593 567 q 598 622 596 592 q 598 682 600 652 q 590 741 597 712 q 569 791 583 769 q 532 828 555 814 q 474 844 509 842 q 408 833 437 845 q 358 800 380 821 q 321 750 337 779 q 295 691 306 722 q 278 628 285 660 q 267 566 271 595 l 245 420 q 239 368 241 397 q 237 308 237 338 q 243 248 237 277 q 261 196 248 219 q 296 158 274 173 q 353 142 318 144 q 418 153 389 141 q 470 186 448 165 q 510 235 493 207 q 539 295 527 264 q 558 359 551 327 q 570 421 566 392 l 593 567 z "},"P":{"ha":815,"x_min":27,"x_max":819,"o":"m 276 362 l 213 0 l 27 0 l 198 987 l 516 987 q 642 962 585 985 q 739 899 699 940 q 799 802 779 859 q 813 674 819 745 q 773 540 807 598 q 686 443 739 482 q 566 382 633 403 q 428 361 499 361 l 276 362 m 302 517 l 438 515 q 506 527 474 515 q 563 558 538 538 q 605 608 588 578 q 626 673 621 637 q 625 733 630 705 q 606 783 621 762 q 567 818 591 804 q 509 832 543 831 l 357 833 l 302 517 z "},"Q":{"ha":815,"x_min":48,"x_max":793,"o":"m 760 392 q 703 219 745 298 q 586 80 661 140 l 718 -72 l 588 -174 l 437 -1 q 390 -10 414 -7 q 340 -12 366 -13 q 242 5 286 -12 q 164 51 197 22 q 106 118 130 79 q 69 201 83 157 q 52 294 56 245 q 54 391 48 342 l 81 562 q 106 671 90 617 q 148 774 123 725 q 207 866 173 823 q 284 939 241 908 q 379 986 327 969 q 494 1001 431 1002 q 600 981 553 1000 q 682 931 647 962 q 740 857 716 899 q 775 767 763 815 q 791 666 788 718 q 787 562 793 614 l 760 392 m 598 564 q 604 620 602 589 q 604 680 606 650 q 596 740 603 711 q 576 791 590 768 q 538 828 562 814 q 479 844 515 842 q 413 833 442 845 q 363 799 385 821 q 326 749 341 778 q 299 689 310 721 q 281 625 288 658 q 270 564 274 593 l 243 391 q 238 340 239 368 q 239 286 237 313 q 248 234 241 259 q 269 188 255 208 q 304 156 283 168 q 357 142 326 144 q 445 163 408 140 q 508 223 482 186 q 549 304 534 260 q 571 391 564 349 l 598 564 z "},"R":{"ha":815,"x_min":15,"x_max":812,"o":"m 409 369 l 265 369 l 201 0 l 15 0 l 186 987 l 498 987 q 624 967 566 985 q 725 912 683 948 q 790 822 768 876 q 806 694 812 768 q 785 599 802 642 q 740 521 768 555 q 673 460 711 486 q 587 415 634 434 l 723 10 l 723 0 l 525 0 l 409 369 m 292 524 l 421 522 q 492 532 458 522 q 552 563 526 543 q 595 613 578 583 q 617 682 612 643 q 593 790 626 751 q 490 832 559 829 l 346 833 l 292 524 z "},"S":{"ha":815,"x_min":39,"x_max":814,"o":"m 561 262 q 554 323 566 298 q 520 366 542 348 q 469 396 498 384 q 413 418 441 408 q 309 461 360 435 q 218 524 258 487 q 156 609 179 560 q 138 722 134 659 q 176 845 142 792 q 263 933 211 898 q 379 985 315 968 q 508 1001 444 1002 q 632 978 575 1000 q 730 917 689 956 q 792 822 770 878 q 812 697 814 766 l 632 698 q 624 759 633 731 q 598 806 616 787 q 555 837 581 826 q 494 848 529 848 q 434 841 464 849 q 380 818 405 833 q 339 778 356 802 q 318 721 322 753 q 330 662 314 686 q 371 622 345 638 q 428 594 397 605 q 484 574 458 583 q 586 529 537 556 q 671 463 635 501 q 727 375 707 425 q 743 264 747 326 q 724 176 740 216 q 681 106 707 137 q 619 52 654 75 q 544 15 584 29 q 460 -7 504 0 q 374 -13 417 -14 q 241 11 302 -12 q 134 74 179 33 q 63 174 88 115 q 41 307 39 233 l 222 307 q 261 183 220 227 q 385 138 302 140 q 444 145 414 138 q 498 168 473 153 q 539 207 522 183 q 561 262 556 230 z "},"T":{"ha":815,"x_min":91,"x_max":892,"o":"m 864 832 l 569 832 l 425 0 l 238 0 l 382 832 l 91 832 l 118 987 l 892 987 l 864 832 z "},"U":{"ha":815,"x_min":64,"x_max":825,"o":"m 825 987 l 715 334 q 673 193 703 257 q 596 82 644 128 q 484 10 549 35 q 338 -14 419 -16 q 210 16 264 -12 q 123 91 156 44 q 77 201 90 138 q 72 332 64 263 l 184 987 l 370 987 l 260 332 q 257 270 256 303 q 266 209 257 237 q 296 161 275 180 q 355 140 317 142 q 427 154 397 138 q 478 199 458 171 q 511 262 499 227 q 529 332 524 297 l 641 987 l 825 987 z "},"V":{"ha":815,"x_min":113,"x_max":882,"o":"m 380 278 l 672 987 l 882 987 l 437 0 l 248 0 l 113 987 l 313 987 l 380 278 z "},"W":{"ha":815,"x_min":86,"x_max":886,"o":"m 551 396 l 713 987 l 886 987 l 600 0 l 431 0 l 432 580 l 254 0 l 86 0 l 109 987 l 277 987 l 252 402 l 425 987 l 559 987 l 551 396 z "},"X":{"ha":815,"x_min":-49,"x_max":894,"o":"m 442 635 l 667 987 l 894 987 l 542 490 l 737 0 l 529 0 l 410 358 l 179 0 l -49 0 l 311 506 l 121 987 l 330 987 l 442 635 z "},"Y":{"ha":815,"x_min":126,"x_max":911,"o":"m 431 534 l 699 987 l 911 987 l 492 333 l 433 0 l 248 0 l 310 359 l 126 987 l 321 987 l 431 534 z "},"Z":{"ha":815,"x_min":-5,"x_max":838,"o":"m 250 154 l 720 154 l 696 0 l -5 0 l 14 124 l 585 832 l 125 832 l 151 987 l 838 987 l 820 867 l 250 154 z "},"[":{"ha":815,"x_min":163,"x_max":673,"o":"m 650 1000 l 538 1000 l 370 -81 l 481 -81 l 458 -227 l 163 -227 l 378 1146 l 673 1146 l 650 1000 z "},"\\":{"ha":815,"x_min":261,"x_max":600,"o":"m 261 987 l 427 987 l 600 -85 l 434 -85 l 261 987 z "},"]":{"ha":815,"x_min":163,"x_max":674,"o":"m 378 1146 l 674 1146 l 459 -227 l 163 -227 l 186 -81 l 299 -81 l 468 1000 l 355 1000 l 378 1146 z "},"^":{"ha":815,"x_min":146,"x_max":699,"o":"m 302 466 l 146 466 l 447 987 l 580 987 l 699 466 l 558 466 l 494 782 l 491 829 l 465 766 l 302 466 z "},"_":{"ha":815,"x_min":1,"x_max":628,"o":"m 602 -147 l 1 -147 l 26 0 l 628 0 l 602 -147 z "},"`":{"ha":815,"x_min":369,"x_max":648,"o":"m 648 813 l 513 813 l 369 1002 l 560 1002 l 648 813 z "},"a":{"ha":815,"x_min":39,"x_max":713,"o":"m 475 0 q 468 34 469 18 q 468 68 467 51 q 375 7 425 28 q 264 -14 324 -14 q 177 2 218 -13 q 104 45 135 18 q 56 112 73 73 q 41 200 39 151 q 60 286 43 249 q 104 351 77 323 q 166 398 131 379 q 241 428 201 416 q 324 444 281 439 q 408 449 366 449 l 513 448 l 522 493 q 520 541 526 519 q 501 576 515 562 q 466 598 487 591 q 418 607 445 606 q 339 586 371 608 q 298 516 307 563 l 114 515 q 149 620 118 576 q 225 693 179 665 q 327 735 271 722 q 438 748 383 749 q 547 730 496 747 q 636 681 599 713 q 693 601 674 648 q 707 490 713 553 l 656 175 q 647 93 650 135 q 658 12 644 52 l 657 0 l 475 0 m 313 132 q 403 151 361 130 q 476 209 446 172 l 499 336 l 416 336 q 354 330 385 336 q 296 310 323 324 q 252 273 270 296 q 229 215 233 250 q 231 178 226 194 q 248 153 237 163 q 276 137 260 142 q 313 132 293 132 z "},"b":{"ha":815,"x_min":26,"x_max":732,"o":"m 726 363 q 709 272 721 318 q 678 183 697 225 q 633 104 659 140 q 572 41 606 67 q 493 0 537 14 q 397 -14 450 -15 q 296 11 342 -12 q 220 79 250 33 l 193 0 l 26 0 l 206 1042 l 391 1042 l 319 667 q 401 727 356 706 q 502 747 447 749 q 590 730 552 746 q 654 686 627 713 q 697 623 681 659 q 722 546 714 587 q 731 462 730 505 q 728 378 732 419 l 726 363 m 544 378 q 547 423 546 399 q 547 471 549 447 q 539 516 545 494 q 522 555 534 538 q 491 583 510 572 q 444 594 472 593 q 360 573 395 595 q 299 513 325 551 l 248 219 q 291 159 262 178 q 363 138 320 140 q 443 157 410 137 q 495 210 475 178 q 527 283 516 243 q 543 363 538 324 l 544 378 z "},"c":{"ha":815,"x_min":62,"x_max":728,"o":"m 360 136 q 412 143 387 136 q 457 165 437 151 q 491 201 477 180 q 509 250 505 223 l 681 252 q 648 139 677 189 q 571 55 618 90 q 468 2 525 20 q 351 -14 410 -16 q 215 18 272 -13 q 124 99 159 48 q 75 215 89 149 q 69 354 62 281 l 71 375 q 111 520 81 452 q 191 640 142 589 q 308 720 241 691 q 456 747 374 749 q 570 725 519 746 q 656 666 621 704 q 710 577 692 629 q 724 462 728 525 l 551 463 q 547 514 553 490 q 527 555 541 538 q 491 584 513 573 q 440 595 469 594 q 360 577 393 597 q 306 525 328 557 q 272 453 284 493 q 255 375 260 414 l 252 355 q 249 284 249 322 q 259 214 249 246 q 293 160 269 182 q 360 136 316 138 z "},"d":{"ha":815,"x_min":62,"x_max":821,"o":"m 68 368 q 85 460 73 414 q 117 549 98 506 q 163 628 136 591 q 225 692 190 665 q 304 734 260 719 q 400 747 347 749 q 493 726 451 746 q 566 667 534 706 l 637 1042 l 821 1042 l 641 0 l 476 0 l 486 77 q 399 9 447 34 q 292 -14 351 -15 q 206 4 243 -12 q 143 48 170 21 q 100 112 117 76 q 74 188 83 148 q 63 271 65 229 q 66 353 62 313 l 68 368 m 250 353 q 247 286 247 323 q 256 217 246 250 q 287 163 265 185 q 351 140 309 141 q 432 160 397 138 q 493 218 467 182 l 546 516 q 434 595 517 592 q 355 575 388 596 q 301 521 323 554 q 268 447 279 488 q 252 368 256 406 l 250 353 z "},"e":{"ha":815,"x_min":58,"x_max":746,"o":"m 377 -14 q 241 15 302 -12 q 139 90 180 43 q 77 201 97 137 q 64 339 58 264 l 67 367 q 109 514 76 444 q 193 636 141 584 q 314 719 245 688 q 465 747 383 749 q 597 715 541 745 q 687 636 652 686 q 733 522 721 586 q 737 386 746 457 l 725 306 l 245 306 q 254 240 244 271 q 284 188 264 210 q 332 152 303 165 q 397 138 360 139 q 506 158 454 136 q 596 221 557 180 l 680 119 q 620 58 655 83 q 545 17 585 33 q 461 -7 505 1 q 377 -14 418 -14 m 451 595 q 385 583 414 597 q 333 547 356 570 q 294 494 311 524 q 264 435 277 465 l 563 435 l 566 452 q 565 508 571 482 q 544 553 559 534 q 505 583 528 572 q 451 595 481 594 z "},"f":{"ha":815,"x_min":115,"x_max":868,"o":"m 199 0 l 302 595 l 115 595 l 140 734 l 321 733 l 329 774 q 372 902 341 846 q 451 996 404 958 q 559 1054 498 1034 q 694 1073 621 1074 q 781 1066 738 1072 q 868 1053 825 1060 l 840 905 q 775 916 808 912 q 711 920 743 920 q 583 885 635 920 q 514 774 530 850 l 505 733 l 768 734 l 743 595 l 487 595 l 383 0 l 199 0 z "},"g":{"ha":815,"x_min":18,"x_max":778,"o":"m 68 368 q 87 460 74 414 q 120 550 100 507 q 168 629 140 593 q 232 693 196 666 q 313 734 269 720 q 410 747 357 749 q 509 726 463 746 q 585 663 554 707 l 609 734 l 778 734 l 657 24 q 613 -110 646 -51 q 529 -209 580 -169 q 414 -270 479 -250 q 274 -289 349 -291 q 201 -280 237 -288 q 132 -258 165 -273 q 70 -221 99 -243 q 18 -170 40 -199 l 112 -57 q 183 -118 142 -96 q 275 -142 224 -140 q 347 -132 314 -143 q 406 -99 380 -121 q 450 -48 432 -78 q 475 20 467 -18 l 485 64 q 401 6 446 26 q 301 -14 356 -15 q 215 3 252 -13 q 150 47 177 20 q 104 111 122 75 q 76 187 86 146 q 64 270 66 227 q 66 353 62 313 l 68 368 m 252 353 q 249 308 250 332 q 251 261 248 284 q 260 216 254 237 q 280 178 267 195 q 312 151 293 161 q 359 140 332 140 q 439 157 405 138 q 502 211 474 176 l 557 524 q 512 577 541 560 q 444 595 483 594 q 363 575 397 596 q 307 522 330 555 q 271 447 284 488 q 253 368 258 406 l 252 353 z "},"h":{"ha":815,"x_min":22,"x_max":741,"o":"m 309 631 q 402 715 349 683 q 523 747 455 748 q 632 721 588 747 q 700 653 675 695 q 733 556 725 610 q 734 444 741 502 l 661 0 l 476 0 l 551 446 q 552 503 555 477 q 536 549 549 529 q 503 581 524 569 q 448 593 481 592 q 367 578 403 595 q 299 530 330 561 l 205 0 l 22 0 l 203 1042 l 387 1042 l 309 631 z "},"i":{"ha":815,"x_min":71,"x_max":679,"o":"m 198 734 l 587 734 l 486 153 l 679 153 l 652 0 l 71 0 l 97 153 l 300 153 l 374 580 l 171 580 l 198 734 m 420 918 q 428 960 420 941 q 451 993 436 979 q 485 1015 465 1007 q 526 1023 504 1023 q 567 1017 548 1023 q 600 997 586 1010 q 623 966 614 984 q 631 925 631 947 q 623 883 631 902 q 601 850 615 864 q 567 828 587 836 q 525 821 547 821 q 484 827 503 820 q 451 846 465 833 q 428 878 437 859 q 420 918 420 896 z "},"j":{"ha":815,"x_min":33,"x_max":669,"o":"m 258 734 l 624 734 l 496 -17 q 458 -141 486 -88 q 386 -229 430 -194 q 283 -281 342 -264 q 154 -298 224 -298 q 93 -294 123 -297 q 33 -286 63 -292 l 57 -132 q 106 -139 81 -137 q 156 -142 132 -142 q 259 -112 219 -144 q 310 -17 299 -79 l 411 580 l 231 580 l 258 734 m 458 918 q 466 960 458 941 q 488 993 474 979 q 522 1015 503 1006 q 564 1023 541 1023 q 604 1017 585 1023 q 638 997 623 1010 q 661 966 652 984 q 669 925 669 947 q 661 883 669 902 q 638 850 653 864 q 605 828 624 836 q 563 821 585 821 q 522 827 541 820 q 489 847 503 834 q 467 878 475 860 q 458 918 458 896 z "},"k":{"ha":815,"x_min":24,"x_max":813,"o":"m 349 302 l 245 217 l 208 0 l 24 0 l 205 1042 l 389 1042 l 286 455 l 347 514 l 580 734 l 813 734 l 484 420 l 711 0 l 497 0 l 349 302 z "},"l":{"ha":815,"x_min":60,"x_max":690,"o":"m 241 1042 l 640 1042 l 486 153 l 690 153 l 663 0 l 60 0 l 87 153 l 300 153 l 427 888 l 214 888 l 241 1042 z "},"m":{"ha":815,"x_min":-22,"x_max":772,"o":"m 263 734 l 246 644 q 274 686 259 667 q 308 719 290 705 q 350 740 327 732 q 399 748 372 748 q 468 729 440 747 q 504 669 495 710 q 565 726 531 704 q 644 747 598 748 q 695 736 674 747 q 731 709 717 726 q 755 669 746 692 q 768 622 764 647 q 772 572 772 597 q 770 524 772 547 l 683 0 l 515 0 l 604 526 q 606 548 606 536 q 602 570 606 560 q 591 587 599 581 q 569 594 583 594 q 536 584 549 594 q 510 561 522 574 l 412 0 l 250 0 l 338 526 q 339 549 339 537 q 337 571 340 562 q 326 588 334 581 q 303 594 318 594 q 267 581 281 594 q 241 550 252 568 l 146 0 l -22 0 l 106 734 l 263 734 z "},"n":{"ha":815,"x_min":22,"x_max":740,"o":"m 315 734 l 302 631 q 402 716 346 684 q 530 747 459 749 q 636 721 594 746 q 701 654 677 696 q 732 561 725 613 q 734 452 740 508 l 659 0 l 475 0 l 549 450 q 550 508 553 481 q 535 553 547 534 q 501 583 523 572 q 444 594 479 593 q 363 575 399 595 q 298 522 327 556 l 206 0 l 22 0 l 149 734 l 315 734 z "},"o":{"ha":815,"x_min":53,"x_max":741,"o":"m 62 369 q 102 516 71 446 q 182 637 133 585 q 299 720 232 690 q 450 747 367 749 q 586 715 529 746 q 679 632 643 684 q 728 515 714 581 q 734 376 741 448 l 732 361 q 691 215 722 283 q 611 94 661 146 q 494 13 562 43 q 345 -14 427 -16 q 209 18 266 -13 q 116 99 152 49 q 67 216 81 150 q 60 355 53 282 l 62 369 m 244 355 q 241 283 241 321 q 253 213 242 245 q 289 159 264 181 q 358 136 314 137 q 438 155 404 134 q 494 209 471 176 q 529 282 517 241 q 547 361 542 322 l 549 375 q 552 422 551 397 q 550 471 553 447 q 539 517 547 495 q 519 556 532 539 q 486 584 506 573 q 436 595 465 594 q 356 576 389 597 q 299 523 322 556 q 263 449 277 490 q 245 369 250 408 l 244 355 z "},"p":{"ha":815,"x_min":-24,"x_max":730,"o":"m 725 364 q 707 274 720 319 q 676 185 695 228 q 630 106 656 142 q 568 42 603 69 q 490 0 533 15 q 395 -14 447 -16 q 301 6 344 -13 q 225 65 258 26 l 159 -282 l -24 -282 l 152 734 l 320 734 l 309 661 q 395 726 347 703 q 500 747 442 749 q 587 730 550 746 q 651 687 625 714 q 695 623 678 659 q 720 547 711 587 q 729 464 728 507 q 726 379 730 420 l 725 364 m 542 379 q 545 447 545 410 q 535 516 545 484 q 503 571 526 549 q 439 594 481 593 q 360 576 394 595 q 299 521 326 556 l 245 213 q 289 156 260 174 q 358 137 317 138 q 437 157 404 136 q 491 211 469 178 q 524 286 513 245 q 541 365 536 327 l 542 379 z "},"q":{"ha":815,"x_min":62,"x_max":768,"o":"m 68 368 q 100 506 77 437 q 164 629 123 574 q 264 716 205 684 q 402 747 323 749 q 500 724 456 746 q 576 659 545 703 l 604 734 l 768 734 l 592 -282 l 408 -282 l 475 63 q 392 5 437 26 q 294 -14 347 -15 q 208 4 245 -13 q 143 48 170 20 q 100 112 117 75 q 75 188 83 148 q 64 271 66 229 q 67 354 62 314 l 68 368 m 251 354 q 248 310 249 334 q 249 262 247 286 q 257 217 251 239 q 275 177 263 195 q 306 149 287 160 q 353 138 325 138 q 432 156 397 136 q 492 211 466 176 l 548 525 q 504 578 532 561 q 436 596 475 595 q 357 576 390 597 q 302 522 324 555 q 269 448 281 488 q 252 368 257 407 l 251 354 z "},"r":{"ha":815,"x_min":118,"x_max":791,"o":"m 652 749 q 722 743 688 748 q 791 729 756 738 l 741 541 q 670 555 705 550 q 598 561 635 560 q 378 441 454 562 l 302 0 l 118 0 l 245 734 l 416 734 l 397 613 q 450 668 422 643 q 509 711 477 693 q 577 739 541 729 q 652 749 612 749 z "},"s":{"ha":815,"x_min":50,"x_max":746,"o":"m 520 205 q 517 235 524 222 q 498 257 510 248 q 469 272 486 266 q 435 283 452 279 q 402 290 418 288 q 376 296 387 293 q 288 322 334 306 q 204 363 242 338 q 143 426 167 389 q 121 515 119 463 q 138 590 123 556 q 179 649 154 623 q 236 694 203 675 q 304 725 268 713 q 378 742 340 736 q 450 747 415 748 q 559 733 506 747 q 653 690 612 719 q 721 616 695 661 q 746 510 746 572 l 563 511 q 554 556 564 537 q 529 587 545 575 q 491 605 513 599 q 444 610 469 610 q 399 606 422 610 q 354 592 375 602 q 318 566 333 583 q 298 525 302 549 q 307 484 294 499 q 340 459 319 468 q 384 445 360 450 q 425 437 408 440 q 520 413 471 428 q 610 374 570 399 q 676 310 650 349 q 699 214 701 271 q 680 138 696 172 q 638 79 664 104 q 577 35 612 53 q 506 6 543 17 q 429 -10 468 -5 q 355 -14 390 -15 q 244 2 298 -14 q 147 48 190 18 q 77 125 104 79 q 50 233 50 171 l 224 233 q 237 182 226 203 q 268 148 249 161 q 312 128 288 134 q 365 122 337 122 q 411 125 386 122 q 459 138 437 129 q 499 163 482 147 q 520 205 515 180 z "},"t":{"ha":815,"x_min":115,"x_max":751,"o":"m 517 913 l 486 734 l 751 734 l 727 595 l 461 595 l 410 279 q 409 225 406 250 q 421 182 411 201 q 452 153 432 164 q 504 142 472 142 q 582 146 543 140 q 659 161 621 153 l 665 30 q 613 7 641 16 q 557 -6 586 -1 q 499 -13 528 -11 q 443 -14 470 -14 q 337 8 381 -13 q 265 66 292 30 q 227 153 237 103 q 222 261 216 203 l 277 595 l 115 595 l 139 734 l 302 734 l 333 913 l 517 913 z "},"u":{"ha":815,"x_min":79,"x_max":781,"o":"m 501 104 q 458 56 481 78 q 408 19 435 35 q 352 -6 382 3 q 288 -14 321 -15 q 210 -1 243 -14 q 152 35 176 12 q 112 87 127 57 q 89 151 97 117 q 80 224 81 186 q 83 300 79 262 l 155 734 l 339 734 l 267 298 q 263 241 263 269 q 270 191 262 213 q 297 154 278 168 q 351 139 316 140 q 439 158 401 138 q 506 218 477 179 l 596 734 l 781 734 l 653 0 l 487 0 l 501 104 z "},"v":{"ha":815,"x_min":101,"x_max":816,"o":"m 364 218 l 366 168 l 385 223 l 618 734 l 816 734 l 431 0 l 258 0 l 101 734 l 283 734 l 364 218 z "},"w":{"ha":815,"x_min":76,"x_max":837,"o":"m 516 232 l 665 734 l 837 734 l 582 0 l 420 0 l 408 464 l 238 0 l 76 0 l 76 734 l 241 734 l 215 233 l 391 734 l 514 734 l 516 232 z "},"x":{"ha":815,"x_min":-10,"x_max":828,"o":"m 429 505 l 621 734 l 828 734 l 527 366 l 712 0 l 524 0 l 398 239 l 199 0 l -10 0 l 302 381 l 123 734 l 311 734 l 429 505 z "},"y":{"ha":815,"x_min":0,"x_max":870,"o":"m 378 300 l 384 233 l 659 734 l 870 734 l 363 -111 q 314 -184 341 -149 q 255 -244 288 -218 q 183 -284 222 -269 q 95 -298 143 -298 q 47 -293 71 -298 q 0 -283 24 -289 l 37 -140 q 66 -142 51 -140 q 94 -143 81 -144 q 130 -133 114 -142 q 158 -111 145 -124 q 183 -83 172 -98 q 207 -54 195 -68 l 272 40 l 94 734 l 288 734 l 378 300 z "},"z":{"ha":815,"x_min":14,"x_max":782,"o":"m 294 151 l 707 151 l 684 0 l 14 0 l 33 123 l 497 581 l 113 581 l 138 734 l 782 734 l 763 614 l 294 151 z "},"{":{"ha":815,"x_min":198,"x_max":732,"o":"m 525 -243 q 452 -227 484 -241 q 395 -190 420 -213 q 354 -136 371 -167 q 328 -72 338 -106 q 316 -1 319 -37 q 317 72 313 36 l 331 183 q 331 254 336 223 q 310 305 326 284 q 266 337 294 326 q 198 351 239 349 l 212 486 q 347 529 298 488 q 409 657 397 571 l 423 768 q 453 887 431 831 q 512 986 475 943 q 600 1056 548 1029 q 720 1085 651 1082 l 732 977 q 663 957 689 977 q 623 906 637 937 q 601 839 608 876 q 590 768 595 802 l 576 657 q 513 508 564 566 q 378 416 463 450 q 436 373 412 398 q 475 319 460 349 q 495 254 490 289 q 498 182 501 220 l 484 71 q 479 33 481 54 q 477 -11 477 11 q 480 -55 477 -33 q 491 -93 483 -76 q 515 -122 500 -111 q 554 -136 530 -134 l 525 -243 z "},"|":{"ha":815,"x_min":243,"x_max":557,"o":"m 359 -278 l 243 -278 l 441 987 l 557 987 l 359 -278 z "},"}":{"ha":815,"x_min":131,"x_max":665,"o":"m 131 -138 q 196 -116 170 -137 q 237 -63 221 -95 q 261 4 253 -32 q 273 72 269 41 l 288 182 q 347 329 299 271 q 476 422 395 387 q 386 522 412 460 q 366 657 359 585 l 380 768 q 386 811 382 788 q 390 856 389 833 q 388 899 391 878 q 377 936 386 920 q 352 963 368 952 q 309 976 336 974 l 340 1082 q 445 1050 402 1080 q 512 977 487 1021 q 545 877 536 932 q 547 768 553 822 l 532 656 q 533 586 528 616 q 553 534 538 555 q 597 501 569 513 q 665 488 625 490 l 652 352 q 517 309 566 351 q 455 182 467 268 l 440 72 q 410 -45 432 11 q 351 -145 388 -102 q 263 -216 315 -189 q 146 -247 212 -243 l 131 -138 z "},"~":{"ha":815,"x_min":5,"x_max":765,"o":"m 765 511 q 745 417 761 463 q 701 335 729 371 q 633 277 673 299 q 539 256 593 255 q 483 263 509 256 q 434 282 457 270 q 389 311 410 294 q 346 347 367 328 q 321 369 334 358 q 293 387 308 379 q 262 400 278 395 q 230 406 246 406 q 190 395 208 406 q 158 370 172 385 q 135 334 144 354 q 122 296 126 315 l 5 310 q 25 402 9 357 q 68 483 41 448 q 137 539 96 518 q 230 559 177 560 q 336 533 289 559 q 425 469 384 507 q 450 447 437 458 q 477 428 463 437 q 507 415 491 420 q 539 410 522 410 q 579 421 562 410 q 609 448 596 431 q 630 484 622 464 q 642 523 639 503 l 765 511 z "},"¡":{"ha":815,"x_min":211,"x_max":572,"o":"m 334 383 l 501 383 l 400 -258 l 211 -258 l 334 383 m 572 646 q 564 604 572 623 q 541 570 555 584 q 507 547 526 555 q 465 539 487 539 q 423 546 442 538 q 389 566 404 553 q 367 597 375 579 q 358 638 358 616 q 366 681 358 661 q 388 716 374 701 q 422 740 403 731 q 466 749 442 748 q 508 742 488 749 q 541 720 527 734 q 564 688 555 707 q 572 646 572 669 z "},"¢":{"ha":815,"x_min":79,"x_max":743,"o":"m 376 136 q 428 143 404 136 q 473 165 453 151 q 507 201 493 180 q 525 250 521 223 l 697 252 q 669 150 694 195 q 606 70 645 104 q 518 15 568 36 q 416 -12 469 -5 l 389 -166 l 256 -166 l 286 -3 q 188 47 229 12 q 122 129 146 81 q 88 234 97 176 q 85 354 79 292 l 87 375 q 122 508 96 445 q 190 621 148 571 q 289 703 232 670 q 414 744 345 735 l 441 894 l 574 894 l 546 738 q 630 702 593 726 q 693 641 667 677 q 731 560 719 606 q 741 462 743 515 l 568 463 q 564 514 570 490 q 543 555 557 538 q 507 584 529 573 q 456 595 486 594 q 377 577 410 597 q 322 525 344 557 q 288 453 300 493 q 271 375 276 414 l 269 355 q 265 284 265 322 q 275 214 265 246 q 309 160 286 182 q 376 136 332 138 z "},"£":{"ha":815,"x_min":7,"x_max":824,"o":"m 367 397 l 355 294 q 332 216 349 251 q 285 151 315 182 l 728 153 l 702 0 l 7 0 l 34 153 l 85 151 q 120 173 106 159 q 143 205 134 187 q 157 243 152 223 q 165 284 161 264 l 180 397 l 73 397 l 100 547 l 202 547 l 222 705 q 259 827 231 772 q 332 921 288 882 q 436 981 377 960 q 562 1001 494 1002 q 675 979 626 1000 q 758 922 725 959 q 808 834 791 886 q 821 721 824 783 l 643 722 q 640 771 644 748 q 624 810 635 793 q 592 837 612 827 q 544 848 573 847 q 490 837 513 848 q 449 805 466 825 q 421 759 432 785 q 407 706 411 733 l 388 547 l 592 547 l 566 397 l 367 397 z "},"¤":{"ha":815,"x_min":-1,"x_max":793,"o":"m 543 52 q 447 3 497 21 q 342 -14 397 -15 q 246 3 292 -13 q 161 52 199 20 l 81 -18 l -1 87 l 82 156 q 65 248 70 201 q 66 340 61 294 q 96 449 74 398 q 155 547 119 500 l 93 631 l 195 722 l 254 644 q 346 686 298 670 q 444 701 393 702 q 536 686 492 701 q 618 642 580 671 l 711 722 l 793 616 l 700 539 q 719 445 714 492 q 718 349 724 398 q 691 246 711 294 q 637 155 670 198 l 699 73 l 596 -18 l 543 52 m 191 338 q 193 259 185 298 q 221 187 201 219 q 273 135 241 155 q 350 113 305 115 q 441 132 399 112 q 516 185 484 151 q 569 262 548 218 q 595 351 589 305 q 593 429 600 390 q 565 500 585 469 q 513 552 545 532 q 436 574 480 572 q 345 556 387 575 q 270 503 302 536 q 217 427 237 470 q 191 338 196 384 z "},"¥":{"ha":815,"x_min":52,"x_max":911,"o":"m 433 569 l 699 987 l 911 987 l 575 503 l 735 503 l 715 391 l 498 391 l 483 307 l 701 307 l 682 195 l 464 195 l 430 0 l 244 0 l 278 195 l 52 195 l 72 307 l 297 307 l 312 391 l 86 391 l 106 503 l 288 503 l 119 987 l 315 987 l 433 569 z "},"¦":{"ha":815,"x_min":218,"x_max":589,"o":"m 218 -183 l 312 356 l 479 356 l 386 -183 l 218 -183 m 500 473 l 332 473 l 421 987 l 589 987 l 500 473 z "},"§":{"ha":815,"x_min":-26,"x_max":815,"o":"m 754 328 q 711 213 749 259 q 615 134 673 166 q 663 48 650 95 q 671 -52 675 1 q 651 -137 668 -99 q 606 -204 633 -175 q 544 -254 579 -233 q 469 -287 509 -274 q 386 -306 429 -300 q 301 -311 343 -311 q 173 -293 233 -310 q 68 -241 113 -276 q -1 -153 24 -206 q -24 -25 -26 -100 l 163 -25 q 172 -86 161 -61 q 202 -126 182 -111 q 250 -149 222 -142 q 311 -157 278 -157 q 367 -153 338 -157 q 421 -136 396 -148 q 464 -104 446 -124 q 488 -53 482 -83 q 485 -15 491 -32 q 465 14 478 1 q 434 37 452 27 q 396 54 416 46 q 358 66 376 61 q 324 77 339 72 q 221 115 272 94 q 131 170 170 137 q 69 248 92 202 q 52 357 47 293 q 95 473 57 426 q 191 551 133 519 q 143 638 156 591 q 134 738 130 685 q 155 823 138 785 q 200 891 173 861 q 263 941 228 920 q 339 976 299 962 q 422 996 380 989 q 507 1001 465 1002 q 633 981 576 1000 q 731 927 690 963 q 793 836 772 890 q 812 710 815 782 l 629 711 q 596 811 631 775 q 496 848 562 847 q 439 844 469 849 q 386 826 410 839 q 342 792 361 813 q 319 740 324 771 q 329 684 313 705 q 369 648 344 662 q 425 625 395 633 q 481 608 456 616 q 585 570 534 592 q 675 516 636 549 q 737 438 715 484 q 754 328 759 392 m 408 450 q 362 465 385 457 q 317 481 339 472 q 265 437 284 463 q 239 375 245 412 q 247 317 233 340 q 286 278 261 294 q 340 253 310 263 q 397 235 370 243 q 443 220 420 227 q 488 204 466 213 q 541 248 519 222 q 569 310 562 273 q 559 366 575 343 q 518 405 544 389 q 462 431 492 421 q 408 450 432 441 z "},"¨":{"ha":815,"x_min":255,"x_max":751,"o":"m 255 923 q 262 958 255 942 q 281 985 269 974 q 310 1004 294 997 q 345 1011 326 1010 q 378 1005 362 1011 q 407 988 395 1000 q 427 962 420 977 q 435 928 435 947 q 428 894 435 909 q 408 866 420 878 q 380 848 396 854 q 346 841 364 842 q 311 847 328 841 q 282 863 295 852 q 262 889 270 874 q 255 923 255 905 m 571 923 q 578 958 571 942 q 597 985 585 973 q 625 1003 609 997 q 660 1010 642 1010 q 694 1005 677 1010 q 723 988 710 999 q 743 962 735 977 q 751 928 751 947 q 744 893 751 909 q 724 866 736 878 q 696 847 712 854 q 661 840 680 840 q 627 845 643 840 q 598 862 610 851 q 578 889 586 873 q 571 923 571 905 z "},"©":{"ha":815,"x_min":45,"x_max":758,"o":"m 549 300 q 531 232 545 262 q 495 181 517 202 q 442 150 473 161 q 372 140 411 139 q 301 158 330 141 q 253 202 271 175 q 226 263 234 229 q 220 336 218 298 l 226 397 q 244 474 230 437 q 283 537 259 510 q 342 580 308 564 q 419 595 376 596 q 534 551 495 594 q 570 433 574 508 l 492 434 q 490 472 493 455 q 478 501 487 489 q 454 520 469 513 q 416 527 439 527 q 369 516 389 527 q 336 486 349 505 q 315 445 323 468 q 304 398 307 422 l 299 336 q 300 293 298 315 q 310 252 302 271 q 334 222 318 234 q 375 209 349 210 q 415 214 398 208 q 443 233 431 220 q 462 262 454 245 q 474 299 469 279 l 549 300 m 114 362 q 120 249 107 304 q 164 149 133 193 q 242 78 195 105 q 353 49 290 50 q 478 74 420 47 q 582 146 536 100 q 655 251 627 191 q 691 373 684 310 q 685 486 698 431 q 641 584 671 541 q 563 655 610 628 q 454 684 515 682 q 328 659 387 686 q 224 588 269 633 q 150 485 179 543 q 114 362 121 426 m 52 362 q 75 462 58 413 q 119 554 92 511 q 182 633 146 597 q 261 695 218 669 q 353 735 304 721 q 456 747 402 749 q 549 731 506 746 q 626 690 591 716 q 687 629 661 664 q 729 552 713 593 q 752 466 745 511 q 753 373 758 420 q 731 273 748 322 q 687 181 714 224 q 624 101 661 138 q 545 39 588 65 q 453 -1 502 14 q 351 -14 404 -15 q 217 21 275 -12 q 119 105 158 53 q 62 225 80 158 q 52 362 45 292 z "},"ª":{"ha":815,"x_min":215,"x_max":675,"o":"m 520 477 q 518 541 516 509 q 450 487 488 507 q 365 469 412 468 q 303 479 331 469 q 255 509 275 490 q 225 556 235 528 q 216 618 215 584 q 241 697 218 666 q 298 747 264 729 q 375 773 333 766 q 456 781 416 781 l 549 780 l 554 816 q 554 848 556 833 q 546 875 552 863 q 527 893 539 886 q 495 901 514 900 q 433 886 458 902 q 398 834 408 869 l 282 843 q 309 915 288 884 q 360 964 330 945 q 428 993 391 984 q 504 1001 465 1002 q 579 986 546 1000 q 633 948 612 972 q 665 889 655 924 q 671 814 675 855 l 637 601 q 631 539 632 570 q 635 477 630 509 l 520 477 m 401 565 q 436 570 418 565 q 470 583 454 574 q 500 604 486 592 q 526 630 515 616 l 538 701 l 454 701 q 416 695 436 700 q 379 682 396 691 q 350 657 362 672 q 336 621 338 642 q 339 595 334 606 q 353 577 344 584 q 375 568 362 571 q 401 565 387 565 z "},"«":{"ha":815,"x_min":109,"x_max":718,"o":"m 254 325 l 363 63 l 254 63 l 109 327 l 111 340 l 337 605 l 468 605 l 254 325 m 504 325 l 613 63 l 504 63 l 359 327 l 360 340 l 587 605 l 718 605 l 504 325 z "},"¬":{"ha":815,"x_min":125,"x_max":696,"o":"m 645 254 l 512 254 l 543 430 l 125 430 l 146 546 l 696 546 l 645 254 z "},"®":{"ha":815,"x_min":47,"x_max":759,"o":"m 52 362 q 73 461 56 413 q 117 553 90 510 q 180 633 144 597 q 259 695 216 669 q 352 735 302 721 q 454 747 401 749 q 588 713 530 745 q 686 628 647 681 q 742 509 724 576 q 752 372 759 442 q 730 272 747 321 q 686 180 713 223 q 623 101 659 137 q 544 39 587 64 q 452 -1 501 13 q 349 -14 403 -16 q 256 2 299 -13 q 178 44 213 18 q 118 105 144 70 q 75 182 92 140 q 53 269 59 223 q 52 362 47 315 m 113 361 q 120 249 106 304 q 163 150 133 193 q 241 78 194 106 q 351 50 289 51 q 477 74 418 47 q 581 146 536 100 q 654 250 626 191 q 690 372 683 309 q 684 485 697 430 q 640 584 671 541 q 562 655 610 628 q 452 684 515 682 q 327 659 385 686 q 223 588 268 633 q 149 484 178 543 q 113 361 120 425 m 326 328 l 298 157 l 222 157 l 290 589 l 425 589 q 481 581 454 588 q 528 558 508 574 q 560 519 549 543 q 570 463 572 496 q 559 422 568 439 q 535 391 549 404 q 502 368 520 378 q 464 350 484 358 l 528 157 l 454 157 l 404 328 l 326 328 m 336 397 l 408 397 q 436 401 422 397 q 463 413 451 405 q 484 432 475 420 q 495 459 492 443 q 494 490 498 478 q 479 509 489 502 q 454 518 469 515 q 424 521 440 520 l 356 522 l 336 397 z "},"¯":{"ha":815,"x_min":252,"x_max":751,"o":"m 734 876 l 252 876 l 270 987 l 751 987 l 734 876 z "},"°":{"ha":815,"x_min":304,"x_max":661,"o":"m 306 809 q 325 883 308 848 q 368 944 341 918 q 430 987 395 971 q 504 1002 465 1002 q 569 985 540 1001 q 619 945 599 970 q 650 887 640 920 q 659 821 661 855 q 641 748 656 783 q 598 687 625 713 q 538 645 572 661 q 465 631 504 630 q 398 646 429 631 q 347 686 368 661 q 315 742 326 710 q 306 809 304 774 m 402 811 q 406 780 401 795 q 420 755 410 766 q 443 738 429 744 q 473 731 456 731 q 507 739 491 731 q 534 758 522 746 q 553 786 546 770 q 563 819 561 802 q 561 850 565 835 q 548 877 557 865 q 527 896 540 888 q 496 903 513 903 q 462 895 478 903 q 433 874 446 887 q 412 845 420 861 q 402 811 404 829 z "},"±":{"ha":815,"x_min":49,"x_max":735,"o":"m 517 633 l 735 633 l 711 475 l 493 475 l 454 224 l 292 224 l 331 475 l 106 475 l 132 633 l 355 633 l 393 871 l 555 871 l 517 633 m 616 0 l 49 0 l 76 154 l 643 154 l 616 0 z "},"²":{"ha":815,"x_min":215,"x_max":673,"o":"m 623 452 l 215 452 l 232 550 l 442 720 q 469 743 454 730 q 497 770 484 756 q 519 801 510 785 q 532 833 529 817 q 524 874 537 859 q 486 888 511 888 q 454 882 468 888 q 430 865 440 876 q 412 841 419 854 q 402 810 406 827 l 268 810 q 289 888 271 853 q 336 947 307 922 q 402 984 365 971 q 483 996 440 997 q 555 986 521 996 q 616 956 590 976 q 658 905 643 936 q 671 833 673 875 q 653 766 669 796 q 612 710 637 736 q 559 664 588 685 q 503 623 530 642 l 414 562 l 642 560 l 623 452 z "},"³":{"ha":815,"x_min":227,"x_max":680,"o":"m 397 770 l 452 770 q 483 774 468 770 q 511 786 498 779 q 533 806 524 794 q 545 836 542 818 q 543 858 547 848 q 531 873 539 867 q 512 883 523 880 q 490 886 501 886 q 445 876 465 886 q 415 842 425 865 l 278 842 q 300 911 281 882 q 347 959 319 941 q 411 987 376 978 q 485 996 447 996 q 554 987 519 995 q 617 961 589 979 q 663 915 646 943 q 678 846 680 887 q 668 803 677 822 q 644 769 659 783 q 610 743 629 754 q 570 722 591 731 q 630 678 610 708 q 648 606 650 648 q 626 530 647 562 q 571 480 604 499 q 497 452 538 460 q 419 444 457 444 q 345 455 380 445 q 284 487 311 466 q 243 538 258 507 q 227 612 227 570 l 357 611 q 379 567 359 581 q 429 554 398 554 q 459 558 444 554 q 487 570 474 562 q 508 590 499 578 q 519 618 516 602 q 517 647 522 636 q 503 665 513 659 q 479 674 493 671 q 452 677 466 677 l 389 677 l 397 770 z "},"´":{"ha":815,"x_min":309,"x_max":675,"o":"m 463 1002 l 675 1002 l 463 813 l 309 813 l 463 1002 z "},"µ":{"ha":815,"x_min":-7,"x_max":796,"o":"m 353 734 l 284 312 q 280 253 281 283 q 287 198 279 223 q 313 157 294 174 q 369 140 332 140 q 454 157 416 138 q 520 212 491 175 l 612 734 l 796 734 l 669 0 l 505 0 l 511 49 q 437 2 476 18 q 352 -14 399 -14 q 235 20 288 -14 l 177 -282 l -7 -282 l 170 734 l 353 734 z "},"¶":{"ha":815,"x_min":182,"x_max":764,"o":"m 450 0 l 511 353 l 467 353 q 343 378 398 355 q 252 443 289 401 q 199 541 216 484 q 188 666 182 597 q 225 800 195 741 q 306 902 256 860 q 419 966 355 943 q 557 988 484 988 l 764 987 l 593 0 l 450 0 z "},"·":{"ha":815,"x_min":337,"x_max":545,"o":"m 337 472 q 345 514 337 494 q 367 547 353 533 q 400 570 380 562 q 441 578 419 578 q 482 571 463 578 q 515 551 500 564 q 537 519 529 538 q 545 479 545 501 q 537 437 545 456 q 515 404 530 418 q 482 382 501 390 q 441 374 463 374 q 400 380 419 373 q 367 400 381 387 q 345 431 353 413 q 337 472 337 450 z "},"¸":{"ha":815,"x_min":193,"x_max":440,"o":"m 371 3 l 357 -37 q 419 -75 399 -46 q 439 -147 440 -104 q 428 -205 439 -180 q 398 -248 417 -230 q 355 -278 380 -266 q 303 -298 331 -290 q 248 -309 276 -305 q 193 -313 219 -313 l 197 -202 q 227 -198 212 -201 q 254 -188 241 -195 q 275 -170 267 -181 q 288 -141 284 -159 q 282 -114 290 -123 q 260 -100 274 -104 q 231 -95 247 -96 q 203 -92 215 -94 l 233 3 l 371 3 z "},"¹":{"ha":815,"x_min":325,"x_max":611,"o":"m 524 447 l 391 447 l 456 819 l 325 791 l 345 901 l 595 980 l 611 980 l 524 447 z "},"º":{"ha":815,"x_min":222,"x_max":698,"o":"m 235 773 q 263 866 241 824 q 319 939 286 909 q 398 986 353 970 q 495 1001 443 1002 q 583 982 545 1000 q 648 934 622 964 q 686 863 674 904 q 693 774 698 822 l 684 694 q 656 601 678 644 q 600 529 634 559 q 522 483 566 498 q 425 468 477 467 q 337 487 376 469 q 272 534 298 504 q 234 605 246 564 q 227 694 222 646 l 235 773 m 345 692 q 347 645 343 668 q 362 605 351 623 q 391 577 373 588 q 437 566 410 566 q 489 575 466 565 q 528 603 511 585 q 554 644 544 621 q 567 694 564 667 l 576 774 q 574 822 578 799 q 559 862 570 844 q 529 890 548 880 q 483 901 510 901 q 432 892 454 902 q 393 865 409 882 q 367 824 376 847 q 353 774 357 800 l 345 692 z "},"»":{"ha":815,"x_min":89,"x_max":694,"o":"m 302 628 l 447 365 l 446 351 l 219 86 l 89 86 l 301 366 l 193 628 l 302 628 m 549 628 l 694 365 l 694 351 l 467 86 l 336 86 l 549 366 l 440 628 l 549 628 z "},"¼":{"ha":815,"x_min":120,"x_max":743,"o":"m 299 509 l 180 509 l 238 844 l 120 819 l 138 918 l 363 989 l 378 989 l 299 509 m 243 161 l 157 210 l 599 840 l 685 790 l 243 161 m 683 197 l 742 197 l 723 98 l 670 98 l 652 0 l 532 0 l 549 98 l 345 98 l 353 185 l 611 480 l 611 483 l 732 482 l 683 197 m 475 197 l 566 197 l 594 330 l 585 317 l 475 197 z "},"½":{"ha":815,"x_min":94,"x_max":777,"o":"m 197 161 l 112 210 l 553 840 l 640 790 l 197 161 m 273 510 l 154 510 l 212 845 l 94 819 l 111 919 l 337 990 l 351 990 l 273 510 m 731 0 l 364 0 l 379 88 l 569 241 q 593 262 580 250 q 618 286 606 273 q 638 313 630 299 q 650 343 647 328 q 642 379 654 366 q 608 392 631 392 q 579 387 592 392 q 557 372 567 381 q 542 349 548 362 q 533 322 536 337 l 412 322 q 431 392 415 361 q 473 445 447 423 q 533 479 499 467 q 605 490 567 490 q 671 480 639 489 q 725 453 702 471 q 763 408 749 435 q 774 342 776 380 q 758 282 773 309 q 722 232 744 255 q 674 190 700 209 q 624 154 648 171 l 543 98 l 748 97 l 731 0 z "},"¾":{"ha":815,"x_min":70,"x_max":774,"o":"m 298 161 l 212 210 l 654 840 l 740 790 l 298 161 m 715 197 l 774 197 l 755 98 l 702 98 l 684 0 l 564 0 l 581 98 l 377 98 l 384 185 l 643 480 l 643 483 l 764 482 l 715 197 m 507 197 l 597 197 l 626 330 l 616 317 l 507 197 m 223 791 l 273 791 q 301 795 287 791 q 326 806 314 799 q 345 823 338 813 q 356 850 353 834 q 354 870 358 862 q 344 884 351 879 q 327 892 336 890 q 306 895 317 895 q 266 886 284 895 q 239 856 248 877 l 116 856 q 136 918 119 892 q 178 961 153 945 q 236 986 204 978 q 302 994 268 994 q 364 986 333 993 q 421 963 396 979 q 462 922 447 947 q 476 860 478 896 q 467 820 475 838 q 445 790 458 803 q 415 766 432 777 q 379 747 398 756 q 433 708 415 735 q 449 644 450 682 q 429 575 448 603 q 380 530 410 547 q 313 505 350 512 q 243 498 277 497 q 176 508 208 498 q 122 536 145 517 q 84 583 98 555 q 70 649 70 611 l 187 648 q 207 609 189 621 q 251 597 224 597 q 279 600 265 597 q 304 611 292 604 q 323 629 315 618 q 333 655 330 640 q 331 681 335 671 q 318 697 327 691 q 297 705 309 702 q 272 708 285 707 l 216 708 l 223 791 z "},"¿":{"ha":815,"x_min":57,"x_max":648,"o":"m 519 434 q 510 362 515 393 q 492 303 504 330 q 460 253 480 277 q 408 203 440 229 q 358 160 384 184 q 310 110 332 137 q 272 54 288 83 q 251 -7 256 24 q 264 -83 245 -53 q 332 -114 284 -113 q 420 -83 388 -115 q 464 1 453 -50 l 648 2 q 614 -115 642 -64 q 543 -200 587 -165 q 443 -251 500 -234 q 322 -267 387 -268 q 213 -248 262 -265 q 127 -198 163 -231 q 75 -118 92 -165 q 62 -7 57 -70 q 87 85 66 43 q 138 162 108 126 q 206 228 169 197 q 279 288 243 259 q 312 320 298 304 q 334 352 326 335 q 348 389 343 370 q 357 433 353 409 l 519 434 m 394 636 q 416 703 394 677 q 481 730 438 729 q 547 707 523 732 q 570 642 570 683 q 547 578 571 601 q 482 553 523 555 q 418 574 442 552 q 394 636 395 595 z "},"Æ":{"ha":815,"x_min":-43,"x_max":862,"o":"m 705 0 l 351 0 l 390 227 l 252 227 l 150 0 l -43 0 l 444 987 l 862 987 l 835 833 l 672 833 l 629 585 l 772 585 l 745 431 l 602 431 l 554 153 l 731 153 l 705 0 m 418 389 l 479 736 l 323 389 l 418 389 z "},"×":{"ha":815,"x_min":77,"x_max":771,"o":"m 77 259 l 318 472 l 151 686 l 272 790 l 437 578 l 675 790 l 771 672 l 530 458 l 697 244 l 576 140 l 412 352 l 173 140 l 77 259 z "},"Ø":{"ha":815,"x_min":-56,"x_max":865,"o":"m 762 422 q 736 313 753 367 q 693 210 720 258 q 632 119 667 161 q 553 47 597 77 q 456 1 509 18 q 341 -14 404 -15 q 238 5 283 -12 q 160 53 194 22 l 75 -64 l -56 -64 l 94 144 q 58 277 66 205 q 60 421 50 349 l 82 565 q 107 673 90 619 q 148 776 123 727 q 207 867 173 825 q 283 939 241 909 q 378 986 326 969 q 492 1001 431 1002 q 591 984 547 1000 q 669 940 635 968 l 734 1029 l 865 1029 l 739 855 q 767 790 756 825 q 784 718 779 755 q 789 642 789 680 q 785 565 789 603 l 762 422 m 596 567 q 601 614 599 589 q 602 665 603 639 l 264 197 q 299 158 277 173 q 356 142 321 144 q 422 153 393 141 q 474 186 451 165 q 513 235 496 207 q 542 295 530 264 q 562 359 554 327 q 574 421 569 392 l 596 567 m 248 420 q 244 386 246 404 q 241 347 242 367 l 567 799 q 531 830 553 819 q 477 844 509 842 q 412 833 440 845 q 362 800 383 821 q 325 750 340 779 q 299 691 309 722 q 281 628 288 660 q 271 566 275 595 l 248 420 z "},"Þ":{"ha":815,"x_min":18,"x_max":795,"o":"m 374 987 l 342 804 l 481 803 q 607 782 549 802 q 708 725 665 762 q 772 632 750 687 q 789 505 795 577 q 747 369 782 427 q 659 272 712 311 q 537 214 605 233 q 396 195 469 195 l 237 196 l 203 0 l 18 0 l 190 987 l 374 987 m 316 652 l 263 348 l 404 347 q 475 357 441 347 q 536 387 509 367 q 581 436 563 407 q 604 505 599 465 q 602 565 609 538 q 577 610 594 591 q 533 639 559 629 q 474 651 507 650 l 316 652 z "},"ß":{"ha":815,"x_min":35,"x_max":749,"o":"m 219 0 l 35 0 l 160 730 q 198 861 170 800 q 271 967 226 922 q 376 1037 315 1012 q 513 1059 437 1061 q 609 1040 566 1058 q 684 991 653 1023 q 730 915 715 959 q 741 817 745 871 q 723 746 738 778 q 690 685 708 715 q 654 625 671 655 q 631 558 637 595 q 633 506 626 532 q 654 456 641 481 q 685 406 668 431 q 716 355 702 381 q 740 301 731 329 q 747 243 749 273 q 720 133 743 181 q 657 51 696 84 q 567 1 618 18 q 454 -16 515 -16 q 357 -6 406 -15 q 265 26 307 2 l 317 175 q 386 145 349 156 q 459 136 422 135 q 532 167 504 138 q 566 239 559 196 q 563 292 571 267 q 541 341 555 317 q 509 390 526 366 q 476 439 491 414 q 453 491 462 464 q 446 551 444 519 q 465 619 449 588 q 499 680 481 650 q 534 740 518 709 q 555 807 551 770 q 554 843 557 825 q 542 875 551 861 q 519 899 534 890 q 485 910 505 909 q 424 895 449 912 q 381 849 398 877 q 355 789 365 821 q 342 728 346 756 l 219 0 z "},"æ":{"ha":815,"x_min":-7,"x_max":800,"o":"m 509 -13 q 461 -8 485 -12 q 416 6 437 -3 q 376 31 395 16 q 345 66 358 45 q 271 8 311 31 q 181 -14 231 -14 q 99 3 134 -13 q 39 47 63 19 q 4 113 15 75 q -5 196 -7 151 q 28 310 -1 263 q 103 387 57 357 q 206 429 149 416 q 323 439 263 441 l 329 439 l 345 522 q 347 545 347 532 q 345 569 348 557 q 335 587 342 580 q 313 595 328 595 q 284 591 296 596 q 265 575 273 585 q 252 553 257 566 q 245 526 248 540 l 70 532 q 94 624 74 583 q 146 692 114 664 q 221 735 178 720 q 315 749 264 749 q 393 737 355 748 q 461 697 431 726 q 535 735 496 722 q 616 747 573 748 q 708 720 671 745 q 766 656 745 695 q 793 569 787 617 q 795 474 800 521 l 769 308 l 473 308 l 463 245 q 479 168 457 195 q 552 140 500 141 q 619 148 587 138 q 682 171 650 158 l 708 39 q 664 13 688 24 q 613 -3 640 3 q 561 -11 587 -9 q 509 -13 534 -14 m 488 435 l 621 436 l 631 513 q 632 542 633 527 q 628 568 632 556 q 613 588 623 580 q 586 596 604 595 q 545 586 561 597 q 520 557 530 575 q 505 519 510 540 q 496 478 500 498 l 488 435 m 232 125 q 256 132 245 126 q 279 142 267 137 l 321 316 l 318 317 q 268 308 292 318 q 225 281 244 298 q 194 240 206 264 q 179 192 182 217 q 179 166 177 178 q 188 144 182 153 q 205 130 195 135 q 232 125 216 125 z "},"ð":{"ha":815,"x_min":5,"x_max":795,"o":"m 669 856 q 730 652 715 755 q 730 439 744 549 l 724 393 q 699 288 716 339 q 654 191 681 237 q 591 107 627 145 q 511 41 555 68 q 416 -1 467 14 q 306 -14 364 -16 q 180 13 237 -12 q 84 82 123 38 q 24 184 44 125 q 11 312 5 243 q 47 451 17 387 q 125 561 77 515 q 239 632 174 607 q 380 656 304 658 q 470 639 427 654 q 550 595 513 624 q 537 685 549 642 q 503 767 526 727 l 329 677 l 287 760 l 437 836 q 398 862 418 852 q 355 882 377 872 l 429 1027 q 524 987 479 1012 q 606 926 568 962 l 754 1002 l 795 918 l 669 856 m 549 450 q 515 481 535 469 q 472 501 495 494 q 426 511 450 508 q 380 514 401 514 q 307 496 339 514 q 251 449 274 478 q 213 385 227 420 q 194 312 198 349 q 196 248 190 279 q 218 193 202 217 q 260 153 234 168 q 322 136 286 138 q 408 157 371 135 q 472 213 446 178 q 514 291 498 248 q 536 376 530 334 l 547 441 l 549 450 z "},"÷":{"ha":815,"x_min":67,"x_max":769,"o":"m 742 389 l 67 389 l 94 543 l 769 543 l 742 389 m 363 735 q 371 775 363 757 q 392 806 378 793 q 424 827 406 819 q 464 835 442 835 q 503 829 484 836 q 534 810 521 823 q 556 781 548 798 q 564 742 564 763 q 557 702 564 720 q 535 670 549 684 q 503 650 522 657 q 463 642 484 642 q 425 649 443 642 q 393 667 406 655 q 372 697 380 680 q 363 735 363 714 m 267 185 q 274 225 267 207 q 295 257 281 243 q 327 278 309 270 q 367 286 345 286 q 406 279 388 286 q 438 260 425 273 q 460 231 452 248 q 468 192 468 213 q 460 152 468 170 q 439 120 453 134 q 407 100 425 107 q 367 92 388 92 q 328 99 347 92 q 296 117 310 105 q 275 147 283 130 q 267 185 267 164 z "},"ø":{"ha":815,"x_min":47,"x_max":756,"o":"m 62 369 q 102 516 71 446 q 182 637 133 585 q 299 720 232 690 q 450 747 367 749 q 576 720 521 745 l 644 824 l 756 824 l 652 664 q 723 536 703 611 q 734 376 743 460 l 732 361 q 691 215 722 283 q 611 94 661 146 q 494 13 562 43 q 345 -14 427 -16 q 282 -7 311 -14 q 229 9 254 -1 l 161 -96 l 47 -96 l 149 61 q 103 119 122 87 q 73 190 84 152 q 59 269 62 227 q 60 355 56 311 l 62 369 m 244 355 q 241 287 241 322 q 252 219 242 251 l 487 583 q 436 595 465 595 q 356 576 389 597 q 299 523 322 556 q 263 449 277 490 q 245 369 250 408 l 244 355 m 549 375 q 552 435 552 404 q 545 498 552 467 l 315 144 q 358 136 334 136 q 438 155 404 134 q 494 209 471 176 q 529 282 517 241 q 547 361 542 322 l 549 375 z "},"þ":{"ha":815,"x_min":-24,"x_max":730,"o":"m 725 364 q 707 274 720 319 q 676 185 695 228 q 630 106 656 142 q 568 42 603 69 q 490 0 533 15 q 395 -14 447 -16 q 301 6 344 -13 q 225 66 258 26 l 159 -282 l -24 -282 l 206 1046 l 390 1046 l 317 669 q 400 728 355 707 q 500 747 446 749 q 588 730 551 746 q 652 686 625 713 q 695 623 679 659 q 720 547 712 587 q 729 463 728 506 q 726 378 730 420 l 725 364 m 542 379 q 545 423 544 399 q 544 471 546 447 q 536 516 542 494 q 517 555 530 538 q 486 583 505 572 q 439 594 467 593 q 359 576 394 595 q 299 520 325 556 l 245 213 q 289 156 260 174 q 359 136 318 138 q 437 156 405 135 q 491 211 470 178 q 524 286 513 245 q 541 365 536 327 l 542 379 z "},"Ħ":{"ha":815,"x_min":-23,"x_max":889,"o":"m 758 826 l 889 826 l 869 710 l 739 710 l 615 0 l 431 0 l 506 428 l 236 428 l 161 0 l -23 0 l 100 710 l 67 710 l 87 826 l 119 826 l 148 987 l 333 987 l 304 826 l 574 826 l 603 987 l 787 987 l 758 826 m 532 583 l 555 710 l 285 710 l 262 583 l 532 583 z "},"ı":{"ha":815,"x_min":60,"x_max":690,"o":"m 187 734 l 587 734 l 486 153 l 690 153 l 663 0 l 60 0 l 87 153 l 300 153 l 374 580 l 160 580 l 187 734 z "},"Ĳ":{"ha":815,"x_min":12,"x_max":827,"o":"m 144 0 l 12 0 l 183 987 l 316 987 l 144 0 m 694 987 l 827 987 l 696 218 q 669 122 688 165 q 617 48 650 79 q 541 2 585 18 q 441 -13 497 -14 q 352 6 390 -12 q 291 55 315 24 q 256 128 267 86 q 248 218 245 170 l 380 218 q 380 177 379 198 q 388 138 381 155 q 409 108 395 120 q 449 96 423 96 q 497 104 477 94 q 531 131 517 114 q 552 171 545 148 q 563 218 559 193 l 694 987 z "},"ĳ":{"ha":815,"x_min":-22,"x_max":821,"o":"m 509 734 l 784 734 l 658 -4 q 623 -124 648 -71 q 557 -216 597 -178 q 461 -275 516 -254 q 336 -296 406 -296 q 264 -293 300 -296 q 193 -284 229 -290 l 211 -170 q 270 -177 240 -175 q 330 -180 300 -179 q 406 -168 372 -180 q 463 -133 439 -156 q 503 -78 488 -111 q 525 -4 519 -45 l 631 618 l 489 618 l 509 734 m 110 734 l 393 734 l 286 115 l 434 115 l 414 0 l -22 0 l -1 115 l 153 115 l 240 618 l 90 618 l 110 734 m 285 920 q 306 975 285 954 q 359 998 326 997 q 390 994 376 999 q 415 979 404 988 q 431 955 425 969 q 437 924 437 941 q 416 870 437 891 q 362 848 395 849 q 332 852 346 847 q 307 867 317 857 q 291 890 296 877 q 285 920 285 904 m 668 921 q 689 976 668 954 q 743 999 709 998 q 774 994 760 1000 q 799 979 788 989 q 815 956 809 970 q 821 925 821 942 q 800 871 821 892 q 745 848 779 850 q 715 853 729 848 q 690 868 701 858 q 674 891 680 878 q 668 921 668 905 z "},"ĸ":{"ha":815,"x_min":34,"x_max":845,"o":"m 382 288 l 250 188 l 218 0 l 34 0 l 161 734 l 345 734 l 290 421 l 363 494 l 602 734 l 845 734 l 530 422 l 719 0 l 494 0 l 382 288 z "},"Ł":{"ha":815,"x_min":29,"x_max":709,"o":"m 338 604 l 499 650 l 475 512 l 314 466 l 260 154 l 709 154 l 682 0 l 47 0 l 117 410 l 29 385 l 54 523 l 141 548 l 218 987 l 405 987 l 338 604 z "},"ł":{"ha":815,"x_min":69,"x_max":789,"o":"m 250 1042 l 649 1042 l 589 695 l 789 780 l 764 640 l 564 555 l 495 153 l 699 153 l 672 0 l 69 0 l 96 153 l 309 153 l 364 471 l 142 377 l 167 517 l 389 611 l 437 888 l 223 888 l 250 1042 z "},"Ŋ":{"ha":815,"x_min":26,"x_max":822,"o":"m 822 987 l 648 -26 q 618 -135 640 -85 q 559 -221 595 -185 q 474 -277 524 -258 q 361 -297 425 -297 q 313 -294 336 -297 q 264 -285 289 -290 l 291 -135 q 324 -142 307 -139 q 358 -144 340 -144 q 401 -133 383 -144 q 433 -106 420 -123 q 453 -68 446 -90 q 465 -25 460 -47 l 469 0 l 317 604 l 212 0 l 26 0 l 198 987 l 380 987 l 530 382 l 636 987 l 822 987 z "},"ŋ":{"ha":815,"x_min":27,"x_max":722,"o":"m 324 734 l 309 630 q 403 716 349 683 q 526 747 457 749 q 629 720 589 746 q 690 651 669 693 q 716 556 711 609 q 715 450 722 503 l 639 -27 q 609 -137 631 -87 q 551 -222 587 -186 q 466 -278 515 -258 q 353 -298 416 -298 q 304 -294 328 -297 q 256 -285 280 -290 l 282 -134 q 315 -141 298 -138 q 349 -144 332 -144 q 392 -134 374 -144 q 422 -107 410 -123 q 442 -70 435 -91 q 453 -27 450 -49 l 530 450 q 533 502 533 476 q 524 547 532 527 q 497 580 515 568 q 447 593 479 593 q 369 578 404 595 q 304 532 334 562 l 211 0 l 27 0 l 155 734 l 324 734 z "},"Œ":{"ha":815,"x_min":32,"x_max":877,"o":"m 713 0 l 446 0 q 357 -9 401 -3 q 267 -14 313 -14 q 181 2 218 -13 q 116 42 144 17 q 71 100 89 66 q 44 172 54 133 q 33 252 35 210 q 37 336 32 294 l 87 651 q 121 785 97 721 q 186 897 145 848 q 285 974 227 945 q 421 1002 343 1003 q 509 997 466 1002 q 597 987 552 991 l 877 987 l 851 840 l 623 840 l 579 587 l 774 587 l 748 439 l 554 439 l 505 157 l 741 157 l 713 0 m 279 144 q 310 144 295 144 q 340 144 324 144 l 469 853 q 439 856 454 854 q 410 857 425 857 q 336 840 366 858 q 289 793 307 822 q 261 727 271 764 q 245 653 251 690 l 197 336 q 192 274 193 307 q 197 213 190 241 q 222 166 203 185 q 279 144 241 146 z "},"œ":{"ha":815,"x_min":2,"x_max":789,"o":"m 28 434 q 56 550 36 493 q 110 652 75 608 q 193 723 144 696 q 311 748 243 749 q 389 733 352 747 q 454 689 426 720 q 523 733 487 718 q 603 747 559 748 q 672 733 642 746 q 723 699 702 720 q 759 649 745 677 q 780 589 772 621 q 788 523 787 557 q 786 456 789 488 l 763 308 l 492 308 l 487 283 q 483 234 483 259 q 491 188 484 209 q 516 154 499 168 q 564 140 533 140 q 614 147 591 139 q 662 165 638 155 l 692 42 q 618 -1 659 12 q 534 -14 578 -14 q 445 1 488 -14 q 370 50 402 16 q 294 2 334 19 q 206 -14 254 -14 q 100 16 142 -12 q 37 89 59 45 q 8 189 14 134 q 8 298 2 244 l 28 434 m 183 297 q 180 271 182 287 q 177 237 178 255 q 177 202 176 220 q 183 170 178 184 q 199 146 189 155 q 226 136 209 136 q 259 143 245 135 q 283 165 273 151 q 298 196 292 178 q 309 232 304 214 q 315 268 313 250 q 318 298 317 285 l 335 435 q 338 461 336 446 q 341 495 340 477 q 340 530 342 513 q 334 563 339 548 q 318 586 329 577 q 291 596 308 595 q 245 580 262 597 q 219 536 229 562 q 205 483 210 511 q 199 435 201 454 l 183 297 m 584 596 q 554 589 566 597 q 533 568 541 581 q 519 536 524 554 q 511 501 514 519 q 505 467 507 483 q 501 439 503 450 l 614 439 l 622 497 q 624 526 623 509 q 622 558 625 543 q 610 584 618 573 q 584 596 602 595 z "},"ſ":{"ha":815,"x_min":200,"x_max":808,"o":"m 200 0 l 328 746 q 369 882 338 821 q 447 986 399 943 q 558 1051 494 1029 q 699 1073 622 1074 q 754 1068 727 1072 q 808 1058 781 1063 l 776 913 q 745 919 760 916 q 713 922 730 921 q 638 910 673 922 q 578 875 604 898 q 535 819 552 852 q 511 747 518 786 l 383 0 l 200 0 z "},"ƒ":{"ha":815,"x_min":-5,"x_max":840,"o":"m 652 595 l 516 595 l 424 -9 q 393 -125 416 -72 q 333 -217 370 -178 q 242 -276 295 -255 q 123 -297 190 -298 q -5 -271 57 -296 l 20 -121 q 64 -139 39 -133 q 112 -146 88 -145 q 165 -135 142 -146 q 202 -105 187 -124 q 227 -61 218 -86 q 239 -9 235 -36 l 332 595 l 226 595 l 248 734 l 353 734 l 359 787 q 398 911 368 857 q 473 1001 427 965 q 579 1056 519 1038 q 708 1072 639 1074 q 775 1063 743 1072 q 840 1044 808 1055 l 810 898 q 721 920 768 920 q 657 912 687 920 q 605 888 628 905 q 566 847 582 872 q 545 787 551 822 l 538 734 l 673 734 l 652 595 z "},"Ơ":{"ha":815,"x_min":58,"x_max":922,"o":"m 768 422 q 742 313 759 367 q 699 210 725 258 q 638 119 673 161 q 559 47 603 77 q 462 1 515 18 q 347 -14 409 -15 q 242 6 288 -12 q 162 57 196 25 q 107 130 129 88 q 74 219 85 172 q 60 319 62 267 q 65 421 58 370 l 87 565 q 112 673 96 619 q 154 776 129 727 q 212 867 178 825 q 289 939 246 909 q 384 986 332 969 q 498 1001 436 1002 q 637 966 580 999 q 730 879 694 932 q 759 904 747 888 q 777 939 770 920 q 789 979 785 958 q 796 1019 793 1000 l 922 1020 q 908 939 918 977 q 879 871 897 901 q 836 817 861 840 q 775 781 810 794 q 794 675 790 730 q 790 565 798 620 l 768 422 m 602 567 q 607 622 605 592 q 607 682 609 652 q 599 741 606 712 q 578 791 592 769 q 541 828 564 814 q 483 844 517 842 q 417 833 446 845 q 367 800 389 821 q 330 750 346 779 q 304 691 315 722 q 287 628 294 660 q 276 566 280 595 l 254 420 q 248 368 250 397 q 246 308 245 338 q 252 248 246 277 q 270 196 257 219 q 305 158 283 173 q 361 142 327 144 q 427 153 398 141 q 479 186 456 165 q 519 235 502 207 q 548 295 536 264 q 567 359 559 327 q 579 421 574 392 l 602 567 z "},"ơ":{"ha":815,"x_min":47,"x_max":844,"o":"m 56 369 q 97 516 66 446 q 177 637 127 585 q 294 720 227 690 q 444 747 361 749 q 563 723 512 746 q 649 662 613 701 q 677 687 665 672 q 697 721 689 703 q 712 759 706 739 q 721 800 718 779 l 844 801 q 802 660 838 717 q 704 573 766 602 q 728 479 722 529 q 728 376 734 429 l 726 361 q 686 215 717 283 q 606 94 655 146 q 489 13 556 43 q 339 -14 421 -16 q 203 18 260 -13 q 111 99 146 49 q 61 216 75 150 q 55 355 47 282 l 56 369 m 239 355 q 236 283 235 321 q 248 213 237 245 q 284 159 259 181 q 353 136 309 137 q 432 155 399 134 q 489 209 466 176 q 524 282 511 241 q 542 361 536 322 l 543 375 q 546 422 545 397 q 544 471 547 447 q 534 517 541 495 q 514 556 527 539 q 480 584 500 573 q 431 595 460 594 q 350 576 384 597 q 294 523 317 556 q 258 449 271 490 q 240 369 245 408 l 239 355 z "},"Ư":{"ha":815,"x_min":68,"x_max":1064,"o":"m 830 987 l 808 854 q 865 872 843 858 q 902 908 888 886 q 923 959 916 930 q 935 1023 930 989 l 1064 1024 q 1040 907 1059 958 q 987 822 1021 857 q 904 768 953 787 q 789 747 855 749 l 720 334 q 678 193 708 257 q 601 82 648 128 q 489 10 553 35 q 343 -14 424 -16 q 215 16 269 -12 q 127 91 161 44 q 81 201 94 138 q 77 332 68 263 l 189 987 l 374 987 l 264 332 q 261 270 261 303 q 271 209 262 237 q 301 161 280 180 q 359 140 321 142 q 432 154 401 138 q 483 199 463 171 q 516 262 504 227 q 534 332 528 297 l 646 987 l 830 987 z "},"ư":{"ha":815,"x_min":58,"x_max":965,"o":"m 480 104 q 437 56 460 78 q 387 19 414 35 q 331 -6 361 3 q 267 -14 300 -15 q 189 -1 222 -14 q 131 35 155 12 q 91 87 106 57 q 68 151 76 117 q 59 224 60 186 q 62 300 58 262 l 134 734 l 318 734 l 245 298 q 242 241 242 269 q 249 191 241 213 q 276 154 257 168 q 330 139 295 140 q 418 158 380 138 q 485 218 456 179 l 575 734 l 760 734 l 743 638 q 808 699 785 658 q 840 799 830 740 l 965 800 q 893 606 956 674 q 722 519 831 537 l 632 0 l 466 0 l 480 104 z "},"ȷ":{"ha":815,"x_min":35,"x_max":626,"o":"m 260 734 l 626 734 l 498 -17 q 461 -141 489 -88 q 389 -229 433 -194 q 286 -281 345 -264 q 157 -298 227 -298 q 96 -294 126 -297 q 35 -286 65 -292 l 59 -132 q 109 -139 83 -137 q 159 -142 134 -142 q 262 -112 222 -144 q 313 -17 302 -79 l 414 580 l 233 580 l 260 734 z "},"ə":{"ha":815,"x_min":81,"x_max":751,"o":"m 448 747 q 583 717 524 746 q 680 640 642 688 q 735 527 718 591 q 745 389 751 463 l 741 361 q 702 217 732 286 q 621 97 671 149 q 505 15 572 45 q 358 -13 438 -15 q 231 15 286 -11 q 142 84 177 40 q 94 189 108 129 q 89 318 81 248 l 105 425 l 563 425 q 557 491 565 460 q 531 544 549 522 q 486 580 513 567 q 421 595 458 593 q 308 582 361 597 q 201 541 254 566 l 160 664 q 224 704 189 688 q 297 730 259 720 q 373 744 334 740 q 448 747 411 748 m 372 137 q 434 150 407 136 q 483 186 462 163 q 519 237 504 209 q 547 295 535 266 l 269 295 l 264 276 q 264 221 260 246 q 282 178 269 196 q 317 149 295 159 q 372 137 340 138 z "},"ˆ":{"ha":815,"x_min":162,"x_max":655,"o":"m 655 864 l 654 844 l 512 844 l 427 930 l 311 845 l 162 844 l 163 865 l 376 1028 l 481 1028 l 655 864 z "},"ˇ":{"ha":815,"x_min":269,"x_max":774,"o":"m 501 944 l 613 1028 l 774 1030 l 774 1015 l 557 844 l 441 844 l 269 1014 l 269 1030 l 421 1029 l 501 944 z "},"˘":{"ha":815,"x_min":280,"x_max":727,"o":"m 727 979 q 704 893 724 930 q 651 830 684 855 q 577 791 619 804 q 489 779 536 779 q 405 794 444 780 q 339 833 367 808 q 296 895 311 859 q 281 979 280 932 l 412 978 q 429 913 410 938 q 491 887 447 888 q 561 911 535 886 q 594 977 587 937 l 727 979 z "},"˙":{"ha":815,"x_min":400,"x_max":598,"o":"m 400 921 q 408 961 400 943 q 428 992 415 979 q 459 1013 441 1005 q 499 1020 477 1020 q 537 1014 519 1021 q 569 996 555 1008 q 590 966 583 983 q 598 928 598 949 q 591 888 598 906 q 570 857 583 870 q 538 837 557 844 q 499 829 520 829 q 461 835 479 829 q 430 854 443 842 q 408 883 416 866 q 400 921 400 900 z "},"˚":{"ha":815,"x_min":338,"x_max":618,"o":"m 339 829 q 353 885 340 859 q 386 929 366 911 q 434 958 407 948 q 490 968 460 968 q 540 959 517 968 q 581 931 564 949 q 608 891 598 914 q 617 840 618 867 q 604 785 616 810 q 571 742 591 760 q 525 714 551 724 q 470 704 499 704 q 419 713 443 704 q 377 739 395 722 q 349 779 359 755 q 339 829 338 802 m 415 831 q 428 787 412 806 q 469 768 443 768 q 496 774 484 768 q 518 789 509 780 q 534 812 528 799 q 541 838 540 825 q 540 862 543 850 q 531 883 537 874 q 514 897 524 892 q 490 903 503 903 q 463 897 475 903 q 439 881 450 891 q 423 859 429 871 q 415 831 416 846 z "},"˛":{"ha":815,"x_min":165,"x_max":429,"o":"m 429 -2 q 389 -22 410 -11 q 351 -48 368 -33 q 322 -82 334 -63 q 309 -125 311 -101 q 314 -154 307 -143 q 340 -166 321 -165 q 368 -162 354 -167 q 395 -153 382 -158 l 419 -259 q 362 -281 392 -274 q 300 -287 332 -288 q 245 -277 271 -287 q 202 -250 220 -267 q 175 -207 184 -232 q 165 -152 165 -182 q 181 -88 166 -117 q 218 -34 195 -58 q 269 8 240 -10 q 326 41 297 27 l 429 -2 z "},"˜":{"ha":815,"x_min":159,"x_max":654,"o":"m 654 1027 q 642 965 652 996 q 612 911 631 935 q 566 872 593 887 q 504 858 538 858 q 456 868 478 858 q 412 889 433 878 q 368 910 390 901 q 321 919 346 920 q 274 899 290 918 q 250 852 257 879 l 159 872 q 173 933 161 903 q 204 987 184 963 q 251 1026 223 1011 q 312 1040 278 1040 q 360 1030 337 1040 q 404 1009 382 1021 q 448 988 426 998 q 495 979 470 979 q 543 999 526 980 q 567 1045 559 1019 l 654 1027 z "},"˝":{"ha":815,"x_min":208,"x_max":808,"o":"m 614 1029 l 808 1029 l 576 850 l 422 850 l 614 1029 m 374 1029 l 559 1029 l 357 850 l 208 850 l 374 1029 z "},"˳":{"ha":815,"x_min":193,"x_max":412,"o":"m 194 -155 q 204 -112 194 -132 q 229 -77 214 -92 q 266 -54 245 -62 q 309 -46 287 -46 q 349 -54 330 -46 q 382 -74 368 -61 q 404 -106 396 -87 q 412 -146 412 -125 q 402 -189 411 -170 q 377 -221 393 -208 q 341 -243 361 -235 q 299 -252 321 -252 q 259 -245 278 -252 q 225 -225 239 -238 q 202 -195 210 -213 q 194 -155 193 -177 m 267 -153 q 273 -177 268 -166 q 296 -188 279 -188 q 323 -175 311 -187 q 338 -149 336 -163 q 334 -123 340 -135 q 311 -111 327 -111 q 295 -115 302 -111 q 282 -124 288 -118 q 273 -138 277 -130 q 267 -153 269 -145 z "},"̀":{"ha":815,"x_min":-456,"x_max":-250,"o":"m -250 821 l -353 821 l -456 1058 l -316 1058 l -250 821 z "},"́":{"ha":815,"x_min":-364,"x_max":-69,"o":"m -227 1059 l -69 1059 l -245 820 l -364 820 l -227 1059 z "},"̃":{"ha":815,"x_min":-526,"x_max":-31,"o":"m -31 1027 q -43 965 -33 996 q -73 911 -54 935 q -119 872 -92 887 q -181 858 -146 858 q -229 868 -207 858 q -273 889 -252 878 q -317 910 -295 901 q -364 919 -339 920 q -411 899 -395 918 q -435 852 -428 879 l -526 872 q -512 933 -524 903 q -481 987 -500 963 q -434 1026 -462 1011 q -373 1040 -407 1040 q -325 1030 -348 1040 q -281 1009 -302 1021 q -237 988 -259 998 q -190 979 -215 979 q -142 999 -159 980 q -118 1045 -125 1019 l -31 1027 z "},"̉":{"ha":815,"x_min":-389,"x_max":-130,"o":"m -389 857 l -385 949 q -356 952 -373 951 q -325 959 -340 954 q -297 973 -309 964 q -283 998 -286 982 q -289 1024 -280 1015 q -312 1036 -298 1032 q -342 1040 -326 1040 q -368 1041 -358 1041 l -357 1131 q -312 1128 -337 1131 q -262 1122 -288 1126 q -213 1108 -237 1117 q -170 1085 -189 1099 q -140 1052 -151 1072 q -130 1004 -130 1031 q -140 962 -131 980 q -164 932 -149 945 q -199 913 -180 920 q -240 901 -219 905 l -246 856 l -389 857 z "},"̏":{"ha":815,"x_min":-578,"x_max":-35,"o":"m -251 849 l -416 849 l -578 1029 l -381 1029 l -251 849 m -35 849 l -194 849 l -323 1029 l -133 1029 l -35 849 z "},"̣":{"ha":815,"x_min":-593,"x_max":-380,"o":"m -593 -155 q -585 -115 -593 -133 q -562 -83 -576 -96 q -528 -63 -547 -70 q -486 -56 -508 -56 q -446 -62 -465 -56 q -412 -80 -427 -68 q -389 -109 -397 -92 q -380 -149 -380 -126 q -388 -189 -380 -171 q -412 -220 -397 -208 q -446 -240 -427 -233 q -487 -248 -466 -248 q -527 -241 -508 -248 q -561 -224 -546 -235 q -585 -195 -576 -212 q -593 -155 -593 -178 z "},"΄":{"ha":815,"x_min":458,"x_max":748,"o":"m 558 1129 l 748 1129 l 557 859 l 458 859 l 558 1129 z "},"΅":{"ha":815,"x_min":259,"x_max":807,"o":"m 565 1221 l 750 1221 l 602 1002 l 498 1002 l 565 1221 m 259 915 q 266 951 259 935 q 286 980 273 968 q 316 999 299 992 q 352 1007 333 1006 q 388 1001 371 1008 q 417 983 405 995 q 438 956 430 972 q 446 920 446 939 q 438 884 446 901 q 418 856 431 868 q 389 837 406 844 q 353 829 372 830 q 317 835 334 829 q 288 852 300 841 q 267 879 275 863 q 259 915 259 895 m 620 916 q 627 952 620 936 q 648 981 635 969 q 677 1000 661 994 q 713 1008 694 1007 q 749 1002 732 1008 q 779 985 766 996 q 799 957 791 973 q 807 922 807 941 q 800 885 807 902 q 780 857 793 869 q 750 837 767 844 q 714 829 733 830 q 678 835 695 829 q 648 852 661 841 q 628 880 635 864 q 620 916 620 897 z "},"·":{"ha":815,"x_min":378,"x_max":587,"o":"m 378 472 q 386 514 378 494 q 408 547 394 533 q 441 570 422 562 q 483 578 460 578 q 523 571 505 578 q 556 551 542 564 q 578 519 570 538 q 587 479 587 501 q 579 437 587 456 q 557 404 571 418 q 524 382 543 390 q 482 374 505 374 q 441 380 460 373 q 409 400 422 387 q 387 431 395 413 q 378 472 378 450 z "},"Γ":{"ha":815,"x_min":22,"x_max":814,"o":"m 787 833 l 352 833 l 208 0 l 22 0 l 193 987 l 814 987 l 787 833 z "},"Δ":{"ha":815,"x_min":-51,"x_max":769,"o":"m 441 987 l 629 987 l 769 0 l -51 0 l 441 987 m 222 153 l 563 153 l 494 728 l 222 153 z "},"Θ":{"ha":815,"x_min":57,"x_max":795,"o":"m 541 416 l 284 416 l 311 568 l 567 568 l 541 416 m 766 422 q 741 313 758 367 q 697 210 724 258 q 636 119 671 161 q 557 47 602 77 q 460 1 513 18 q 345 -14 408 -15 q 240 6 286 -12 q 161 57 195 25 q 106 130 127 88 q 73 219 84 172 q 59 319 61 267 q 64 421 57 370 l 86 565 q 111 673 94 619 q 152 776 127 727 q 211 867 177 825 q 288 939 245 909 q 382 986 330 969 q 496 1001 435 1002 q 603 981 556 1000 q 684 931 649 963 q 742 858 719 900 q 778 769 765 817 q 793 669 790 721 q 789 565 795 616 l 766 422 m 600 567 q 606 622 604 592 q 606 682 608 652 q 597 741 604 712 q 576 791 591 769 q 539 828 562 814 q 481 844 516 842 q 416 833 444 845 q 366 800 387 821 q 329 750 345 779 q 303 691 313 722 q 286 628 292 660 q 275 566 279 595 l 252 420 q 247 368 249 397 q 244 308 244 338 q 250 248 245 277 q 269 196 256 219 q 303 158 281 173 q 360 142 326 144 q 426 153 397 141 q 478 186 455 165 q 517 235 500 207 q 546 295 534 264 q 566 359 558 327 q 578 421 573 392 l 600 567 z "},"Λ":{"ha":815,"x_min":-59,"x_max":720,"o":"m 462 730 l 140 0 l -59 0 l 408 987 l 595 987 l 720 0 l 530 0 l 462 730 z "},"Ξ":{"ha":815,"x_min":9,"x_max":799,"o":"m 35 153 l 678 153 l 651 0 l 9 0 l 35 153 m 180 576 l 678 576 l 652 427 l 153 427 l 180 576 m 193 987 l 799 987 l 772 833 l 165 833 l 193 987 z "},"Π":{"ha":815,"x_min":9,"x_max":822,"o":"m 650 0 l 465 0 l 609 833 l 339 833 l 195 0 l 9 0 l 180 987 l 822 987 l 650 0 z "},"Σ":{"ha":815,"x_min":2,"x_max":835,"o":"m 579 492 l 283 153 l 709 153 l 683 1 l 2 1 l 21 111 l 385 505 l 157 892 l 174 987 l 835 987 l 808 833 l 393 833 l 580 504 l 579 492 z "},"Φ":{"ha":815,"x_min":51,"x_max":850,"o":"m 603 853 q 719 808 670 842 q 797 726 767 774 q 839 617 827 677 q 844 493 850 557 q 808 355 837 418 q 732 244 779 292 q 623 166 686 196 q 486 128 560 136 l 459 0 l 274 0 l 300 130 q 185 172 234 140 q 106 252 136 205 q 63 359 75 300 q 57 482 51 418 q 93 622 64 557 q 169 736 122 687 q 279 815 216 785 q 418 854 342 846 l 445 987 l 631 987 l 603 853 m 239 481 q 237 424 236 452 q 246 369 237 395 q 273 324 255 344 q 321 294 290 304 l 398 690 q 334 659 361 680 q 287 611 306 639 q 256 551 267 584 q 239 481 244 517 m 661 494 q 664 552 665 522 q 656 609 664 582 q 630 656 648 635 q 583 689 613 677 l 505 293 q 568 322 541 303 q 614 368 595 342 q 645 427 633 395 q 661 494 656 458 z "},"Ψ":{"ha":815,"x_min":73,"x_max":919,"o":"m 524 388 q 586 421 561 399 q 627 472 611 443 q 653 534 644 500 q 667 604 662 568 l 732 987 l 919 987 l 854 604 q 817 465 843 528 q 747 353 790 401 q 644 274 704 305 q 506 234 584 243 l 460 0 l 275 0 l 321 235 q 199 278 248 245 q 120 362 149 312 q 82 474 92 412 q 81 604 73 536 l 146 987 l 332 987 l 267 603 q 262 541 263 573 q 267 479 260 509 q 290 426 273 450 q 339 389 307 402 l 447 987 l 632 987 l 524 388 z "},"Ω":{"ha":815,"x_min":-5,"x_max":794,"o":"m 404 184 q 461 222 437 198 q 504 275 486 245 q 535 340 522 305 q 556 410 547 374 q 570 480 565 446 q 580 546 576 515 l 585 583 q 589 631 587 604 q 590 687 591 659 q 584 744 589 716 q 567 794 579 772 q 534 830 555 816 q 483 846 514 844 q 422 836 449 847 q 376 803 396 824 q 340 755 355 783 q 315 697 326 727 q 299 637 305 667 q 289 581 292 606 l 285 545 q 277 492 282 524 q 270 425 273 460 q 267 352 267 389 q 273 282 267 315 q 294 224 279 250 q 334 184 309 198 l 304 0 l -5 0 l 22 155 l 198 157 q 98 338 128 240 q 81 546 68 437 l 85 581 q 110 686 93 634 q 153 786 127 739 q 214 873 179 833 q 292 942 249 913 q 387 987 336 971 q 498 1001 439 1002 q 601 982 555 1000 q 680 934 646 964 q 738 864 714 904 q 774 777 761 823 q 791 681 787 731 q 789 581 794 631 l 784 546 q 755 428 776 485 q 702 320 734 371 q 626 227 669 270 q 530 152 583 184 l 712 155 l 684 0 l 374 0 l 404 184 z "},"α":{"ha":815,"x_min":56,"x_max":734,"o":"m 734 734 l 646 217 q 644 195 645 207 q 645 172 643 182 q 653 153 647 161 q 673 144 660 144 q 688 144 681 142 q 702 146 694 145 l 703 3 q 624 -13 667 -14 q 575 -7 599 -13 q 531 9 551 -2 q 496 38 511 20 q 471 81 480 56 q 383 11 431 37 q 273 -14 335 -15 q 190 3 226 -13 q 130 47 155 20 q 89 109 104 74 q 65 184 73 144 q 57 264 58 223 q 60 345 56 306 l 61 359 q 78 449 66 403 q 107 539 90 495 q 151 621 125 583 q 211 688 177 659 q 287 733 244 717 q 382 747 330 749 q 478 723 435 746 q 549 654 521 699 l 603 734 l 734 734 m 245 342 q 241 302 243 324 q 241 258 240 281 q 247 215 242 236 q 261 177 251 193 q 289 150 272 160 q 331 138 305 139 q 398 150 368 137 q 454 187 429 163 q 457 203 456 195 q 460 219 458 211 l 518 547 q 474 584 500 573 q 415 597 447 595 q 361 586 385 597 q 320 556 338 575 q 289 513 302 538 q 268 462 277 489 q 254 408 259 435 q 246 357 249 380 l 245 342 z "},"β":{"ha":815,"x_min":-14,"x_max":787,"o":"m 511 1002 q 621 983 570 1000 q 710 932 673 965 q 767 851 747 899 q 782 739 787 802 q 765 668 779 701 q 730 609 752 636 q 681 560 709 582 q 620 520 652 538 q 679 479 654 504 q 719 425 704 455 q 740 359 734 394 q 743 287 746 324 q 711 161 738 218 q 642 65 685 105 q 539 5 598 26 q 412 -15 481 -16 q 229 41 312 -14 l 169 -273 l -14 -273 l 153 704 q 194 826 162 771 q 274 921 226 882 q 382 982 321 961 q 511 1002 444 1003 m 441 581 q 548 622 509 583 q 594 726 587 661 q 592 774 597 751 q 574 813 587 796 q 542 840 562 829 q 496 850 522 850 q 436 840 463 851 q 389 809 410 829 q 355 762 368 789 q 336 705 341 734 l 246 179 q 310 145 274 155 q 382 136 346 136 q 448 146 417 136 q 502 177 478 157 q 542 226 526 197 q 563 289 558 254 q 563 346 567 319 q 546 394 559 373 q 511 428 533 415 q 456 442 488 441 l 378 443 l 399 582 l 441 581 z "},"γ":{"ha":815,"x_min":86,"x_max":854,"o":"m 656 734 l 854 734 l 431 3 l 382 -283 l 198 -283 l 252 25 l 86 734 l 272 734 l 365 210 l 366 164 l 386 214 l 656 734 z "},"δ":{"ha":815,"x_min":43,"x_max":758,"o":"m 233 843 q 262 944 235 902 q 329 1014 288 987 q 421 1054 370 1042 q 526 1066 473 1067 q 578 1061 552 1065 q 629 1048 604 1056 q 679 1031 654 1041 q 728 1012 704 1022 l 688 888 q 611 913 650 901 q 532 924 573 924 q 493 920 513 924 q 455 907 473 916 q 425 884 437 898 q 407 848 412 869 q 410 815 403 829 q 431 789 418 800 q 461 770 445 778 q 492 756 478 762 q 607 692 555 729 q 693 608 659 656 q 743 502 727 561 q 751 370 758 442 l 749 355 q 707 209 740 277 q 622 91 674 140 q 502 13 570 41 q 351 -14 433 -16 q 214 16 273 -12 q 116 92 155 44 q 60 205 77 140 q 50 344 43 269 l 52 358 q 80 464 58 414 q 137 552 102 513 q 218 618 172 591 q 319 656 264 646 l 327 671 q 255 744 280 699 q 233 843 230 788 m 237 357 q 236 283 233 321 q 252 212 239 244 q 292 159 265 180 q 364 136 319 138 q 447 155 412 135 q 508 208 483 175 q 547 282 532 241 q 568 364 562 323 l 570 377 q 568 444 573 408 q 547 512 562 480 q 506 567 532 544 q 444 595 481 590 q 387 591 414 599 q 339 566 361 583 q 300 526 317 549 q 270 477 283 503 q 250 424 258 451 q 239 371 242 396 l 237 357 z "},"ε":{"ha":815,"x_min":51,"x_max":788,"o":"m 423 311 q 367 309 397 311 q 310 296 336 306 q 263 267 283 286 q 239 216 243 248 q 248 171 235 188 q 284 144 262 154 q 332 132 307 135 q 378 128 358 128 q 430 131 401 127 q 485 144 458 134 q 530 172 511 154 q 556 217 550 189 l 741 217 q 720 138 737 173 q 674 78 702 104 q 611 34 646 52 q 536 5 576 16 q 457 -10 497 -5 q 378 -14 416 -14 q 308 -8 345 -13 q 234 5 271 -4 q 163 31 197 15 q 104 71 130 47 q 65 127 79 95 q 53 202 51 159 q 70 269 55 240 q 107 319 84 298 q 161 355 131 340 q 224 382 192 370 q 184 407 203 393 q 151 440 165 422 q 129 480 137 458 q 122 528 121 502 q 141 607 123 573 q 188 666 159 642 q 253 706 216 690 q 330 731 290 722 q 411 744 370 741 q 488 747 452 747 q 593 733 540 745 q 690 693 646 720 q 761 625 733 667 q 788 522 788 583 l 606 523 q 592 564 606 548 q 558 588 578 580 q 515 600 538 597 q 471 603 491 603 q 420 600 448 603 q 368 587 393 597 q 326 560 344 577 q 302 515 307 543 q 310 473 298 488 q 342 450 322 458 q 385 441 361 443 q 427 438 409 439 l 589 438 l 566 311 l 423 311 z "},"ζ":{"ha":815,"x_min":42,"x_max":804,"o":"m 804 987 l 784 872 l 468 589 q 393 526 431 557 q 322 459 355 494 q 267 382 290 424 q 237 289 243 341 q 248 206 229 237 q 318 162 267 176 l 435 136 q 499 115 469 127 q 554 83 530 102 q 591 36 578 64 q 602 -31 604 8 q 583 -101 600 -68 q 542 -165 566 -135 q 487 -220 517 -195 q 429 -264 457 -245 l 336 -185 q 359 -160 347 -173 q 382 -132 372 -146 q 401 -101 393 -117 q 412 -68 409 -85 q 411 -43 415 -54 q 400 -26 408 -33 q 381 -15 393 -19 q 357 -7 370 -10 l 249 15 q 160 46 200 26 q 94 97 121 66 q 55 169 67 128 q 47 262 42 210 q 82 387 53 330 q 153 492 111 443 q 244 584 195 541 q 341 668 294 627 l 523 836 l 126 836 l 153 987 l 804 987 z "},"η":{"ha":815,"x_min":14,"x_max":737,"o":"m 311 734 l 295 627 q 396 715 338 682 q 526 747 454 749 q 631 723 589 746 q 697 660 673 699 q 729 570 722 621 q 731 463 737 519 l 605 -281 l 420 -281 l 547 463 q 546 515 550 491 q 531 556 543 538 q 499 583 519 573 q 449 594 479 593 q 366 581 404 595 q 293 537 327 566 l 198 0 l 14 0 l 141 734 l 311 734 z "},"θ":{"ha":815,"x_min":103,"x_max":766,"o":"m 713 354 q 676 214 703 281 q 607 95 650 146 q 503 14 564 43 q 359 -14 441 -16 q 268 2 308 -13 q 197 43 227 17 q 148 103 168 68 q 118 178 128 138 q 105 263 107 218 q 109 353 103 308 l 152 628 q 189 769 163 701 q 258 889 215 837 q 364 973 302 942 q 508 1002 426 1004 q 637 966 586 1000 q 719 881 689 933 q 757 762 748 828 q 758 628 766 696 l 713 354 m 542 429 l 304 429 l 288 321 q 283 260 285 292 q 290 201 282 228 q 316 156 297 174 q 374 136 336 138 q 441 150 414 134 q 486 193 469 166 q 512 253 503 220 q 526 321 521 287 l 542 429 m 329 575 l 566 575 l 578 663 q 583 724 582 691 q 577 784 585 756 q 550 830 570 811 q 493 850 531 848 q 425 835 452 852 q 381 791 398 819 q 355 730 363 764 q 341 663 346 696 l 329 575 z "},"ι":{"ha":815,"x_min":147,"x_max":656,"o":"m 174 734 l 546 734 l 464 243 q 463 201 461 220 q 472 170 465 182 q 496 150 480 157 q 536 143 511 143 q 590 152 565 144 q 640 174 615 161 l 656 36 q 577 -3 618 9 q 491 -14 537 -15 q 388 5 431 -13 q 318 56 345 23 q 282 136 292 89 q 278 241 272 182 l 334 580 l 147 580 l 174 734 z "},"λ":{"ha":815,"x_min":-54,"x_max":707,"o":"m 152 0 l -54 0 l 329 726 l 319 766 q 307 807 314 785 q 287 846 299 828 q 258 877 275 865 q 218 891 241 890 q 191 891 205 892 q 164 888 178 890 l 175 1031 q 226 1041 200 1038 q 277 1044 252 1045 q 350 1027 317 1043 q 408 986 382 1012 q 451 928 433 961 q 477 859 468 895 l 604 260 q 611 225 607 245 q 624 189 616 206 q 644 158 632 171 q 676 143 656 145 q 692 143 684 142 q 707 144 700 144 l 688 -5 q 662 -10 675 -8 q 635 -12 649 -12 q 557 5 592 -11 q 497 48 523 21 q 454 110 471 75 q 428 184 437 145 l 374 484 l 335 382 l 152 0 z "},"ξ":{"ha":815,"x_min":94,"x_max":814,"o":"m 769 821 q 699 839 734 831 q 626 846 663 846 q 563 844 597 846 q 497 830 528 841 q 442 799 465 819 q 412 743 418 778 q 415 702 408 719 q 434 674 421 686 q 466 656 448 663 q 505 646 485 650 q 545 642 525 643 q 581 640 565 640 l 689 640 l 662 484 l 576 485 q 480 477 529 485 q 390 450 431 470 q 319 395 349 430 q 283 304 290 359 q 291 239 278 265 q 328 194 304 212 q 382 165 351 176 q 445 147 414 155 l 507 132 q 572 111 541 123 q 627 80 604 99 q 664 34 650 62 q 675 -34 677 7 q 655 -105 673 -71 q 613 -169 638 -139 q 557 -224 587 -199 q 498 -267 526 -249 l 412 -189 q 435 -164 423 -177 q 458 -136 448 -151 q 476 -105 468 -121 q 486 -71 484 -89 q 484 -48 488 -58 q 472 -31 480 -38 q 454 -20 465 -24 q 432 -12 443 -15 l 393 0 q 314 25 353 12 q 240 55 275 38 q 178 93 206 71 q 131 144 151 115 q 103 211 112 173 q 98 299 94 250 q 124 398 102 355 q 181 473 146 441 q 261 527 216 505 q 356 565 306 549 q 304 593 328 576 q 264 631 281 610 q 238 679 247 652 q 230 738 229 706 q 250 827 233 788 q 297 896 268 866 q 363 945 326 925 q 444 978 401 966 q 531 996 486 991 q 618 1002 575 1002 q 814 967 718 1001 l 769 821 z "},"π":{"ha":815,"x_min":83,"x_max":846,"o":"m 820 589 l 719 589 l 656 217 q 654 189 655 202 q 657 165 654 175 q 670 149 661 155 q 698 142 680 142 q 729 146 714 142 q 759 157 743 151 l 777 26 q 709 -4 743 6 q 636 -12 675 -14 q 552 5 585 -12 q 499 52 518 22 q 474 120 480 81 q 473 208 469 160 l 535 589 l 369 589 l 267 0 l 83 0 l 185 589 l 97 589 l 122 734 l 846 734 l 820 589 z "},"ρ":{"ha":815,"x_min":-33,"x_max":733,"o":"m 726 351 q 709 261 721 306 q 678 175 697 216 q 633 99 659 134 q 572 38 606 64 q 495 -2 538 12 q 401 -15 452 -16 q 299 8 346 -14 q 219 75 252 30 l 151 -282 l -33 -282 l 83 391 q 125 532 94 466 q 207 646 157 597 q 322 722 256 695 q 468 747 388 749 q 563 730 522 746 q 635 687 604 714 q 686 624 666 661 q 717 546 706 588 q 731 458 728 504 q 728 366 733 412 l 726 351 m 545 365 q 548 410 547 385 q 548 460 549 435 q 541 509 547 485 q 524 552 536 533 q 494 583 513 571 q 446 596 475 595 q 371 577 402 597 q 318 524 340 556 q 284 453 297 492 q 265 378 272 414 l 260 374 l 264 374 l 235 209 q 287 154 253 170 q 363 136 320 137 q 440 154 408 135 q 493 204 472 174 q 527 274 515 235 q 543 351 538 313 l 545 365 z "},"ς":{"ha":815,"x_min":42,"x_max":728,"o":"m 444 747 q 562 726 509 746 q 652 669 614 706 q 709 580 689 633 q 726 462 728 528 l 553 463 q 524 559 555 524 q 430 595 493 594 q 349 577 383 597 q 291 527 315 558 q 254 455 268 495 q 235 375 241 415 l 233 355 q 232 280 228 314 q 250 219 235 245 q 292 174 264 192 q 361 147 319 155 q 417 136 388 142 q 473 121 446 130 q 525 99 500 112 q 568 67 549 86 q 596 22 586 48 q 605 -37 606 -3 q 582 -125 604 -86 q 526 -196 559 -165 q 451 -251 492 -227 q 369 -291 410 -274 l 297 -184 q 336 -165 316 -176 q 374 -138 357 -153 q 405 -103 392 -122 q 420 -62 417 -84 q 414 -31 424 -43 q 390 -13 405 -20 q 357 -3 374 -6 q 326 3 339 0 q 200 45 254 16 q 109 119 145 75 q 58 222 73 163 q 49 354 42 281 l 52 375 q 92 522 60 453 q 174 641 123 590 q 293 721 225 692 q 444 747 361 749 z "},"σ":{"ha":815,"x_min":37,"x_max":819,"o":"m 792 581 l 625 579 q 684 470 663 527 q 699 348 704 414 l 697 333 q 659 195 689 259 q 580 84 629 131 q 467 10 532 37 q 326 -14 402 -16 q 190 19 246 -12 q 98 101 133 50 q 50 219 64 153 q 44 357 37 285 l 45 372 q 86 517 55 450 q 168 631 117 583 q 284 707 218 680 q 432 734 351 734 l 819 734 l 792 581 m 229 355 q 225 284 225 321 q 237 214 226 246 q 272 159 248 181 q 340 136 296 138 q 394 145 370 136 q 437 171 418 154 q 470 210 456 187 q 494 258 484 233 q 510 309 504 283 q 519 361 515 336 l 520 375 q 523 442 524 406 q 512 508 522 477 q 479 559 502 538 q 415 581 456 580 q 338 564 370 583 q 283 515 305 545 q 248 446 260 484 q 230 370 235 408 l 229 355 z "},"τ":{"ha":815,"x_min":72,"x_max":738,"o":"m 710 577 l 486 577 l 434 257 q 432 212 431 233 q 439 175 432 191 q 463 150 447 159 q 506 140 478 140 q 560 148 534 140 q 612 165 586 155 l 618 22 q 540 -6 580 2 q 457 -14 500 -15 q 353 9 395 -12 q 286 66 311 30 q 252 152 260 103 q 250 260 244 201 l 302 577 l 72 577 l 99 734 l 738 734 l 710 577 z "},"υ":{"ha":815,"x_min":60,"x_max":736,"o":"m 323 734 l 253 309 q 251 248 250 278 q 263 193 252 217 q 296 152 274 168 q 355 136 317 136 q 411 146 386 135 q 456 178 436 158 q 490 223 475 197 q 516 277 505 249 q 533 334 526 305 q 543 387 539 362 q 553 562 555 474 q 530 735 551 650 l 703 734 q 733 562 730 651 q 726 387 736 473 q 688 234 715 307 q 615 104 661 160 q 503 16 569 49 q 347 -15 436 -16 q 217 10 273 -14 q 125 76 161 34 q 75 178 90 118 q 68 311 60 237 l 139 734 l 323 734 z "},"φ":{"ha":815,"x_min":40,"x_max":808,"o":"m 268 -4 q 153 51 199 12 q 81 141 106 89 q 47 255 55 193 q 47 382 40 317 q 70 487 54 436 q 111 583 85 537 q 170 670 136 629 q 247 743 204 710 l 364 637 q 279 519 314 584 q 232 382 244 454 q 225 321 227 353 q 228 258 223 289 q 247 201 233 228 q 288 157 260 175 l 355 544 q 379 624 361 587 q 426 687 397 661 q 493 729 455 714 q 576 743 531 743 q 661 726 624 742 q 724 683 697 709 q 768 620 751 656 q 795 545 786 585 q 806 463 804 505 q 804 382 808 421 q 768 239 795 305 q 697 123 741 174 q 591 38 652 72 q 452 -7 530 5 l 393 -324 l 208 -324 l 268 -4 m 471 152 q 531 192 506 168 q 575 246 557 216 q 603 310 593 276 q 618 382 614 345 q 621 408 618 389 q 624 449 623 426 q 624 497 625 472 q 620 544 624 523 q 607 577 616 564 q 584 591 599 591 q 555 576 564 590 q 543 547 546 563 l 471 152 z "},"ψ":{"ha":815,"x_min":37,"x_max":830,"o":"m 573 734 l 468 152 q 536 195 507 169 q 584 254 564 222 q 617 325 604 287 q 635 404 629 363 q 651 569 648 486 q 642 735 653 653 l 808 734 q 829 570 829 654 q 819 404 830 486 q 780 253 808 323 q 706 130 752 184 q 596 40 661 76 q 449 -7 532 5 l 389 -324 l 205 -324 l 265 -5 q 145 53 192 12 q 74 148 99 93 q 43 267 49 202 q 45 400 37 332 l 102 734 l 287 734 l 231 397 q 224 333 227 368 q 226 266 222 299 q 243 204 230 233 q 285 155 257 174 l 389 734 l 573 734 z "},"ω":{"ha":815,"x_min":16,"x_max":792,"o":"m 332 733 q 295 648 314 690 q 260 561 277 605 q 231 473 244 517 q 212 382 218 428 q 208 355 211 375 q 202 308 205 334 q 198 251 199 281 q 197 196 196 221 q 202 154 197 171 q 218 135 207 136 q 247 143 235 132 q 269 173 260 155 q 284 216 278 192 q 294 262 290 239 q 300 303 298 285 q 303 331 302 322 l 340 566 l 533 566 l 496 331 q 494 308 496 324 q 490 269 492 291 q 488 224 488 248 q 491 181 488 201 q 501 149 494 162 q 523 136 509 136 q 550 151 538 135 q 570 192 562 167 q 583 247 578 216 q 592 304 589 277 q 597 355 595 332 q 600 387 599 377 q 611 561 611 473 q 593 735 612 649 l 764 734 q 791 562 790 650 q 781 387 792 474 q 768 304 777 349 q 747 214 760 259 q 714 127 734 169 q 666 53 694 85 q 600 3 638 22 q 511 -14 561 -16 q 459 -3 482 -13 q 417 23 435 7 q 386 63 399 40 q 367 112 374 85 q 334 64 352 87 q 296 23 317 41 q 249 -5 275 5 q 192 -14 223 -15 q 111 7 144 -14 q 59 60 79 27 q 30 134 39 93 q 18 219 20 176 q 18 305 16 263 q 25 380 21 347 q 69 563 37 475 q 150 733 102 651 l 332 733 z "},"ϑ":{"ha":815,"x_min":75,"x_max":825,"o":"m 814 394 q 772 384 793 389 q 731 375 752 379 l 720 308 q 679 177 709 237 q 600 74 648 117 q 490 8 553 31 q 353 -14 427 -16 q 232 14 286 -12 q 142 83 178 39 q 91 184 106 126 q 82 309 75 242 l 110 482 l 286 483 l 258 308 q 259 247 254 276 q 279 195 264 218 q 318 158 294 172 q 377 143 342 144 q 439 156 412 142 q 484 195 465 171 q 513 248 502 218 q 529 308 524 278 l 541 376 q 434 424 481 392 q 355 500 387 456 q 308 600 323 545 q 298 717 293 654 l 299 732 q 327 839 304 789 q 386 926 349 889 q 472 983 422 962 q 582 1001 522 1003 q 683 976 641 1000 q 749 913 724 951 q 783 824 774 874 q 786 720 792 774 l 755 538 q 790 545 772 541 q 825 553 808 549 l 814 394 m 470 725 q 471 668 467 695 q 486 618 475 642 q 515 577 496 595 q 562 546 534 559 l 596 739 q 598 768 597 752 q 595 799 599 785 q 582 824 591 814 q 554 834 573 833 q 520 826 534 835 q 496 805 506 818 q 480 774 486 791 q 472 741 474 758 l 470 725 z "},"ϒ":{"ha":815,"x_min":138,"x_max":941,"o":"m 613 813 q 653 885 631 850 q 705 947 676 920 q 771 990 734 974 q 852 1005 807 1006 q 897 1000 876 1004 q 941 987 919 996 l 909 840 q 878 844 893 844 q 832 830 852 844 q 798 795 811 817 l 519 321 l 463 0 l 278 0 l 339 348 l 230 796 q 172 841 216 838 q 155 840 163 841 q 138 838 146 839 l 139 989 q 178 1000 158 996 q 218 1002 198 1003 q 288 985 258 1001 q 339 943 318 969 q 375 884 361 918 q 399 817 389 851 l 453 540 l 453 495 l 471 540 l 613 813 z "},"ϖ":{"ha":815,"x_min":3,"x_max":899,"o":"m 873 597 l 797 598 q 797 445 798 521 q 786 292 795 369 q 773 216 781 254 q 751 144 764 178 q 717 80 737 110 q 670 30 697 51 q 608 -3 643 8 q 528 -14 572 -15 q 473 -3 498 -13 q 429 25 448 7 q 396 66 410 42 q 376 117 382 90 q 341 67 360 91 q 300 24 323 43 q 251 -4 278 6 q 191 -14 224 -15 q 117 -1 149 -14 q 64 34 86 12 q 30 84 43 56 q 10 146 16 113 q 4 215 4 180 q 7 286 3 250 q 42 447 17 368 q 106 600 66 526 l 31 598 l 56 734 l 899 734 l 873 597 m 608 292 q 615 445 615 368 q 614 597 616 521 l 293 599 q 231 446 257 525 q 195 286 205 367 q 193 266 195 279 q 189 236 191 252 q 188 203 188 220 q 191 171 188 186 q 199 147 193 157 q 216 136 205 137 q 249 144 235 134 q 273 173 263 155 q 290 214 283 191 q 300 259 296 237 q 307 301 304 282 q 311 331 309 320 l 331 471 l 524 471 l 504 331 q 501 306 503 323 q 498 267 499 289 q 497 222 496 245 q 501 180 497 199 q 514 149 505 161 q 539 136 523 136 q 564 145 553 136 q 581 168 574 154 q 593 200 588 182 q 601 234 597 217 q 605 267 604 252 q 608 292 606 282 z "},"Ђ":{"ha":815,"x_min":94,"x_max":823,"o":"m 795 833 l 479 833 l 429 574 q 451 577 441 576 q 473 578 461 578 q 595 558 541 578 q 687 498 650 537 q 741 405 724 460 q 753 281 759 350 q 718 154 747 208 q 642 63 689 100 q 534 8 595 26 q 404 -12 473 -11 l 420 132 q 522 172 486 136 q 565 273 557 208 q 564 331 568 304 q 546 377 559 357 q 509 409 532 397 q 452 422 486 420 q 432 422 441 422 q 412 420 422 422 l 334 0 l 149 0 l 293 833 l 94 833 l 121 987 l 823 987 l 795 833 z "},"Є":{"ha":815,"x_min":52,"x_max":809,"o":"m 738 310 q 694 175 728 235 q 610 72 661 115 q 493 7 559 30 q 352 -14 427 -15 q 205 24 265 -12 q 111 116 146 59 q 64 247 76 174 q 62 397 52 320 l 92 589 q 136 744 104 669 q 217 877 167 819 q 337 969 267 935 q 496 1002 407 1004 q 631 977 573 1001 q 728 908 689 952 q 787 804 766 865 q 809 669 807 743 l 624 669 q 618 740 625 708 q 595 796 612 772 q 551 833 579 820 q 481 848 524 847 q 393 826 429 850 q 334 763 357 802 q 296 679 310 725 q 274 591 282 633 l 271 572 l 587 572 l 559 418 l 254 419 l 250 396 q 244 342 246 371 q 243 286 241 314 q 251 231 244 258 q 272 184 258 205 q 308 152 286 164 q 365 138 331 139 q 438 149 406 136 q 493 183 470 161 q 532 238 517 206 q 554 309 547 271 l 738 310 z "},"Љ":{"ha":815,"x_min":-41,"x_max":764,"o":"m 614 987 l 549 642 l 555 642 q 659 610 617 640 q 725 535 701 581 q 756 435 749 490 q 760 327 764 380 q 732 206 754 265 q 673 100 711 146 q 583 26 636 54 q 462 0 530 -1 l 293 0 l 437 833 l 349 833 l 274 392 q 258 303 267 349 q 234 213 249 256 q 198 130 220 169 q 146 61 176 90 q 74 15 115 32 q -20 0 33 -1 l -41 0 l -23 153 l -12 151 q 33 163 14 151 q 65 197 52 176 q 86 245 78 218 q 100 298 95 271 q 109 350 106 325 q 115 392 112 374 l 216 987 l 614 987 m 532 490 l 467 151 l 478 151 q 534 170 511 152 q 572 214 557 188 q 595 271 587 240 q 606 329 603 302 q 609 375 609 349 q 604 426 610 401 q 583 468 597 450 q 542 489 568 486 l 532 490 z "},"Њ":{"ha":815,"x_min":-11,"x_max":749,"o":"m 258 570 l 370 570 l 443 987 l 603 987 l 537 635 q 611 626 579 638 q 668 589 644 613 q 709 532 692 565 q 734 464 725 500 q 746 392 743 429 q 746 323 749 355 q 719 202 741 261 q 659 98 696 144 q 567 26 621 53 q 446 0 513 -1 l 272 0 l 345 416 l 231 416 l 159 0 l -11 0 l 160 987 l 330 987 l 258 570 m 519 483 l 456 153 l 462 153 q 518 170 494 153 q 557 212 541 187 q 581 268 572 237 q 592 325 589 298 q 595 372 595 346 q 588 421 595 398 q 567 462 581 445 q 525 482 552 479 l 519 483 z "},"Ћ":{"ha":815,"x_min":99,"x_max":802,"o":"m 775 833 l 481 833 l 435 594 q 552 572 499 592 q 641 516 605 553 q 694 427 677 479 q 705 307 711 374 l 654 0 l 468 0 l 519 307 q 504 404 527 372 q 417 442 481 436 l 336 0 l 150 0 l 294 833 l 99 833 l 126 987 l 802 987 l 775 833 z "},"Џ":{"ha":815,"x_min":1,"x_max":814,"o":"m 172 987 l 357 987 l 212 153 l 482 153 l 627 987 l 814 987 l 642 0 l 422 0 l 379 -244 l 192 -244 l 235 0 l 1 0 l 172 987 z "},"Б":{"ha":815,"x_min":15,"x_max":808,"o":"m 781 833 l 346 833 l 310 623 l 407 622 q 534 601 475 621 q 637 543 594 581 q 703 449 680 505 q 719 320 725 393 q 677 181 712 241 q 587 80 642 121 q 463 20 532 40 q 319 0 393 -1 l 15 0 l 186 987 l 808 987 l 781 833 m 283 469 l 229 153 l 327 152 q 401 163 366 152 q 464 197 437 175 q 510 250 492 218 q 533 322 528 281 q 530 383 538 357 q 504 428 522 410 q 460 457 486 447 q 400 469 433 467 l 283 469 z "},"Д":{"ha":815,"x_min":-54,"x_max":793,"o":"m 625 -243 l 464 -243 l 506 0 l 145 0 l 102 -243 l -54 -243 l -18 153 l 14 153 q 82 201 53 172 q 131 265 111 230 q 166 340 152 300 q 190 421 180 380 q 208 504 201 463 q 224 583 216 545 l 319 987 l 793 987 l 649 153 l 720 153 l 625 -243 m 411 583 q 387 470 399 527 q 357 357 374 412 q 315 249 340 302 q 254 151 290 197 l 463 153 l 581 833 l 469 833 l 411 583 z "},"Ж":{"ha":815,"x_min":-79,"x_max":891,"o":"m 519 399 l 484 399 l 412 0 l 250 0 l 323 399 l 286 399 l 122 0 l -79 0 l 178 534 l 113 987 l 302 987 l 316 570 l 346 570 l 420 987 l 584 987 l 507 569 l 535 569 l 692 987 l 891 987 l 662 515 l 729 0 l 541 0 l 519 399 z "},"З":{"ha":815,"x_min":24,"x_max":817,"o":"m 812 725 q 792 650 808 684 q 750 589 776 616 q 693 541 725 562 q 625 503 661 519 q 723 413 692 471 q 748 282 753 355 q 726 188 745 230 q 679 112 708 145 q 611 55 649 79 q 529 15 572 31 q 438 -7 485 0 q 344 -14 391 -14 q 219 6 278 -12 q 117 61 161 25 q 48 151 73 97 q 26 275 24 204 l 211 274 q 221 217 210 241 q 252 175 232 192 q 298 149 271 158 q 356 139 325 140 q 426 147 391 138 q 489 173 460 155 q 538 218 518 191 q 564 284 558 246 q 561 348 568 321 q 536 392 554 374 q 491 418 519 409 q 429 428 464 427 l 290 429 l 316 578 l 437 577 q 504 586 472 577 q 561 612 536 594 q 602 656 585 629 q 623 722 618 684 q 616 778 627 754 q 587 817 606 802 q 541 840 568 833 q 484 848 513 848 q 425 841 454 849 q 372 818 396 833 q 332 778 349 802 q 309 723 315 754 l 123 722 q 164 846 129 793 q 251 933 199 899 q 368 985 303 968 q 496 1001 432 1002 q 620 984 560 1000 q 724 934 679 968 q 793 849 768 901 q 812 725 817 797 z "},"И":{"ha":815,"x_min":2,"x_max":817,"o":"m 626 987 l 817 987 l 645 0 l 458 0 l 566 618 l 192 0 l 2 0 l 174 987 l 359 987 l 252 368 l 626 987 z "},"Л":{"ha":815,"x_min":-41,"x_max":827,"o":"m 827 987 l 656 0 l 469 0 l 614 833 l 417 833 l 352 471 q 333 366 344 420 q 304 260 321 312 q 263 160 288 208 q 203 77 238 113 q 120 21 168 41 q 9 0 73 0 l -41 0 l -22 153 l 1 152 q 63 170 37 153 q 105 214 88 187 q 133 275 123 241 q 150 343 144 309 q 160 412 157 378 q 168 471 164 445 l 258 987 l 827 987 z "},"У":{"ha":815,"x_min":-3,"x_max":919,"o":"m 391 641 l 419 467 l 709 987 l 919 987 l 441 186 q 387 105 416 142 q 320 41 357 68 q 239 -1 283 14 q 141 -16 195 -16 q 68 -8 104 -15 q -3 7 33 -1 l 25 157 q 72 143 48 149 q 121 137 96 138 q 217 161 178 136 q 285 233 256 186 l 313 276 l 106 987 l 298 987 l 391 641 z "},"Ц":{"ha":815,"x_min":1,"x_max":804,"o":"m 172 987 l 357 987 l 212 153 l 473 153 l 617 987 l 804 987 l 659 153 l 783 153 l 703 -238 l 530 -238 l 572 0 l 1 0 l 172 987 z "},"Ч":{"ha":815,"x_min":144,"x_max":838,"o":"m 838 987 l 666 0 l 479 0 l 550 377 q 484 362 517 368 q 416 357 450 357 q 289 382 342 357 q 203 449 236 406 q 157 551 170 492 q 153 680 144 610 l 203 987 l 389 987 l 339 680 q 335 620 336 649 q 343 567 335 590 q 372 529 352 544 q 429 513 392 514 q 498 516 464 511 q 568 529 533 522 l 651 987 l 838 987 z "},"Ш":{"ha":815,"x_min":-18,"x_max":872,"o":"m 335 987 l 190 153 l 281 153 l 426 987 l 602 987 l 456 153 l 546 153 l 691 987 l 872 987 l 701 0 l -18 0 l 154 987 l 335 987 z "},"Щ":{"ha":815,"x_min":-18,"x_max":872,"o":"m 335 987 l 190 153 l 281 153 l 426 987 l 602 987 l 456 153 l 546 153 l 691 987 l 872 987 l 726 151 l 812 151 l 731 -237 l 561 -237 l 602 0 l -18 0 l 154 987 l 335 987 z "},"Ъ":{"ha":815,"x_min":108,"x_max":749,"o":"m 134 987 l 485 987 l 416 591 l 464 591 q 583 569 529 589 q 674 512 637 549 q 731 421 712 475 q 744 301 749 368 q 707 171 738 228 q 627 76 676 115 q 515 19 578 38 q 382 0 452 -1 l 127 0 l 273 840 l 108 840 l 134 987 m 390 439 l 340 152 l 389 151 q 505 192 461 152 q 559 303 549 233 q 558 356 562 332 q 542 398 554 380 q 509 426 530 416 q 457 438 488 437 l 390 439 z "},"Ы":{"ha":815,"x_min":-22,"x_max":859,"o":"m 260 585 l 297 585 q 398 558 357 583 q 464 495 439 534 q 498 405 489 456 q 503 301 507 355 q 474 180 498 236 q 410 84 450 125 q 315 21 370 44 q 193 0 260 -1 l -22 0 l 149 987 l 330 987 l 260 585 m 688 0 l 502 0 l 673 987 l 859 987 l 688 0 m 243 439 l 187 144 l 213 144 q 260 162 241 146 q 291 202 279 178 q 309 252 303 225 q 318 302 315 279 q 321 340 320 317 q 320 383 323 362 q 307 420 317 404 q 274 438 296 436 l 243 439 z "},"Ь":{"ha":815,"x_min":15,"x_max":725,"o":"m 310 623 l 407 622 q 534 601 475 621 q 637 543 594 581 q 703 449 680 505 q 719 320 725 393 q 677 181 712 241 q 587 80 642 121 q 463 20 532 40 q 319 0 393 -1 l 15 0 l 186 987 l 373 987 l 310 623 m 283 469 l 229 153 l 327 152 q 401 163 366 152 q 464 197 437 175 q 510 250 492 218 q 533 322 528 281 q 530 383 538 357 q 504 428 522 410 q 460 457 486 447 q 400 469 433 467 l 283 469 z "},"Э":{"ha":815,"x_min":1,"x_max":752,"o":"m 193 328 q 191 262 189 295 q 207 202 194 229 q 245 158 220 175 q 309 138 270 140 q 403 158 364 136 q 467 216 441 180 q 509 297 493 252 q 532 389 524 343 l 538 416 l 279 416 l 307 570 l 553 570 l 558 597 q 564 649 562 621 q 564 704 566 677 q 555 757 562 732 q 534 803 548 783 q 498 835 520 823 q 444 848 475 847 q 365 835 399 850 q 307 794 331 821 q 270 732 283 768 q 254 655 256 696 l 70 654 q 109 794 76 730 q 194 905 142 859 q 314 978 246 952 q 457 1002 381 1004 q 558 984 513 1001 q 638 940 604 968 q 695 873 672 911 q 732 790 719 835 q 749 696 745 745 q 746 596 752 646 l 713 391 q 668 233 701 307 q 583 103 635 159 q 458 16 530 47 q 296 -14 387 -16 q 164 15 221 -12 q 71 87 108 41 q 17 195 34 133 q 7 328 1 256 l 193 328 z "},"Ю":{"ha":815,"x_min":-16,"x_max":791,"o":"m 736 345 q 721 261 730 304 q 695 177 711 218 q 657 101 680 137 q 605 40 635 66 q 536 -1 575 14 q 446 -14 496 -16 q 367 4 399 -13 q 314 50 335 22 q 281 114 292 77 q 265 189 269 150 q 262 269 261 229 q 269 344 264 309 l 278 410 l 221 410 l 149 0 l -16 0 l 155 987 l 321 987 l 245 557 l 303 557 l 317 644 q 331 724 322 682 q 355 807 340 766 q 390 883 370 847 q 440 946 411 919 q 507 988 469 972 q 593 1002 545 1003 q 675 984 641 1000 q 732 940 709 967 q 767 877 755 913 q 785 802 780 842 q 790 722 791 763 q 785 644 789 681 l 736 345 m 616 667 q 621 696 618 679 q 625 734 623 714 q 626 774 627 754 q 621 811 626 795 q 605 839 616 828 q 575 851 594 850 q 541 842 555 852 q 516 817 526 833 q 501 780 507 800 q 492 739 495 760 q 486 699 488 718 q 483 667 484 680 l 431 321 q 428 294 431 311 q 423 257 425 277 q 421 216 421 237 q 425 177 421 195 q 438 149 429 160 q 465 136 448 137 q 502 143 486 134 q 528 168 517 153 q 545 204 538 184 q 555 245 551 224 q 561 286 559 267 q 565 321 563 306 l 616 667 z "},"Я":{"ha":815,"x_min":-101,"x_max":787,"o":"m 429 0 l 497 389 l 355 389 l 106 0 l -101 0 l 191 449 q 99 554 127 492 q 77 692 71 616 q 118 827 83 771 q 207 919 153 883 q 328 971 260 955 q 468 988 396 988 l 787 987 l 616 0 l 429 0 m 260 681 q 285 573 250 609 q 390 535 320 537 l 522 534 l 574 833 l 460 834 q 388 825 422 834 q 327 797 354 816 q 282 750 300 779 q 260 681 264 721 z "},"б":{"ha":815,"x_min":62,"x_max":780,"o":"m 478 693 q 601 663 549 692 q 683 586 652 633 q 727 478 715 539 q 734 353 740 418 l 732 338 q 694 197 724 262 q 614 85 663 132 q 500 11 566 37 q 355 -14 434 -16 q 218 19 276 -13 q 125 103 161 51 q 76 222 90 155 q 69 362 62 289 l 71 376 l 71 378 l 74 404 q 97 526 82 465 q 133 646 111 588 q 186 755 155 703 q 260 849 218 807 q 355 921 302 891 q 475 964 408 951 q 523 974 498 969 q 570 988 548 979 q 608 1014 592 998 q 630 1056 625 1029 l 780 1056 q 752 952 776 994 q 692 885 729 911 q 606 843 654 858 q 502 817 557 827 q 416 788 454 807 q 348 742 378 770 q 294 679 318 715 q 252 600 271 643 q 356 669 300 644 q 478 693 412 694 m 429 541 q 356 526 387 542 q 303 484 325 511 q 268 422 281 457 q 251 350 255 387 l 250 336 q 249 267 246 302 q 264 203 252 232 q 302 156 277 175 q 369 136 327 138 q 444 152 412 135 q 498 198 476 170 q 532 264 519 227 q 549 338 545 300 l 550 353 q 549 419 553 386 q 533 479 546 452 q 494 523 519 506 q 429 541 469 540 z "},"в":{"ha":815,"x_min":20,"x_max":710,"o":"m 20 0 l 147 734 l 433 733 q 497 728 464 732 q 562 715 531 724 q 621 691 593 706 q 668 655 648 677 q 699 603 688 633 q 708 534 710 573 q 692 476 706 501 q 657 431 679 450 q 609 397 636 411 q 555 372 583 382 q 608 351 583 364 q 650 317 632 337 q 677 272 667 297 q 686 215 686 246 q 654 110 684 151 q 580 43 625 68 q 480 9 535 19 q 372 0 425 -1 l 20 0 m 257 306 l 230 150 l 378 149 q 421 154 399 150 q 460 167 442 158 q 491 192 478 176 q 507 232 503 208 q 505 267 511 253 q 487 289 499 281 q 459 301 475 297 q 425 305 442 304 l 257 306 m 279 434 l 393 433 q 433 437 412 434 q 472 449 454 441 q 503 472 490 457 q 520 509 516 486 q 517 546 524 532 q 495 568 509 560 q 463 578 481 576 q 427 582 445 581 l 305 583 l 279 434 z "},"г":{"ha":815,"x_min":23,"x_max":764,"o":"m 737 581 l 307 581 l 206 0 l 23 0 l 151 734 l 764 734 l 737 581 z "},"д":{"ha":815,"x_min":-73,"x_max":778,"o":"m 45 150 q 103 174 79 154 q 145 222 128 193 q 173 287 162 251 q 191 358 184 322 q 203 427 198 394 q 212 486 208 460 l 259 734 l 777 734 l 676 151 l 778 151 l 700 -220 l 529 -220 l 568 0 l 139 0 l 100 -220 l -73 -220 l -22 152 l 45 150 m 397 486 q 379 398 389 442 q 355 311 369 354 q 324 228 342 269 q 281 149 306 186 l 492 151 l 566 576 l 413 576 l 397 486 z "},"ж":{"ha":815,"x_min":-52,"x_max":835,"o":"m 496 278 l 460 278 l 409 0 l 249 0 l 302 279 l 269 279 l 137 0 l -52 0 l 169 399 l 87 734 l 267 734 l 298 456 l 326 456 l 377 734 l 536 734 l 485 455 l 511 455 l 642 734 l 835 734 l 629 385 l 708 0 l 532 0 l 496 278 z "},"з":{"ha":815,"x_min":40,"x_max":747,"o":"m 745 538 q 729 480 743 506 q 693 435 715 455 q 646 400 672 416 q 592 374 619 385 q 674 311 644 352 q 701 213 703 271 q 681 135 699 169 q 635 75 663 100 q 571 32 607 50 q 495 4 534 15 q 415 -10 455 -6 q 338 -14 374 -14 q 231 0 284 -13 q 135 41 178 14 q 66 113 92 69 q 40 218 40 156 l 220 218 q 233 174 220 191 q 266 147 246 157 q 310 133 286 137 q 355 129 334 129 q 406 133 378 129 q 457 149 433 138 q 498 178 481 160 q 521 224 516 197 q 515 269 526 252 q 487 295 505 286 q 446 308 469 304 q 401 311 422 311 l 256 312 l 279 437 l 404 437 q 452 441 427 437 q 499 454 477 444 q 538 480 522 463 q 558 524 554 497 q 552 563 562 547 q 524 588 541 578 q 486 601 507 597 q 446 605 465 604 q 399 602 424 605 q 354 589 375 598 q 316 564 332 580 q 294 524 300 548 l 109 523 q 128 597 112 564 q 170 655 144 630 q 229 698 196 680 q 298 727 262 715 q 372 743 334 738 q 446 747 410 747 q 513 742 478 746 q 583 728 549 737 q 647 703 616 718 q 700 664 677 687 q 734 610 722 641 q 745 538 747 579 z "},"и":{"ha":815,"x_min":9,"x_max":770,"o":"m 582 734 l 770 734 l 643 0 l 459 0 l 539 457 l 197 0 l 9 0 l 136 734 l 320 734 l 240 277 l 582 734 z "},"к":{"ha":815,"x_min":16,"x_max":850,"o":"m 360 275 l 248 275 l 201 0 l 16 0 l 144 734 l 328 734 l 279 453 l 367 453 l 608 734 l 850 733 l 520 372 l 732 0 l 500 0 l 360 275 z "},"л":{"ha":815,"x_min":-41,"x_max":770,"o":"m 770 734 l 642 0 l 458 0 l 559 581 l 366 581 l 340 421 q 321 318 332 370 q 292 219 309 267 q 249 131 274 172 q 188 61 224 91 q 105 15 153 31 q -5 0 57 -1 l -41 0 l -26 155 l -6 154 q 53 166 28 153 q 95 199 78 178 q 122 248 111 220 q 138 305 132 275 q 148 365 144 335 q 156 421 152 395 l 208 734 l 770 734 z "},"м":{"ha":815,"x_min":3,"x_max":787,"o":"m 368 227 l 555 734 l 787 734 l 660 0 l 496 0 l 566 395 l 394 0 l 271 0 l 237 404 l 166 0 l 3 0 l 131 734 l 357 734 l 368 227 z "},"н":{"ha":815,"x_min":9,"x_max":770,"o":"m 642 0 l 458 0 l 507 285 l 243 285 l 193 0 l 9 0 l 136 734 l 321 734 l 269 437 l 534 437 l 585 734 l 770 734 l 642 0 z "},"п":{"ha":815,"x_min":9,"x_max":770,"o":"m 643 0 l 458 0 l 559 581 l 294 581 l 193 0 l 9 0 l 136 734 l 770 734 l 643 0 z "},"т":{"ha":815,"x_min":91,"x_max":848,"o":"m 822 583 l 548 583 l 446 0 l 262 0 l 363 583 l 91 583 l 118 734 l 848 734 l 822 583 z "},"ф":{"ha":815,"x_min":22,"x_max":772,"o":"m 30 370 q 65 502 39 441 q 135 611 92 564 q 235 692 177 659 q 363 738 292 724 l 420 1042 l 606 1042 l 549 736 q 655 684 611 720 q 726 600 699 648 q 762 494 753 551 q 766 376 772 437 l 764 361 q 728 229 755 290 q 659 120 701 168 q 558 40 616 73 q 429 -5 500 8 l 376 -282 l 191 -282 l 243 -2 q 138 50 182 15 q 68 133 95 85 q 32 238 42 181 q 28 355 22 295 l 30 370 m 591 375 q 595 431 595 402 q 589 486 595 459 q 569 535 583 512 q 530 574 555 558 l 448 155 q 544 240 509 187 q 589 361 578 294 l 591 375 m 203 355 q 200 299 200 328 q 205 245 199 271 q 224 197 211 220 q 262 158 238 174 l 344 576 q 250 490 283 543 q 205 369 216 437 l 203 355 z "},"ц":{"ha":815,"x_min":9,"x_max":754,"o":"m 136 734 l 321 734 l 220 151 l 465 151 l 566 734 l 751 734 l 650 151 l 754 151 l 677 -218 l 507 -218 l 545 0 l 9 0 l 136 734 z "},"ч":{"ha":815,"x_min":93,"x_max":795,"o":"m 667 0 l 483 0 l 529 237 q 461 226 495 230 q 393 223 427 222 q 270 240 326 223 q 173 292 213 257 q 113 379 132 326 q 100 503 93 431 l 138 734 l 321 734 l 284 503 q 286 444 280 468 q 307 406 292 420 q 346 384 322 391 q 404 376 370 376 q 475 378 440 374 q 547 389 511 382 l 610 734 l 795 734 l 667 0 z "},"ш":{"ha":815,"x_min":-16,"x_max":814,"o":"m 290 734 l 189 151 l 275 151 l 376 734 l 549 734 l 448 151 l 534 151 l 636 734 l 814 734 l 687 0 l -16 0 l 111 734 l 290 734 z "},"щ":{"ha":815,"x_min":-19,"x_max":812,"o":"m 287 734 l 186 151 l 272 151 l 374 734 l 547 734 l 446 151 l 532 151 l 633 734 l 812 734 l 710 151 l 785 151 l 708 -218 l 558 -218 l 596 0 l -19 0 l 109 734 l 287 734 z "},"ъ":{"ha":815,"x_min":67,"x_max":748,"o":"m 406 467 l 486 467 q 584 452 536 465 q 669 412 632 439 q 727 345 706 386 q 745 247 748 304 q 713 136 742 183 q 640 59 684 90 q 539 14 595 28 q 426 0 483 -1 l 139 0 l 241 587 l 67 587 l 94 734 l 452 734 l 406 467 m 380 320 l 350 146 l 432 146 q 475 153 454 146 q 514 171 496 159 q 544 200 532 182 q 559 241 555 218 q 557 275 562 261 q 541 299 552 290 q 514 313 530 309 q 481 319 498 318 l 380 320 z "},"ы":{"ha":815,"x_min":-6,"x_max":812,"o":"m 247 471 l 270 471 q 362 454 321 469 q 434 410 404 439 q 478 340 463 382 q 490 247 493 299 q 463 141 486 188 q 401 63 439 95 q 313 16 363 32 q 206 0 263 -1 l -6 0 l 122 734 l 292 734 l 247 471 m 686 0 l 499 0 l 627 734 l 812 734 l 686 0 m 233 342 l 193 145 l 215 145 q 290 170 262 147 q 325 241 318 193 q 327 279 328 261 q 319 310 326 296 q 298 332 312 323 q 261 342 284 340 l 233 342 z "},"ь":{"ha":815,"x_min":20,"x_max":731,"o":"m 288 487 l 457 486 q 562 470 511 485 q 650 426 612 455 q 710 352 688 397 q 728 247 731 308 q 693 134 724 181 q 614 57 662 87 q 509 13 567 27 q 393 0 451 -1 l 20 0 l 147 734 l 331 734 l 288 487 m 262 336 l 230 151 l 400 150 q 448 156 424 151 q 491 172 471 161 q 526 201 511 183 q 544 246 540 220 q 542 287 548 270 q 523 314 536 303 q 490 329 509 324 q 450 335 471 334 l 262 336 z "},"э":{"ha":815,"x_min":45,"x_max":731,"o":"m 421 595 q 367 589 393 596 q 320 568 341 582 q 283 532 298 553 q 262 483 269 511 l 90 481 q 109 561 94 524 q 150 627 125 597 q 207 680 174 657 q 276 718 239 703 q 353 741 313 733 q 433 747 393 748 q 572 716 513 746 q 666 636 630 686 q 717 519 703 586 q 723 378 731 453 l 721 357 q 680 210 711 278 q 598 91 648 141 q 479 13 547 41 q 327 -14 410 -16 q 211 8 263 -12 q 121 65 158 28 q 64 154 83 102 q 47 271 45 205 l 218 270 q 248 176 217 212 q 340 137 279 139 q 412 150 381 136 q 466 188 443 163 q 505 244 489 212 q 532 311 520 276 l 314 311 l 335 429 l 543 429 q 541 492 545 462 q 522 544 536 522 q 483 581 508 567 q 421 595 458 594 z "},"ю":{"ha":815,"x_min":-35,"x_max":784,"o":"m 226 425 l 279 426 q 299 504 287 465 q 329 579 312 543 q 370 647 347 615 q 423 701 393 678 q 491 736 453 724 q 574 747 528 749 q 654 731 620 746 q 713 690 689 715 q 752 631 737 665 q 775 561 768 598 q 783 483 783 523 q 780 406 784 444 l 769 326 q 740 204 761 265 q 684 93 720 142 q 596 14 648 44 q 473 -14 544 -16 q 366 14 410 -13 q 298 84 323 41 q 265 181 273 127 q 266 291 257 235 l 206 290 l 156 0 l -35 0 l 92 734 l 279 734 l 226 425 m 444 326 q 441 296 443 315 q 438 257 439 278 q 438 213 437 235 q 445 173 439 191 q 461 143 450 155 q 490 131 472 132 q 527 140 511 130 q 553 167 542 150 q 571 206 564 184 q 583 250 578 228 q 590 292 587 272 q 594 326 592 312 l 604 407 q 606 436 604 418 q 609 476 608 454 q 609 519 610 497 q 602 559 608 541 q 586 589 597 577 q 557 602 575 601 q 520 592 536 602 q 494 565 505 583 q 476 526 483 548 q 464 483 469 505 q 457 440 459 460 q 453 406 454 420 l 444 326 z "},"я":{"ha":815,"x_min":-25,"x_max":785,"o":"m 785 734 l 657 0 l 473 0 l 518 257 l 358 257 l 172 0 l -25 0 l 190 292 q 113 374 138 323 q 90 485 87 425 q 125 597 94 550 q 202 675 155 644 q 307 720 249 705 q 422 734 364 734 l 785 734 m 272 479 q 274 442 269 458 q 292 415 280 426 q 321 397 304 404 q 358 391 338 391 l 541 390 l 574 583 l 415 583 q 368 576 391 583 q 324 556 344 569 q 290 525 304 544 q 272 479 276 505 z "},"ђ":{"ha":815,"x_min":15,"x_max":734,"o":"m 492 807 l 335 807 l 302 631 q 395 715 342 683 q 516 747 448 748 q 625 721 581 747 q 693 653 669 695 q 726 556 718 610 q 728 444 734 502 l 707 318 l 710 318 l 652 -28 q 623 -137 644 -87 q 566 -223 601 -187 q 481 -279 530 -259 q 369 -298 432 -299 q 319 -294 343 -298 q 271 -285 295 -291 l 296 -137 q 329 -145 313 -142 q 363 -147 346 -148 q 406 -137 388 -147 q 437 -110 425 -127 q 456 -72 449 -93 q 467 -28 464 -50 l 472 0 l 469 0 l 545 446 q 545 503 548 477 q 530 549 542 529 q 496 581 517 569 q 441 593 474 592 q 360 578 396 595 q 292 530 323 561 l 199 0 l 15 0 l 155 807 l 35 807 l 57 929 l 176 929 l 196 1042 l 380 1042 l 358 929 l 513 929 l 492 807 z "},"є":{"ha":815,"x_min":55,"x_max":721,"o":"m 353 136 q 405 143 380 136 q 450 165 430 151 q 484 201 470 180 q 502 250 498 223 l 674 252 q 641 139 671 189 q 565 55 611 90 q 461 2 518 20 q 345 -14 404 -16 q 209 18 265 -13 q 117 99 152 48 q 68 215 82 149 q 62 354 55 281 l 64 375 q 104 520 74 452 q 184 640 135 589 q 301 720 234 691 q 449 747 368 749 q 563 725 512 746 q 649 666 614 704 q 703 577 685 629 q 718 462 721 525 l 545 463 q 541 514 547 490 q 520 555 534 538 q 484 584 506 573 q 433 595 463 594 q 363 582 393 597 q 312 542 333 567 q 277 485 290 517 q 256 419 263 453 l 467 419 l 446 300 l 242 300 q 245 242 241 271 q 262 190 250 213 q 296 152 274 167 q 353 136 318 137 z "},"љ":{"ha":815,"x_min":-51,"x_max":791,"o":"m 601 734 l 555 494 q 651 474 607 491 q 727 426 695 456 q 774 352 758 395 q 787 254 791 309 q 756 143 783 191 q 688 63 730 96 q 591 15 646 31 q 478 0 537 -1 l 294 0 l 395 581 l 323 581 l 296 421 q 279 325 289 374 q 253 228 269 275 q 214 139 237 180 q 158 66 191 97 q 81 17 125 35 q -21 0 37 -1 l -51 0 l -33 163 l -20 162 q 30 175 9 161 q 65 211 50 189 q 90 261 80 233 q 106 319 100 290 q 116 375 113 348 q 123 421 120 401 l 175 734 l 601 734 m 604 256 q 593 318 610 297 q 538 345 576 338 l 494 149 q 568 183 539 155 q 604 256 597 210 z "},"њ":{"ha":815,"x_min":-11,"x_max":754,"o":"m 252 451 l 331 451 l 380 734 l 566 734 l 519 494 l 523 494 q 620 475 576 493 q 693 427 663 458 q 739 351 724 395 q 751 254 754 307 q 722 145 747 193 q 657 65 697 98 q 565 16 617 33 q 455 0 513 -1 l 254 0 l 306 300 l 226 300 l 174 0 l -11 0 l 116 734 l 301 734 l 252 451 m 502 345 l 461 149 l 465 149 q 505 158 487 149 q 536 181 523 167 q 557 215 549 196 q 568 255 565 234 q 568 288 570 272 q 560 315 567 303 q 542 335 553 328 q 511 345 530 342 l 502 345 z "},"ћ":{"ha":815,"x_min":22,"x_max":741,"o":"m 522 814 l 343 814 l 309 631 q 402 715 349 683 q 523 747 455 748 q 632 721 588 747 q 700 653 675 695 q 733 556 725 610 q 734 444 741 502 l 661 0 l 476 0 l 551 446 q 552 503 555 477 q 536 549 549 529 q 503 581 524 569 q 448 593 481 592 q 367 578 403 595 q 299 530 330 561 l 205 0 l 22 0 l 163 814 l 65 814 l 87 937 l 184 937 l 203 1042 l 387 1042 l 366 937 l 543 937 l 522 814 z "},"џ":{"ha":815,"x_min":9,"x_max":770,"o":"m 321 734 l 220 151 l 485 151 l 586 734 l 770 734 l 643 0 l 418 0 l 376 -243 l 192 -243 l 235 0 l 9 0 l 136 734 l 321 734 z "},"Ѡ":{"ha":815,"x_min":17,"x_max":885,"o":"m 885 987 l 760 252 q 734 151 753 199 q 683 65 715 102 q 607 6 652 28 q 505 -14 563 -16 q 423 8 459 -13 q 368 71 387 29 q 302 9 338 33 q 217 -14 266 -15 q 122 9 161 -14 q 59 69 83 32 q 26 153 35 106 q 22 250 17 200 l 147 987 l 319 987 l 195 250 q 192 218 193 237 q 194 182 191 199 q 206 152 197 165 q 235 138 215 139 q 268 150 255 138 q 289 179 281 161 q 300 216 296 196 q 306 250 304 235 l 430 987 l 602 987 l 479 250 q 476 217 477 236 q 479 181 475 198 q 493 151 483 163 q 523 138 503 139 q 554 150 542 138 q 573 180 566 162 q 584 217 581 197 q 589 250 587 236 l 713 987 l 885 987 z "},"ѡ":{"ha":815,"x_min":18,"x_max":824,"o":"m 824 734 l 745 267 q 721 164 738 215 q 674 73 704 113 q 600 8 644 33 q 496 -14 556 -16 q 413 10 449 -13 q 360 77 378 33 q 330 41 346 58 q 295 12 313 24 q 254 -8 276 -1 q 206 -14 232 -15 q 111 13 149 -14 q 52 79 73 39 q 25 168 31 119 q 24 267 18 218 l 102 734 l 269 734 l 193 266 q 191 246 192 258 q 189 220 189 234 q 189 191 188 205 q 193 164 189 176 q 205 145 197 153 q 225 136 212 137 q 262 149 248 135 q 284 184 276 163 q 296 228 292 205 q 302 266 300 250 l 378 734 l 550 734 l 473 266 q 470 231 472 252 q 471 188 469 209 q 483 152 473 168 q 515 136 493 137 q 547 151 535 136 q 566 187 559 166 q 575 230 572 208 q 579 266 578 252 l 656 734 l 824 734 z "},"ѣ":{"ha":815,"x_min":58,"x_max":729,"o":"m 544 730 l 370 730 l 326 478 l 456 477 q 559 462 509 476 q 647 420 609 448 q 707 348 686 391 q 726 245 729 304 q 691 133 722 179 q 613 56 661 86 q 508 13 566 26 q 393 0 450 -1 l 58 0 l 185 730 l 79 730 l 100 852 l 206 852 l 242 1059 l 427 1059 l 391 852 l 566 852 l 544 730 m 300 327 l 269 151 l 400 150 q 447 155 423 151 q 491 171 471 160 q 525 200 511 182 q 543 244 539 218 q 539 282 547 267 q 519 307 532 298 q 487 321 505 317 q 449 326 468 326 l 300 327 z "},"Ѥ":{"ha":815,"x_min":-34,"x_max":833,"o":"m 240 584 l 301 583 q 323 674 311 626 q 353 769 336 722 q 394 859 370 816 q 450 933 418 901 q 526 984 483 966 q 625 1002 569 1003 q 707 985 672 1000 q 766 946 741 970 q 805 888 790 921 q 826 817 819 854 q 833 740 833 780 q 829 661 833 699 l 663 661 q 667 709 665 680 q 665 765 669 739 q 647 811 661 792 q 603 831 633 831 q 559 818 577 831 q 528 783 541 805 q 507 733 515 761 q 494 679 499 706 q 485 626 488 651 q 478 583 481 600 l 624 584 l 595 420 l 460 422 l 458 410 q 451 373 455 396 q 443 321 446 349 q 439 264 439 294 q 444 212 439 235 q 463 172 450 188 q 499 156 475 157 q 534 163 519 155 q 559 184 549 171 q 576 215 569 198 q 587 251 583 233 q 594 287 591 269 q 599 319 596 305 l 763 320 q 739 198 758 258 q 686 90 720 137 q 600 14 652 42 q 477 -13 549 -15 q 387 10 425 -11 q 325 64 349 31 q 287 141 300 98 q 269 230 273 184 q 268 323 264 277 q 280 410 271 370 l 283 422 l 211 420 l 138 0 l -34 0 l 137 987 l 310 987 l 240 584 z "},"ѥ":{"ha":815,"x_min":-20,"x_max":796,"o":"m 575 307 l 457 307 q 454 281 456 297 q 451 248 452 266 q 452 213 450 231 q 458 181 453 195 q 474 158 464 168 q 501 149 484 149 q 533 156 519 148 q 555 176 546 163 q 569 204 564 189 q 578 235 575 220 l 747 235 q 720 138 741 184 q 667 58 700 92 q 590 4 635 24 q 490 -14 546 -15 q 380 17 425 -12 q 310 92 336 46 q 276 194 284 138 q 275 308 268 251 l 210 307 l 157 0 l -20 0 l 107 734 l 284 734 l 231 433 l 285 433 q 323 549 300 491 q 384 651 347 606 q 471 724 420 696 q 592 749 522 751 q 691 726 651 748 q 754 667 731 703 q 787 582 778 630 q 794 480 796 533 l 626 480 q 626 514 626 496 q 621 549 625 533 q 605 576 616 565 q 572 587 593 587 q 527 571 544 588 q 498 530 509 555 q 481 479 488 506 q 471 433 475 452 l 597 433 l 575 307 z "},"Ѧ":{"ha":815,"x_min":-66,"x_max":772,"o":"m 549 286 l 481 286 l 432 0 l 273 0 l 323 286 l 273 286 l 134 0 l -66 0 l 431 987 l 619 987 l 772 0 l 587 0 l 549 286 m 337 422 l 528 422 l 487 732 l 337 422 z "},"ѧ":{"ha":815,"x_min":-24,"x_max":720,"o":"m 509 184 l 444 184 l 412 0 l 285 0 l 317 184 l 266 184 l 171 0 l -24 0 l 382 734 l 568 734 l 720 0 l 542 0 l 509 184 m 330 309 l 484 309 l 454 488 l 450 553 l 414 473 l 330 309 z "},"Ѩ":{"ha":815,"x_min":-17,"x_max":726,"o":"m 581 299 l 553 300 l 498 0 l 393 0 l 448 300 l 420 300 l 309 0 l 154 0 l 273 298 l 184 298 l 132 0 l -17 0 l 155 987 l 303 987 l 207 431 l 326 431 l 548 987 l 694 987 l 726 0 l 583 0 l 581 299 m 467 431 l 579 431 l 580 737 l 467 431 z "},"ѩ":{"ha":815,"x_min":-17,"x_max":726,"o":"m 568 177 l 537 177 l 503 0 l 391 0 l 426 178 l 391 178 l 309 0 l 153 0 l 237 176 l 163 176 l 132 0 l -17 0 l 111 734 l 260 734 l 185 309 l 300 309 l 503 734 l 650 734 l 726 0 l 583 0 l 568 177 m 448 309 l 556 309 l 542 513 l 448 309 z "},"Ѫ":{"ha":815,"x_min":-41,"x_max":869,"o":"m 588 527 q 679 500 642 522 q 739 445 717 479 q 769 368 762 412 q 772 273 777 323 l 728 0 l 542 0 l 587 273 q 590 312 590 294 q 584 343 589 330 q 565 365 578 357 q 528 376 551 374 l 513 376 l 444 0 l 258 0 l 327 378 l 302 378 q 224 350 250 378 q 191 273 199 322 l 145 0 l -41 0 l 4 273 q 94 462 21 399 q 292 532 167 524 l 162 987 l 869 987 l 588 527 m 451 600 l 574 831 l 396 831 l 451 600 z "},"ѫ":{"ha":815,"x_min":-28,"x_max":808,"o":"m -28 0 l -3 161 q 21 259 3 216 q 68 334 39 302 q 138 386 97 366 q 235 413 180 406 l 117 734 l 808 734 l 562 407 q 637 374 608 397 q 683 317 667 350 q 704 243 699 283 q 704 161 708 203 l 679 0 l 494 0 l 519 163 q 523 195 522 177 q 523 229 525 213 q 511 256 520 244 q 483 269 503 267 l 471 270 l 420 0 l 236 0 l 286 272 l 271 272 q 232 262 248 272 q 206 237 216 252 q 191 202 196 222 q 182 161 185 182 l 156 0 l -28 0 m 399 425 l 517 606 l 345 606 l 399 425 z "},"Ѭ":{"ha":815,"x_min":-35,"x_max":889,"o":"m 170 0 l 215 294 q 252 405 225 352 l 182 404 l 113 0 l -35 0 l 136 987 l 283 987 l 206 540 l 439 540 l 368 987 l 889 987 l 656 534 q 726 503 699 526 q 768 446 753 479 q 787 373 783 412 q 787 295 791 334 l 735 0 l 593 0 l 637 296 q 641 325 639 309 q 642 357 643 342 q 632 385 640 373 q 607 399 625 396 l 597 399 l 524 0 l 385 0 l 456 401 l 444 401 q 407 390 422 400 q 384 365 393 380 q 369 332 374 350 q 360 295 363 313 l 309 0 l 170 0 m 566 659 l 655 847 l 542 847 l 566 659 z "},"ѭ":{"ha":815,"x_min":-32,"x_max":844,"o":"m 183 0 l 210 176 q 223 231 214 205 q 246 283 233 257 l 165 281 l 117 0 l -32 0 l 96 734 l 244 734 l 188 410 l 412 410 l 338 734 l 844 734 l 649 401 q 711 368 687 391 q 747 315 734 345 q 763 249 760 284 q 762 178 766 213 l 730 0 l 589 0 l 613 178 q 617 208 615 192 q 617 237 618 223 q 608 262 615 252 q 583 279 600 273 l 582 279 l 576 272 l 529 0 l 388 0 l 439 280 l 436 280 q 402 270 416 279 q 379 245 388 260 q 366 212 371 230 q 358 177 361 194 l 324 0 l 183 0 m 538 467 l 618 618 l 512 618 l 538 467 z "},"Ѯ":{"ha":815,"x_min":12,"x_max":755,"o":"m 366 584 q 430 592 399 584 q 485 616 460 600 q 527 657 510 632 q 548 718 543 682 q 544 770 552 749 q 517 805 535 791 q 475 824 500 818 q 424 831 451 830 l 239 831 l 266 987 l 431 987 q 548 972 491 985 q 648 928 605 958 q 716 851 691 899 q 736 734 741 804 q 717 654 732 690 q 677 590 702 618 q 618 540 652 562 q 545 503 585 519 q 652 416 615 473 q 683 282 688 359 q 646 152 677 208 q 563 59 614 96 q 448 3 513 22 q 315 -15 384 -15 l 277 -14 q 243 -19 260 -15 q 213 -32 227 -23 q 191 -53 200 -40 q 178 -85 181 -66 q 181 -121 175 -106 q 198 -149 186 -137 q 224 -171 209 -161 q 255 -188 239 -180 l 192 -303 q 115 -268 149 -290 q 58 -214 81 -245 q 24 -144 35 -182 q 14 -60 12 -105 q 39 33 17 -6 q 97 96 61 72 q 178 132 132 121 q 273 143 223 144 l 313 142 q 377 151 346 142 q 434 176 409 159 q 477 218 460 193 q 500 279 495 244 q 496 345 506 317 q 467 390 487 372 q 416 416 446 408 q 352 427 387 425 l 248 427 l 275 585 l 366 584 m 481 1209 l 593 1293 l 755 1295 l 755 1280 l 538 1109 l 422 1109 l 249 1279 l 250 1295 l 401 1294 l 481 1209 z "},"ѯ":{"ha":815,"x_min":37,"x_max":745,"o":"m 359 424 q 407 429 382 425 q 453 445 432 434 q 489 474 474 456 q 508 520 504 492 q 501 559 512 545 q 473 581 490 573 q 433 591 455 589 q 394 595 412 594 l 209 595 l 233 734 l 399 733 q 465 729 430 732 q 533 716 499 725 q 596 694 566 708 q 648 658 626 680 q 683 606 671 636 q 694 536 696 576 q 680 476 692 503 q 647 429 667 450 q 602 392 627 408 q 547 363 576 376 q 594 339 572 353 q 631 306 616 325 q 655 263 647 287 q 663 212 664 240 q 647 136 662 169 q 607 77 631 102 q 550 34 583 52 q 482 6 518 17 q 408 -10 446 -5 q 334 -15 370 -15 l 301 -14 q 266 -19 283 -15 q 233 -31 248 -22 q 207 -52 218 -39 q 193 -85 197 -65 q 195 -120 190 -104 q 209 -148 199 -136 q 233 -170 219 -161 q 262 -188 247 -180 l 201 -294 q 134 -256 165 -279 q 82 -203 104 -233 q 48 -137 60 -173 q 38 -60 37 -101 q 61 25 40 -10 q 115 82 81 60 q 190 115 148 104 q 277 125 233 125 l 313 124 q 364 128 336 124 q 416 142 392 132 q 459 171 441 153 q 483 217 477 189 q 475 262 488 245 q 443 289 463 279 q 397 301 422 298 q 351 304 372 304 l 237 304 l 259 425 l 359 424 m 471 950 l 583 1034 l 745 1036 l 745 1021 l 528 850 l 412 850 l 239 1020 l 239 1036 l 391 1035 l 471 950 z "},"Ѳ":{"ha":815,"x_min":48,"x_max":787,"o":"m 758 422 q 732 313 749 367 q 689 210 715 258 q 628 119 663 161 q 549 47 593 77 q 452 1 505 18 q 336 -14 399 -15 q 232 6 277 -12 q 152 57 186 25 q 97 130 119 88 q 64 219 75 172 q 50 319 52 267 q 55 421 48 370 l 77 565 q 102 673 85 619 q 143 776 119 727 q 202 867 168 825 q 279 939 236 909 q 374 986 321 969 q 488 1001 426 1002 q 594 981 547 1000 q 675 931 640 963 q 733 858 710 900 q 769 769 756 817 q 784 669 781 721 q 780 565 787 616 l 758 422 m 572 439 l 246 439 l 243 420 q 238 368 240 397 q 236 308 235 338 q 241 248 236 277 q 260 196 247 219 q 295 158 273 173 q 351 142 317 144 q 417 153 388 141 q 469 186 446 165 q 509 235 492 207 q 537 295 526 264 q 557 359 549 327 q 569 421 564 392 l 572 439 m 265 561 l 590 561 l 591 567 q 597 622 595 592 q 597 682 599 652 q 589 741 595 712 q 568 791 582 769 q 530 828 553 814 q 473 844 507 842 q 407 833 436 845 q 357 800 378 821 q 320 750 336 779 q 294 691 304 722 q 277 628 283 660 q 266 566 270 595 l 265 561 z "},"ѳ":{"ha":815,"x_min":49,"x_max":737,"o":"m 58 369 q 98 516 67 446 q 178 637 129 585 q 295 720 228 690 q 446 747 363 749 q 582 715 525 746 q 674 632 639 684 q 724 515 710 581 q 730 376 737 448 l 728 361 q 687 215 718 283 q 607 94 656 146 q 490 13 557 43 q 340 -14 422 -16 q 205 18 262 -13 q 112 99 148 49 q 63 216 77 150 q 56 355 49 282 l 58 369 m 432 595 q 364 583 393 597 q 312 545 334 568 q 276 489 290 521 q 252 425 261 458 l 547 425 q 544 485 548 454 q 526 539 539 515 q 491 578 513 563 q 432 595 468 594 m 354 136 q 420 148 391 134 q 471 185 450 162 q 508 239 493 209 q 532 302 523 270 l 237 302 q 241 243 237 273 q 259 191 246 214 q 295 152 273 167 q 354 136 318 137 z "},"Ѵ":{"ha":815,"x_min":111,"x_max":943,"o":"m 387 268 l 389 205 l 415 272 l 635 766 q 680 854 655 812 q 738 930 705 897 q 813 982 771 963 q 911 1001 856 1002 l 943 1000 l 922 835 l 906 835 q 873 827 888 834 q 846 809 858 820 q 824 783 833 798 q 808 753 815 768 l 456 0 l 262 0 l 111 987 l 303 988 l 387 268 z "},"ѵ":{"ha":815,"x_min":95,"x_max":804,"o":"m 334 264 l 334 203 l 362 280 l 479 528 q 519 610 496 570 q 572 681 542 650 q 641 731 602 712 q 730 749 680 749 q 804 734 769 749 l 772 586 q 756 589 764 587 q 741 589 748 590 q 711 583 724 589 q 687 567 698 576 q 668 544 677 557 q 653 519 660 532 l 392 0 l 220 0 l 95 734 l 281 734 l 334 264 z "},"Ѹ":{"ha":815,"x_min":25,"x_max":859,"o":"m 422 324 q 409 252 418 291 q 388 175 401 214 q 356 102 375 137 q 312 41 338 67 q 252 -1 286 14 q 175 -14 218 -16 q 108 5 135 -13 q 64 51 81 22 q 38 115 47 79 q 27 188 30 151 q 27 260 25 224 q 33 323 29 296 l 88 664 q 100 733 92 695 q 119 808 107 770 q 148 882 130 846 q 189 945 165 918 q 245 988 213 972 q 319 1002 277 1004 q 389 984 360 1001 q 437 939 418 966 q 466 877 456 911 q 480 804 476 842 q 483 731 484 767 q 478 664 481 694 l 422 324 m 618 453 l 609 347 l 739 734 l 859 734 l 560 -115 q 535 -177 550 -145 q 499 -236 520 -210 q 449 -278 477 -262 q 383 -295 420 -295 q 348 -292 366 -295 q 314 -284 331 -288 l 323 -180 q 347 -183 335 -181 q 370 -184 359 -185 q 408 -171 393 -184 q 434 -138 423 -157 q 453 -98 446 -119 q 468 -60 461 -77 l 495 5 l 522 734 l 637 734 l 618 453 m 349 694 q 352 722 350 703 q 356 761 355 740 q 357 805 357 783 q 351 846 356 827 q 336 876 347 864 q 309 890 326 888 q 273 881 288 891 q 248 852 258 870 q 232 813 238 835 q 221 768 225 791 q 215 726 217 746 q 211 693 212 706 l 149 296 q 145 268 147 286 q 141 229 142 250 q 139 184 139 207 q 144 142 140 161 q 158 111 149 123 q 185 98 168 98 q 221 107 206 96 q 247 135 236 117 q 265 175 258 153 q 276 220 272 197 q 282 262 280 242 q 287 296 285 282 l 349 694 z "},"ѹ":{"ha":815,"x_min":20,"x_max":859,"o":"m 28 370 q 41 450 33 407 q 63 535 50 493 q 97 617 77 578 q 145 685 117 656 q 211 732 174 715 q 296 747 248 749 q 374 727 342 746 q 426 679 406 709 q 456 610 446 648 q 470 530 467 571 q 472 449 473 489 q 467 375 470 408 l 465 360 q 451 281 460 323 q 429 196 443 238 q 395 115 415 154 q 346 47 374 77 q 281 1 318 18 q 196 -14 243 -16 q 118 6 150 -13 q 67 55 87 24 q 37 123 47 85 q 23 202 26 161 q 21 282 20 243 q 26 355 22 322 l 28 370 m 618 452 l 609 345 l 739 734 l 859 734 l 560 -115 q 535 -178 550 -146 q 499 -236 520 -210 q 449 -279 477 -262 q 383 -295 420 -295 q 348 -292 366 -295 q 314 -284 331 -288 l 323 -179 q 347 -183 335 -180 q 370 -184 359 -185 q 408 -171 393 -184 q 434 -138 423 -157 q 453 -98 446 -119 q 468 -60 461 -77 l 495 5 l 522 734 l 637 734 l 618 452 m 159 357 q 154 320 158 344 q 148 267 151 296 q 145 208 146 238 q 151 152 145 177 q 169 111 156 127 q 204 93 181 94 q 251 106 231 92 q 283 144 270 121 q 306 198 297 168 q 319 259 314 229 q 327 316 324 290 q 331 361 329 343 l 333 374 q 338 412 334 387 q 344 465 342 436 q 347 525 347 494 q 341 581 347 555 q 323 622 336 606 q 288 640 311 639 q 241 627 260 642 q 208 588 222 612 q 186 534 195 564 q 173 473 178 503 q 165 415 168 442 q 161 371 163 388 l 159 357 z "},"Ѻ":{"ha":815,"x_min":50,"x_max":788,"o":"m 529 762 l 399 762 l 453 1069 l 583 1069 l 529 762 m 382 -92 l 252 -92 l 307 222 l 437 222 l 382 -92 m 759 422 q 733 313 750 367 q 690 210 716 258 q 629 119 664 161 q 550 47 594 77 q 453 1 506 18 q 338 -14 400 -15 q 233 6 279 -12 q 154 57 187 25 q 98 130 120 88 q 65 219 77 172 q 52 319 54 267 q 56 421 50 370 l 79 565 q 103 673 87 619 q 145 776 120 727 q 203 867 170 825 q 280 939 237 909 q 375 986 323 969 q 489 1001 427 1002 q 595 981 549 1000 q 676 931 642 963 q 734 858 711 900 q 770 769 758 817 q 785 669 783 721 q 781 565 788 616 l 759 422 m 593 567 q 598 622 596 592 q 598 682 600 652 q 590 741 597 712 q 569 791 583 769 q 532 828 555 814 q 474 844 509 842 q 408 833 437 845 q 358 800 380 821 q 321 750 337 779 q 295 691 306 722 q 278 628 285 660 q 267 566 271 595 l 245 420 q 239 368 241 397 q 237 308 237 338 q 243 248 237 277 q 261 196 248 219 q 296 158 274 173 q 353 142 318 144 q 418 153 389 141 q 470 186 448 165 q 510 235 493 207 q 539 295 527 264 q 558 359 551 327 q 570 421 566 392 l 593 567 z "},"ѻ":{"ha":815,"x_min":54,"x_max":742,"o":"m 479 518 l 366 518 l 420 829 l 533 829 l 479 518 m 370 -100 l 256 -100 l 312 224 l 426 224 l 370 -100 m 62 369 q 103 516 72 446 q 183 637 134 585 q 300 720 233 690 q 450 747 368 749 q 587 715 530 746 q 679 632 644 684 q 728 515 715 581 q 734 376 742 448 l 732 361 q 692 215 723 283 q 612 94 661 146 q 495 13 562 43 q 345 -14 427 -16 q 210 18 267 -13 q 117 99 153 49 q 67 216 81 150 q 61 355 54 282 l 62 369 m 245 355 q 242 283 241 321 q 254 213 243 245 q 290 159 265 181 q 359 136 315 137 q 438 155 405 134 q 495 209 472 176 q 530 282 517 241 q 548 361 543 322 l 549 375 q 552 422 551 397 q 550 471 553 447 q 540 517 547 495 q 520 556 533 539 q 486 584 507 573 q 437 595 466 594 q 356 576 390 597 q 300 523 323 556 q 264 449 277 490 q 246 369 251 408 l 245 355 z "},"Ѽ":{"ha":815,"x_min":0,"x_max":899,"o":"m 650 988 q 760 962 711 985 q 840 902 808 940 q 885 812 871 864 q 892 699 899 760 l 819 246 q 787 138 811 187 q 724 55 762 90 q 634 3 686 21 q 522 -14 583 -16 q 444 5 479 -13 q 387 61 409 24 q 318 5 355 26 q 232 -15 281 -16 q 130 6 175 -14 q 56 60 85 26 q 13 142 26 95 q 5 246 0 190 l 79 699 q 116 821 88 768 q 188 911 144 875 q 289 967 231 948 q 415 988 347 987 l 397 834 q 344 822 366 833 q 305 793 321 812 q 279 751 289 775 q 264 699 269 726 l 192 245 q 191 209 191 228 q 198 175 192 191 q 216 149 203 159 q 251 138 229 138 q 285 149 272 138 q 307 178 298 161 q 319 214 315 195 q 326 250 323 234 l 374 553 l 552 553 l 503 250 q 502 230 503 241 q 500 206 500 218 q 502 182 500 194 q 508 160 503 170 q 520 144 512 151 q 541 138 528 138 q 581 146 564 136 q 608 172 597 156 q 625 208 618 188 q 634 245 631 227 l 708 700 q 710 747 711 724 q 702 788 709 770 q 678 817 694 806 q 634 831 662 829 l 650 988 m 819 1163 l 812 1071 l 799 1071 q 729 1085 762 1072 q 662 1114 695 1099 q 597 1142 629 1130 q 530 1155 564 1155 q 474 1136 496 1155 q 447 1084 453 1117 l 446 1071 l 357 1072 l 359 1097 q 409 1208 365 1169 q 525 1245 452 1246 q 595 1232 562 1244 q 662 1204 629 1219 q 728 1176 694 1189 q 800 1163 762 1164 l 819 1163 m 445 912 q 482 958 465 935 q 506 1013 499 982 l 518 1076 l 617 1076 l 608 1007 q 595 964 604 985 q 571 927 585 944 q 539 895 557 909 q 503 869 522 880 l 445 912 z "},"ѽ":{"ha":815,"x_min":16,"x_max":790,"o":"m 578 748 q 674 723 633 745 q 742 665 715 701 q 779 582 768 629 q 785 483 790 535 l 747 223 q 721 130 741 174 q 669 53 701 85 q 594 2 637 20 q 498 -14 551 -16 q 415 14 449 -13 q 367 88 381 41 q 337 48 353 66 q 301 15 321 29 q 259 -7 282 1 q 210 -15 237 -15 q 122 6 159 -14 q 60 59 85 26 q 26 134 36 92 q 20 223 16 177 l 58 483 q 90 592 66 543 q 151 674 114 640 q 238 728 188 709 q 349 749 288 747 l 335 618 q 287 605 305 617 q 256 575 268 593 q 239 532 245 556 q 229 483 233 508 l 193 239 q 191 208 192 226 q 192 173 189 190 q 202 144 194 157 q 229 131 211 132 q 265 138 251 130 q 287 159 279 146 q 300 190 296 173 q 307 225 304 208 l 332 391 l 487 391 l 462 225 q 460 191 460 208 q 465 161 460 174 q 481 139 469 147 q 514 131 492 130 q 546 142 534 131 q 565 170 558 153 q 575 205 572 186 q 581 239 578 224 l 616 484 q 622 526 619 504 q 622 568 625 549 q 607 600 618 587 q 569 615 595 613 l 578 748 m 753 938 l 747 846 l 718 846 q 649 860 682 846 q 585 889 616 873 q 522 917 553 904 q 456 930 490 930 q 400 911 422 930 q 372 859 378 892 l 371 846 l 281 846 l 283 872 q 333 983 289 945 q 452 1020 378 1021 q 520 1007 488 1019 q 585 979 553 994 q 650 951 616 964 q 720 938 683 939 l 753 938 m 389 682 q 426 728 409 705 q 450 783 444 752 l 463 846 l 562 846 l 552 777 q 539 734 549 755 q 515 697 530 714 q 484 665 501 680 q 447 640 466 650 l 389 682 z "},"Ѿ":{"ha":815,"x_min":21,"x_max":889,"o":"m 314 1220 l 804 1220 l 791 1144 l 600 1144 l 585 1058 l 465 1058 l 480 1144 l 300 1144 l 314 1220 m 889 987 l 764 252 q 738 151 757 199 q 687 65 719 102 q 611 6 656 28 q 509 -14 567 -16 q 427 8 463 -13 q 372 71 391 29 q 306 9 342 33 q 221 -14 270 -15 q 126 9 165 -14 q 63 69 87 32 q 30 153 39 106 q 26 250 21 200 l 151 987 l 323 987 l 199 250 q 196 218 197 237 q 198 182 195 199 q 210 152 201 165 q 239 138 219 139 q 272 150 259 138 q 293 179 285 161 q 304 216 300 196 q 310 250 308 235 l 434 987 l 606 987 l 483 250 q 480 217 481 236 q 483 181 479 198 q 497 151 487 163 q 527 138 507 139 q 558 150 546 138 q 577 180 570 162 q 588 217 585 197 q 593 250 591 236 l 717 987 l 889 987 z "},"ѿ":{"ha":815,"x_min":18,"x_max":824,"o":"m 271 988 l 762 988 l 748 912 l 557 912 l 542 826 l 422 826 l 437 912 l 257 912 l 271 988 m 824 734 l 745 267 q 721 164 738 215 q 674 73 704 113 q 600 8 644 33 q 496 -14 556 -16 q 413 10 449 -13 q 360 77 378 33 q 330 41 346 58 q 295 12 313 24 q 254 -8 276 -1 q 206 -14 232 -15 q 111 13 149 -14 q 52 79 73 39 q 25 168 31 119 q 24 267 18 218 l 102 734 l 269 734 l 193 266 q 191 246 192 258 q 189 220 189 234 q 189 191 188 205 q 193 164 189 176 q 205 145 197 153 q 225 136 212 137 q 262 149 248 135 q 284 184 276 163 q 296 228 292 205 q 302 266 300 250 l 378 734 l 550 734 l 473 266 q 470 231 472 252 q 471 188 469 209 q 483 152 473 168 q 515 136 493 137 q 547 151 535 136 q 566 187 559 166 q 575 230 572 208 q 579 266 578 252 l 656 734 l 824 734 z "},"Ҁ":{"ha":815,"x_min":73,"x_max":781,"o":"m 457 -248 l 271 -248 l 317 -7 q 197 48 246 8 q 120 142 149 87 q 82 263 92 197 q 81 395 73 328 l 113 591 q 136 693 120 642 q 176 789 152 743 q 233 875 201 836 q 306 943 265 914 q 396 987 347 971 q 503 1002 445 1003 q 634 973 580 1000 q 721 900 688 946 q 767 793 754 854 q 777 660 781 731 l 590 660 q 591 724 592 691 q 581 784 591 757 q 549 829 571 811 q 488 848 527 846 q 430 837 456 848 q 385 806 404 826 q 350 760 365 786 q 325 704 336 733 q 308 647 315 675 q 298 593 302 618 l 267 394 q 263 313 262 356 q 278 232 264 269 q 319 169 291 194 q 396 140 347 143 l 524 139 l 457 -248 z "},"ҁ":{"ha":815,"x_min":102,"x_max":748,"o":"m 447 -249 l 262 -249 l 309 -6 q 205 45 247 9 q 141 131 164 82 q 110 238 117 180 q 109 354 102 296 l 111 375 q 150 519 119 450 q 228 639 180 587 q 342 720 277 690 q 489 747 408 749 q 601 724 552 746 q 683 664 650 702 q 732 574 715 626 q 745 462 748 523 l 572 463 q 569 511 573 488 q 553 553 564 534 q 522 583 541 571 q 475 595 503 594 q 397 577 429 597 q 344 524 366 557 q 311 452 323 492 q 294 375 298 412 l 292 355 q 287 287 288 323 q 295 218 286 250 q 326 163 304 186 q 389 138 347 140 l 514 137 l 447 -249 z "},"҂":{"ha":815,"x_min":37,"x_max":819,"o":"m 378 298 l 549 182 l 492 102 l 320 218 l 163 0 l 37 0 l 236 276 l 66 392 l 123 471 l 295 355 l 476 607 l 304 723 l 363 804 l 534 688 l 695 910 l 819 910 l 616 629 l 790 513 l 730 435 l 561 549 l 378 298 z "},"҃":{"ha":7,"x_min":-411,"x_max":106,"o":"m -278 890 l -293 804 l -411 805 l -382 966 l -23 966 l -11 1040 l 106 1039 l 80 890 l -278 890 z "},"҄":{"ha":7,"x_min":-420,"x_max":82,"o":"m -387 975 q -304 988 -344 975 q -224 1016 -264 1000 q -145 1043 -185 1031 q -64 1055 -106 1055 q -1 1045 -29 1055 q 45 1018 26 1036 q 73 973 64 1000 q 80 910 82 946 l 77 883 l -11 884 l -9 897 q -20 945 -7 928 q -64 964 -32 962 q -143 954 -104 966 q -223 926 -183 941 q -303 897 -263 911 q -386 883 -344 884 l -420 883 l -414 975 l -387 975 z "},"҅":{"ha":7,"x_min":-236,"x_max":-90,"o":"m -236 1029 l -222 1103 l -97 1099 l -115 1008 l -90 931 l -146 880 l -236 1029 z "},"҆":{"ha":7,"x_min":-273,"x_max":-81,"o":"m -224 881 l -273 947 l -220 1026 l -208 1100 l -81 1103 l -97 1013 l -224 881 z "},"҈":{"ha":7,"x_min":-939,"x_max":341,"o":"m -356 860 q -340 913 -352 889 q -308 953 -328 937 q -263 979 -289 970 q -208 987 -238 987 q -113 952 -148 986 q -80 859 -79 918 l -154 859 q -155 885 -153 873 q -163 907 -157 898 q -180 922 -169 917 q -207 928 -191 928 q -256 908 -239 928 q -281 860 -273 888 l -356 860 m 0 672 q 16 725 4 701 q 48 765 28 749 q 92 791 67 782 q 148 799 117 800 q 242 764 208 798 q 276 671 277 730 l 201 671 q 200 697 202 685 q 192 720 198 710 q 176 734 186 729 q 149 740 165 740 q 100 720 117 740 q 75 672 83 700 l 0 672 m 65 330 q 81 384 69 359 q 112 424 93 408 q 157 450 132 441 q 212 458 182 458 q 307 423 272 457 q 340 330 341 389 l 265 330 q 264 356 266 344 q 256 378 262 369 q 240 393 250 388 q 213 399 229 399 q 164 379 181 399 q 139 331 146 359 l 65 330 m -125 -22 q -109 32 -121 7 q -78 72 -97 56 q -34 98 -59 89 q 22 106 -9 106 q 116 71 81 105 q 149 -22 151 37 l 75 -22 q 74 4 75 -8 q 66 26 72 17 q 49 41 60 36 q 22 47 39 47 q -27 27 -9 47 q -52 -21 -44 7 l -125 -22 m -538 -214 q -522 -161 -534 -184 q -491 -120 -510 -137 q -447 -95 -472 -104 q -391 -87 -421 -86 q -296 -122 -331 -87 q -262 -215 -261 -156 l -337 -215 q -338 -188 -336 -201 q -346 -166 -340 -176 q -362 -151 -352 -157 q -389 -146 -373 -146 q -438 -166 -421 -146 q -463 -214 -456 -186 l -538 -214 m -766 672 q -717 766 -758 732 q -616 799 -677 800 q -522 764 -557 798 q -489 671 -488 730 l -563 671 q -564 697 -562 685 q -572 720 -566 710 q -589 734 -578 729 q -616 740 -600 740 q -665 720 -648 740 q -690 672 -682 700 l -766 672 m -939 330 q -923 384 -935 359 q -892 424 -911 408 q -847 450 -873 441 q -791 458 -822 458 q -697 423 -732 457 q -665 330 -663 389 l -739 330 q -740 356 -738 344 q -748 378 -742 369 q -764 393 -753 388 q -791 399 -775 399 q -820 393 -808 399 q -840 379 -831 388 q -855 357 -849 370 q -865 331 -861 345 l -939 330 m -891 -22 q -875 32 -887 7 q -844 72 -863 56 q -799 98 -825 89 q -743 106 -774 106 q -649 71 -684 105 q -615 -22 -614 37 l -690 -22 q -692 4 -690 -8 q -700 26 -694 17 q -716 41 -705 36 q -743 47 -726 47 q -792 27 -775 47 q -817 -21 -809 7 l -891 -22 z "},"҉":{"ha":7,"x_min":-1053,"x_max":165,"o":"m -452 -39 l -444 -51 l -559 -280 l -628 -280 l -543 -41 l -452 -39 m -432 762 l -441 774 l -326 1002 l -257 1002 l -342 764 l -432 762 m -53 429 l -46 435 l 165 349 l 154 288 l -62 334 l -53 429 m -833 293 l -840 286 l -1053 373 l -1041 434 l -825 388 l -833 293 m -164 680 l -163 692 l 62 795 l 104 742 l -102 613 l -164 680 m -727 14 l -729 1 l -953 -102 l -996 -48 l -789 81 l -727 14 m -715 583 l -726 584 l -791 814 l -747 854 l -645 648 l -715 583 m -178 109 l -165 108 l -102 -121 l -146 -162 l -248 43 l -178 109 z "},"Ҏ":{"ha":815,"x_min":27,"x_max":819,"o":"m 709 269 l 627 233 l 408 629 l 491 665 l 709 269 m 276 362 l 213 0 l 27 0 l 198 987 l 516 987 q 642 962 585 985 q 739 899 699 940 q 799 802 779 859 q 813 674 819 745 q 773 540 807 598 q 686 443 739 482 q 566 382 633 403 q 428 361 499 361 l 276 362 m 302 517 l 438 515 q 506 527 474 515 q 563 558 538 538 q 605 608 588 578 q 626 673 621 637 q 625 733 630 705 q 606 783 621 762 q 567 818 591 804 q 509 832 543 831 l 357 833 l 302 517 z "},"ҏ":{"ha":815,"x_min":-24,"x_max":730,"o":"m 644 -12 l 570 -61 l 347 252 l 419 301 l 644 -12 m 725 364 q 707 274 720 319 q 676 185 695 228 q 630 106 656 142 q 568 42 603 69 q 490 0 533 15 q 395 -14 447 -16 q 301 6 344 -13 q 225 65 258 26 l 159 -282 l -24 -282 l 152 734 l 320 734 l 309 661 q 395 726 347 703 q 500 747 442 749 q 587 730 550 746 q 651 687 625 714 q 695 623 678 659 q 720 547 711 587 q 729 464 728 507 q 726 379 730 420 l 725 364 m 542 379 q 545 447 545 410 q 535 516 545 484 q 503 571 526 549 q 439 594 481 593 q 360 576 394 595 q 299 521 326 556 l 245 213 q 289 156 260 174 q 358 137 317 138 q 437 157 404 136 q 491 211 469 178 q 524 286 513 245 q 541 365 536 327 l 542 379 z "},"Ґ":{"ha":815,"x_min":29,"x_max":886,"o":"m 816 833 l 794 833 l 794 833 l 359 833 l 215 0 l 29 0 l 201 987 l 658 987 l 701 1236 l 886 1236 l 816 833 z "},"ґ":{"ha":815,"x_min":27,"x_max":831,"o":"m 767 581 l 741 581 l 741 581 l 311 581 l 210 0 l 27 0 l 155 734 l 610 734 l 647 947 l 831 947 l 767 581 z "},"Ҕ":{"ha":815,"x_min":22,"x_max":814,"o":"m 787 833 l 352 833 l 306 566 l 409 566 q 565 535 497 564 q 676 455 632 507 q 738 333 720 404 q 747 174 757 261 q 705 13 738 85 q 620 -113 673 -60 q 493 -196 566 -166 q 330 -228 420 -226 l 347 -83 q 437 -60 399 -81 q 500 -4 475 -39 q 541 74 526 30 q 561 165 555 118 q 563 256 567 212 q 541 334 559 300 q 490 389 524 368 q 401 412 456 410 l 279 412 l 208 0 l 22 0 l 193 987 l 814 987 l 787 833 z "},"ҕ":{"ha":815,"x_min":27,"x_max":768,"o":"m 741 581 l 311 581 l 288 449 l 390 449 q 526 426 464 448 q 631 363 587 404 q 696 262 674 322 q 711 125 718 202 q 679 14 705 64 q 613 -78 653 -37 q 523 -148 573 -119 q 418 -195 472 -178 l 357 -64 q 418 -34 389 -52 q 468 8 446 -16 q 505 61 490 31 q 525 126 520 90 q 498 248 535 203 q 383 295 460 292 l 262 295 l 210 0 l 27 0 l 155 734 l 768 734 l 741 581 z "},"Ҝ":{"ha":815,"x_min":17,"x_max":937,"o":"m 937 987 l 648 534 l 783 0 l 555 0 l 460 409 l 441 410 l 411 254 l 300 254 l 328 409 l 275 409 l 203 0 l 17 0 l 189 987 l 375 987 l 304 581 l 356 581 l 387 755 l 498 755 l 464 580 l 473 580 l 701 987 l 937 987 z "},"ҝ":{"ha":815,"x_min":16,"x_max":848,"o":"m 848 734 l 585 376 l 725 0 l 498 0 l 431 275 l 397 275 l 374 158 l 271 158 l 295 276 l 250 276 l 200 0 l 16 0 l 143 734 l 328 734 l 275 452 l 319 452 l 345 583 l 448 583 l 420 452 l 449 452 l 609 734 l 848 734 z "},"Ҡ":{"ha":815,"x_min":81,"x_max":891,"o":"m 441 401 l 401 401 l 329 0 l 144 0 l 286 824 l 81 824 l 111 987 l 500 987 l 428 593 l 460 593 l 669 987 l 891 987 l 606 505 l 736 0 l 534 0 l 441 401 z "},"ҡ":{"ha":815,"x_min":45,"x_max":849,"o":"m 433 267 l 387 267 l 337 0 l 149 0 l 248 570 l 45 570 l 74 734 l 465 734 l 413 460 l 457 460 l 607 734 l 849 734 l 601 378 l 732 0 l 497 0 l 433 267 z "},"Ҥ":{"ha":815,"x_min":-30,"x_max":888,"o":"m 250 585 l 422 585 l 492 987 l 888 987 l 859 824 l 642 824 l 498 0 l 320 0 l 393 416 l 221 416 l 149 0 l -30 0 l 142 987 l 320 987 l 250 585 z "},"ҥ":{"ha":815,"x_min":-14,"x_max":842,"o":"m 252 441 l 425 441 l 476 734 l 842 734 l 813 570 l 637 570 l 538 0 l 349 0 l 397 279 l 224 279 l 175 0 l -14 0 l 113 734 l 302 734 l 252 441 z "},"Ҧ":{"ha":815,"x_min":-38,"x_max":751,"o":"m 517 564 l 527 564 q 615 544 578 562 q 679 495 653 525 q 721 425 705 465 q 744 343 736 386 q 751 255 751 300 q 746 170 751 211 q 713 22 736 94 q 647 -107 689 -50 q 544 -199 606 -163 q 397 -237 483 -235 l 414 -83 q 463 -67 443 -80 q 498 -36 484 -55 q 521 8 512 -16 q 536 59 530 33 q 545 111 542 85 q 552 159 549 136 q 557 194 553 172 q 563 242 560 216 q 565 295 565 269 q 560 345 565 322 q 543 382 555 367 q 511 401 531 397 l 497 401 l 424 0 l 247 0 l 389 819 l 281 819 l 139 0 l -38 0 l 133 987 l 591 987 l 517 564 z "},"ҧ":{"ha":815,"x_min":-16,"x_max":745,"o":"m 506 456 q 617 422 570 451 q 693 349 664 393 q 733 248 722 304 q 739 132 745 191 q 713 25 733 77 q 660 -70 693 -26 q 583 -144 627 -113 q 485 -190 538 -176 l 422 -54 q 472 -23 451 -42 q 508 21 494 -3 q 532 74 523 45 q 545 132 541 102 q 550 180 548 155 q 547 229 551 206 q 528 270 542 252 q 486 294 514 287 l 431 0 l 254 0 l 353 570 l 260 570 l 161 0 l -16 0 l 112 734 l 559 734 l 506 456 z "},"Ҩ":{"ha":815,"x_min":53,"x_max":825,"o":"m 724 -13 q 626 -1 673 -11 q 532 28 578 8 q 452 -3 493 9 q 366 -14 411 -15 q 262 4 309 -13 q 179 52 215 22 q 117 121 142 81 q 76 208 91 161 q 57 306 61 255 q 60 409 53 357 l 94 627 q 113 716 101 671 q 144 802 125 760 q 188 879 163 843 q 247 942 214 915 q 322 985 281 969 q 414 1003 363 1002 l 393 842 q 359 828 374 840 q 333 797 344 816 q 315 754 322 778 q 303 708 308 731 q 295 664 298 685 q 290 629 292 643 l 255 408 q 251 355 252 384 q 252 298 250 327 q 262 243 255 270 q 284 195 270 216 q 322 161 299 174 q 377 146 345 148 l 391 146 q 346 296 358 220 q 345 452 334 372 l 380 669 q 394 741 385 703 q 417 816 403 779 q 452 887 432 853 q 500 947 473 922 q 561 987 527 972 q 637 1001 595 1002 q 713 982 682 1000 q 766 935 745 964 q 801 869 788 906 q 819 792 814 832 q 824 714 825 753 q 820 642 824 675 l 787 436 q 744 281 774 354 q 661 145 713 209 q 699 139 680 140 q 738 137 718 138 l 724 -13 m 521 450 q 514 351 513 401 q 532 254 515 301 q 575 342 558 296 q 601 436 591 387 l 635 662 q 637 683 635 668 q 642 719 640 699 q 644 760 644 739 q 643 800 645 782 q 634 830 640 818 q 615 843 627 842 q 592 833 602 844 q 576 806 583 823 q 566 769 570 789 q 559 729 562 749 q 556 694 557 709 q 554 671 555 678 l 521 450 z "},"ҩ":{"ha":815,"x_min":29,"x_max":804,"o":"m 747 -18 q 637 -8 692 -16 q 530 19 583 0 q 441 -5 486 3 q 350 -14 397 -14 q 209 18 271 -12 q 106 99 147 48 q 47 218 66 151 q 37 362 29 286 l 45 425 q 80 551 54 492 q 149 652 106 609 q 247 721 191 696 q 374 749 304 747 l 355 591 q 306 569 326 586 q 273 529 286 553 q 251 479 259 506 q 239 427 243 452 l 231 361 q 229 284 225 321 q 249 216 233 246 q 293 167 264 186 q 366 145 321 148 q 336 252 343 198 q 336 363 328 306 l 349 464 q 375 567 356 515 q 427 659 395 618 q 505 724 459 699 q 609 747 550 749 q 680 732 649 746 q 733 694 711 718 q 771 639 756 670 q 793 574 785 608 q 803 504 802 540 q 801 435 804 469 l 787 338 q 743 209 777 267 q 656 103 710 151 q 706 98 682 99 q 756 96 731 96 l 747 -18 m 475 355 q 480 267 470 309 q 517 188 490 226 q 576 259 555 219 q 604 348 597 299 l 616 447 q 619 484 618 460 q 617 531 621 507 q 604 573 614 555 q 573 591 594 591 q 535 578 551 592 q 510 543 519 564 q 495 498 500 522 q 488 459 490 475 l 475 355 z "},"Ҵ":{"ha":815,"x_min":73,"x_max":833,"o":"m 225 824 l 73 824 l 101 987 l 583 987 l 554 824 l 409 824 l 296 168 l 506 168 l 648 987 l 833 987 l 690 167 l 791 167 l 710 -238 l 536 -238 l 577 0 l 82 0 l 225 824 z "},"ҵ":{"ha":815,"x_min":50,"x_max":760,"o":"m 174 570 l 50 570 l 78 734 l 505 734 l 475 570 l 363 570 l 292 163 l 470 163 l 570 734 l 760 734 l 660 161 l 758 161 l 680 -218 l 502 -218 l 540 0 l 75 0 l 174 570 z "},"Ҹ":{"ha":815,"x_min":129,"x_max":822,"o":"m 403 195 l 293 195 l 382 707 l 492 707 l 403 195 m 822 987 l 650 0 l 464 0 l 534 377 q 468 362 502 368 q 400 357 435 357 q 274 382 327 357 q 188 449 220 406 q 142 551 155 492 q 137 680 129 610 l 188 987 l 374 987 l 323 680 q 320 620 320 649 q 328 567 319 590 q 356 529 336 544 q 413 513 376 514 q 483 516 448 511 q 552 529 517 522 l 635 987 l 822 987 z "},"ҹ":{"ha":815,"x_min":87,"x_max":789,"o":"m 408 112 l 298 112 l 374 546 l 484 546 l 408 112 m 662 0 l 477 0 l 524 237 q 456 226 490 230 q 387 223 422 222 q 264 240 321 223 q 167 292 208 257 q 107 379 127 326 q 95 503 87 431 l 132 734 l 316 734 l 279 503 q 280 444 275 468 q 301 406 286 420 q 341 384 317 391 q 398 376 365 376 q 470 378 435 374 q 541 389 505 382 l 605 734 l 789 734 l 662 0 z "},"Һ":{"ha":815,"x_min":7,"x_max":724,"o":"m 7 0 l 178 987 l 371 987 l 302 616 q 369 628 336 623 q 437 632 403 633 q 565 606 509 631 q 656 537 620 581 q 708 434 692 494 q 716 304 724 374 l 662 0 l 469 0 l 515 304 q 517 361 518 333 q 508 411 517 389 q 478 447 498 433 q 422 463 458 461 q 351 459 387 464 q 281 447 316 454 l 200 0 l 7 0 z "},"Ҽ":{"ha":815,"x_min":26,"x_max":801,"o":"m 429 -15 q 284 25 344 -13 q 190 122 224 62 q 143 257 155 182 q 144 406 132 331 l 153 447 q 79 494 106 463 q 40 564 52 525 q 26 647 27 603 q 32 734 26 691 l 165 733 q 161 701 163 718 q 158 668 158 685 q 160 636 157 652 q 172 606 163 621 q 200 699 183 652 q 241 791 218 747 q 296 874 265 835 q 365 941 327 913 q 450 986 404 970 q 550 1000 496 1002 q 652 978 609 999 q 724 924 694 958 q 770 846 753 890 q 794 753 787 802 q 800 653 801 704 q 791 556 798 603 l 768 422 l 348 423 l 344 405 q 339 324 337 365 q 355 249 340 283 q 398 193 369 215 q 476 169 428 171 q 565 177 521 167 q 649 205 608 188 l 664 35 q 550 -5 611 7 q 429 -15 488 -16 m 528 817 q 480 807 501 818 q 443 778 459 796 q 414 735 427 759 q 393 685 402 711 q 378 635 385 660 q 368 591 372 610 l 600 591 l 606 624 q 610 662 608 641 q 612 704 612 683 q 607 745 612 725 q 593 781 603 766 q 568 807 584 797 q 528 817 552 817 z "},"ҽ":{"ha":815,"x_min":41,"x_max":771,"o":"m 435 -14 q 316 17 368 -12 q 231 92 264 45 q 182 197 197 138 q 174 319 168 256 q 105 363 132 335 q 64 428 79 392 q 45 505 50 464 q 44 587 41 546 l 165 586 q 164 552 164 569 q 166 517 163 534 q 174 485 168 500 q 192 456 180 469 q 243 566 212 513 q 315 660 273 619 q 410 725 357 701 q 530 747 464 749 q 616 731 578 746 q 681 690 653 715 q 727 631 709 665 q 756 558 746 597 q 769 477 767 519 q 766 393 771 435 l 751 302 l 367 302 q 370 250 366 276 q 386 201 374 223 q 417 165 397 179 q 469 150 437 151 q 556 166 517 148 q 631 212 595 184 l 702 106 q 583 16 652 46 q 435 -14 513 -15 m 511 585 q 462 571 483 586 q 426 534 441 557 q 401 486 411 512 q 383 438 391 460 l 577 437 l 581 457 q 583 499 584 477 q 574 541 582 522 q 552 572 567 559 q 511 585 536 585 z "},"Ӄ":{"ha":815,"x_min":37,"x_max":880,"o":"m 555 552 q 664 496 621 534 q 731 405 707 457 q 762 293 755 353 q 762 170 768 232 q 719 10 751 83 q 632 -116 686 -63 q 506 -199 578 -169 q 344 -231 433 -229 l 360 -85 q 451 -62 413 -83 q 514 -6 489 -41 q 554 72 540 28 q 574 163 568 116 q 578 247 579 204 q 563 324 576 289 q 521 383 549 359 q 442 408 492 406 l 295 410 l 224 0 l 37 0 l 208 987 l 395 987 l 325 585 l 395 585 l 642 987 l 880 987 l 555 552 z "},"ӄ":{"ha":815,"x_min":29,"x_max":817,"o":"m 532 405 q 612 357 579 387 q 665 289 645 327 q 693 205 686 250 q 696 112 701 160 q 666 4 691 54 q 604 -85 642 -45 q 518 -155 566 -125 q 418 -202 470 -184 l 357 -71 q 413 -40 387 -58 q 459 0 439 -22 q 493 51 479 23 q 511 113 506 79 q 510 175 515 146 q 489 225 505 203 q 447 259 473 246 q 387 274 422 272 l 261 275 l 213 0 l 29 0 l 157 734 l 340 734 l 292 453 l 362 453 l 574 734 l 817 734 l 532 405 z "},"Ӈ":{"ha":815,"x_min":22,"x_max":812,"o":"m 379 987 l 305 563 l 551 563 l 625 987 l 812 987 l 639 -26 q 609 -136 631 -86 q 550 -222 587 -186 q 465 -277 514 -258 q 352 -297 415 -297 q 303 -294 327 -297 q 254 -285 279 -290 l 280 -135 q 313 -142 296 -139 q 346 -144 329 -144 q 389 -134 371 -144 q 420 -107 408 -123 q 440 -69 433 -90 q 452 -26 448 -48 l 525 410 l 279 410 l 208 0 l 22 0 l 193 987 l 379 987 z "},"ӈ":{"ha":815,"x_min":23,"x_max":764,"o":"m 334 734 l 283 437 l 528 437 l 579 734 l 764 734 l 634 -27 q 604 -136 626 -87 q 547 -222 583 -186 q 462 -277 511 -258 q 350 -297 413 -297 q 300 -294 325 -297 q 252 -285 276 -290 l 279 -136 q 311 -143 294 -140 q 344 -146 327 -146 q 387 -136 369 -146 q 418 -109 406 -125 q 438 -70 431 -92 q 449 -27 446 -49 l 502 285 l 257 285 l 207 0 l 23 0 l 151 734 l 334 734 z "},"Ә":{"ha":815,"x_min":45,"x_max":792,"o":"m 463 1001 q 616 967 551 1000 q 721 878 681 934 q 777 749 762 823 q 781 592 792 675 l 751 405 q 726 300 743 352 q 681 201 708 248 q 619 114 654 154 q 539 45 583 74 q 444 0 496 16 q 334 -14 393 -16 q 228 4 274 -13 q 149 51 182 22 q 94 120 115 81 q 60 207 72 160 q 47 304 49 253 q 52 407 45 355 l 75 545 l 583 545 l 593 593 q 598 679 600 636 q 581 755 596 722 q 534 811 566 789 q 451 835 503 833 q 340 825 395 837 q 235 792 286 813 l 216 947 q 271 975 241 964 q 335 991 302 985 q 400 1000 368 998 q 463 1001 433 1002 m 349 149 q 411 158 383 148 q 461 188 439 169 q 501 232 484 206 q 531 285 518 257 q 553 343 544 313 q 569 400 562 372 l 235 399 l 227 337 q 225 268 222 302 q 242 209 229 235 q 282 166 256 182 q 349 149 309 150 z "},"Ӡ":{"ha":815,"x_min":54,"x_max":839,"o":"m 592 831 l 194 833 l 222 987 l 839 987 l 817 855 l 526 583 q 625 544 583 572 q 694 477 667 517 q 732 388 721 437 q 739 281 743 338 q 697 150 732 205 q 608 57 661 94 q 487 2 554 20 q 351 -14 420 -16 q 231 7 286 -13 q 136 64 176 27 q 75 154 96 101 q 56 275 54 208 l 241 274 q 248 220 239 244 q 272 178 256 195 q 311 150 288 160 q 366 139 335 140 q 431 147 399 138 q 488 175 463 157 q 531 221 514 194 q 553 283 549 248 q 528 413 565 368 q 407 462 491 458 l 307 463 l 330 594 l 592 831 z "},"ӡ":{"ha":815,"x_min":3,"x_max":786,"o":"m 537 581 l 140 581 l 167 734 l 786 734 l 764 602 l 477 329 q 575 290 534 317 q 643 222 617 262 q 680 133 669 182 q 686 27 691 83 q 645 -104 680 -48 q 557 -197 610 -160 q 436 -252 503 -234 q 300 -268 370 -269 q 180 -247 235 -267 q 86 -190 125 -227 q 25 -100 46 -153 q 5 20 3 -47 l 190 20 q 197 -35 189 -10 q 221 -77 205 -59 q 260 -104 237 -94 q 315 -115 284 -115 q 380 -107 348 -117 q 438 -79 412 -98 q 481 -33 464 -60 q 504 29 499 -5 q 478 160 515 114 q 357 210 441 207 l 256 210 l 278 340 l 537 581 z "},"Ӻ":{"ha":815,"x_min":34,"x_max":871,"o":"m 844 833 l 409 833 l 264 0 l 79 0 l 250 987 l 871 987 l 844 833 m 490 455 l 34 455 l 56 577 l 512 577 l 490 455 m 463 166 l 433 -26 q 403 -136 425 -86 q 346 -223 382 -186 q 261 -279 311 -259 q 149 -298 212 -299 q 52 -285 101 -298 l 78 -134 q 110 -141 94 -138 q 142 -144 126 -144 q 186 -134 168 -144 q 217 -107 204 -123 q 237 -70 229 -91 q 248 -27 244 -49 l 279 166 l 463 166 z "},"ӻ":{"ha":815,"x_min":9,"x_max":814,"o":"m 787 581 l 357 581 l 256 0 l 73 0 l 200 734 l 814 734 l 787 581 m 486 306 l 30 306 l 52 428 l 508 428 l 486 306 m 421 163 l 391 -30 q 361 -140 382 -90 q 304 -226 340 -190 q 219 -282 269 -262 q 107 -302 170 -302 q 9 -288 59 -301 l 36 -137 q 68 -144 52 -141 q 100 -147 84 -147 q 144 -137 125 -147 q 175 -111 162 -127 q 195 -73 187 -94 q 206 -31 202 -52 l 237 163 l 421 163 z "},"Ԁ":{"ha":815,"x_min":29,"x_max":827,"o":"m 580 640 l 640 987 l 827 987 l 655 0 l 345 1 q 216 25 276 3 q 115 88 157 47 q 51 186 73 128 q 36 317 29 243 q 78 456 43 396 q 169 558 114 517 q 293 620 224 599 q 437 641 362 641 l 580 640 m 496 153 l 554 488 l 429 489 q 355 477 390 489 q 292 443 319 465 q 246 390 264 421 q 222 318 228 358 q 224 255 218 284 q 248 203 231 225 q 291 169 264 182 q 353 154 317 155 l 496 153 z "},"Ԃ":{"ha":815,"x_min":41,"x_max":839,"o":"m 290 1 q 175 32 224 5 q 96 100 127 58 q 53 199 66 143 q 46 317 41 254 q 79 445 52 385 q 149 549 105 505 q 252 618 193 593 q 382 640 311 643 l 387 640 l 452 987 l 637 987 l 490 151 l 507 151 q 568 177 544 153 q 608 237 593 202 q 630 310 623 272 q 642 376 637 348 q 661 529 655 450 q 652 682 666 608 l 827 682 q 838 529 839 606 q 826 377 838 452 q 806 285 819 331 q 775 197 794 239 q 731 118 757 155 q 671 55 705 82 q 593 14 637 28 q 496 0 550 -1 l 290 1 m 303 153 l 371 490 l 369 490 q 329 485 347 492 q 296 465 311 478 q 270 433 281 451 q 251 394 259 414 q 239 354 243 374 q 232 317 234 334 q 229 268 229 295 q 235 218 229 241 q 257 176 242 194 q 300 154 272 159 l 303 153 z "},"ԃ":{"ha":815,"x_min":39,"x_max":781,"o":"m 57 401 q 70 473 62 434 q 91 551 78 512 q 123 627 104 591 q 168 691 142 663 q 228 734 194 718 q 305 748 262 749 q 352 736 331 747 q 391 709 373 726 l 456 1058 l 642 1058 l 501 224 q 498 201 500 214 q 498 176 497 189 q 503 153 498 163 q 517 138 507 142 q 544 156 533 141 q 562 191 555 170 q 574 237 570 212 q 582 286 579 262 q 587 330 585 310 q 590 361 589 349 q 602 497 600 429 q 593 633 604 566 l 768 633 q 779 497 777 565 q 771 362 781 430 q 757 282 766 325 q 733 198 748 240 q 698 117 719 156 q 648 49 677 79 q 583 2 620 20 q 498 -14 545 -15 q 448 -10 472 -14 q 401 4 423 -5 q 362 31 380 14 q 333 71 345 47 q 307 39 321 54 q 277 11 293 23 q 241 -8 260 -1 q 200 -15 222 -15 q 133 2 161 -14 q 87 44 105 18 q 58 104 68 71 q 44 173 48 137 q 40 243 39 208 q 44 306 41 277 l 57 401 m 372 581 q 357 591 365 587 q 338 596 349 595 q 304 587 319 597 q 279 559 290 576 q 262 519 269 541 q 251 475 256 497 q 244 433 247 453 q 241 401 242 414 l 229 305 q 225 282 228 298 q 222 249 223 267 q 220 212 220 231 q 224 177 220 193 q 235 151 227 161 q 257 140 243 140 q 283 145 272 138 q 307 160 295 152 q 308 192 307 176 q 312 224 309 208 l 372 581 z "},"Ԅ":{"ha":815,"x_min":88,"x_max":779,"o":"m 267 261 q 269 302 269 279 q 264 349 269 326 q 247 387 260 371 q 210 406 235 404 l 88 408 l 115 562 l 182 561 q 296 602 254 562 q 348 712 338 641 q 334 795 355 763 q 260 831 313 828 l 115 831 l 142 987 l 268 987 q 382 966 331 985 q 470 912 434 947 q 522 827 505 878 q 534 710 539 776 q 515 630 531 665 q 474 565 499 594 q 415 514 448 536 q 342 475 381 492 q 399 439 377 461 q 435 388 422 416 q 451 328 448 360 q 452 260 455 295 l 444 186 q 447 157 443 168 q 469 139 451 146 q 508 154 491 141 q 537 185 525 166 q 558 228 549 205 q 572 276 566 252 q 581 322 578 300 q 587 361 585 345 q 600 497 597 429 q 589 633 602 566 l 766 633 q 777 498 775 565 q 770 363 779 431 q 751 273 764 319 q 721 186 739 228 q 676 107 702 144 q 616 43 650 70 q 539 0 582 16 q 445 -14 496 -15 q 362 0 398 -14 q 302 40 326 14 q 267 103 278 66 q 258 187 256 140 l 267 261 z "},"ԅ":{"ha":815,"x_min":82,"x_max":764,"o":"m 511 520 q 498 463 509 488 q 468 419 486 438 q 426 384 450 399 q 375 356 402 369 q 453 299 428 338 q 475 204 478 260 l 471 171 q 476 129 470 144 q 509 106 482 113 q 543 135 530 112 q 562 185 555 157 q 572 242 569 214 q 577 287 575 271 q 583 395 585 342 q 568 502 581 449 l 741 501 q 758 395 752 448 q 757 288 764 342 q 744 217 753 254 q 720 146 734 180 q 686 82 706 112 q 640 29 666 52 q 579 -6 613 7 q 505 -19 546 -20 q 424 -12 464 -19 q 351 14 383 -4 q 300 64 319 33 q 283 146 281 96 l 290 197 q 230 267 296 262 l 82 268 l 106 412 l 191 411 q 235 416 213 412 q 275 429 257 420 q 307 455 294 439 q 323 496 319 471 q 322 534 327 518 q 305 559 317 549 q 276 574 293 569 q 239 580 259 579 l 83 581 l 106 734 l 246 733 q 345 720 296 732 q 432 684 394 709 q 492 619 470 659 q 511 520 515 578 z "},"Ԇ":{"ha":815,"x_min":153,"x_max":762,"o":"m 153 395 l 178 547 l 322 547 q 393 554 359 547 q 453 579 427 562 q 498 625 480 597 q 522 692 516 652 q 519 752 526 726 q 495 796 512 778 q 453 824 479 814 q 395 835 427 833 l 188 836 l 211 987 l 402 987 q 526 967 468 985 q 626 914 584 949 q 690 826 668 879 q 707 701 713 773 q 688 622 704 656 q 646 559 671 587 q 587 510 621 531 q 515 471 553 488 q 575 433 551 457 q 613 378 600 409 q 630 313 627 348 q 630 241 634 277 l 619 167 q 615 128 616 148 q 615 88 613 108 q 623 50 616 68 q 644 16 630 31 l 642 0 l 458 -1 q 438 37 444 16 q 431 81 432 58 q 431 126 429 103 q 436 169 433 149 l 446 240 q 446 300 450 272 q 428 348 441 328 q 391 381 414 368 q 333 395 368 393 l 153 395 m 737 18 q 714 -66 730 -25 q 675 -143 699 -106 q 623 -213 652 -180 q 561 -273 594 -245 l 465 -220 q 525 -110 498 -165 q 562 9 551 -56 l 589 168 l 762 168 l 737 18 z "},"ԇ":{"ha":815,"x_min":138,"x_max":729,"o":"m 138 265 l 161 398 l 314 397 q 361 403 337 398 q 406 418 386 408 q 441 447 427 429 q 460 491 456 465 q 457 532 464 515 q 437 560 450 549 q 404 576 423 571 q 364 583 385 582 l 161 583 l 183 734 l 371 733 q 474 719 422 732 q 565 678 525 705 q 627 608 604 651 q 646 505 650 566 q 633 447 644 473 q 603 400 621 421 q 561 363 585 380 q 510 332 537 346 q 553 301 536 319 q 579 260 570 283 q 592 212 589 238 q 592 159 595 186 l 585 106 q 583 57 581 81 q 599 11 585 33 l 598 0 l 412 -1 q 402 25 406 12 q 399 53 399 39 q 400 80 399 66 q 404 108 401 94 l 411 160 q 392 236 416 211 q 317 264 368 262 l 138 265 m 704 9 q 681 -75 696 -35 q 642 -153 665 -116 q 590 -222 619 -190 q 528 -282 561 -255 l 431 -229 q 491 -120 465 -174 q 529 -1 517 -65 l 556 158 l 729 158 l 704 9 z "},"Ԉ":{"ha":815,"x_min":-56,"x_max":800,"o":"m 441 831 l 374 831 l 321 521 q 303 411 313 470 q 276 294 292 352 q 234 182 259 235 q 173 87 210 128 q 87 23 137 47 q -30 0 37 -1 l -56 0 l -38 154 l -26 153 q 33 174 8 153 q 74 228 57 195 q 102 304 92 262 q 120 387 113 346 q 131 464 127 428 q 137 521 134 499 l 216 987 l 653 987 l 520 197 q 519 180 519 189 q 519 164 518 172 q 524 150 520 156 q 537 139 528 144 q 566 156 554 142 q 587 191 578 170 q 602 236 596 212 q 611 284 607 260 q 616 328 614 308 q 621 361 618 349 q 635 497 630 429 q 635 633 641 565 l 792 633 q 782 362 800 496 q 768 283 777 326 q 744 199 759 241 q 709 118 730 157 q 660 50 688 79 q 594 2 631 20 q 511 -14 557 -15 q 428 3 463 -14 q 371 47 393 19 q 340 114 349 75 q 334 199 331 153 l 441 831 z "},"ԉ":{"ha":815,"x_min":-40,"x_max":784,"o":"m 382 579 l 315 578 l 291 422 q 275 330 284 378 q 253 234 267 281 q 218 144 239 187 q 168 69 198 102 q 95 18 137 37 q -2 0 54 -1 l -40 0 l -18 163 l -5 162 q 37 178 20 163 q 66 216 54 193 q 85 269 78 239 q 97 327 92 298 q 103 380 101 355 q 108 422 106 406 l 159 734 l 589 734 l 503 210 q 501 191 503 201 q 500 170 500 180 q 505 151 501 159 q 518 137 509 142 q 545 153 534 140 q 565 183 557 165 q 578 222 572 201 q 586 264 583 243 q 591 303 589 285 q 595 334 593 321 q 605 463 604 398 q 593 591 606 527 l 768 590 q 781 463 778 526 q 775 335 784 399 q 760 257 770 298 q 735 177 751 216 q 699 103 720 138 q 648 41 677 68 q 583 0 619 15 q 500 -14 546 -15 q 414 4 450 -14 q 355 51 378 21 q 324 122 333 81 q 318 211 315 163 l 382 579 z "},"Ԋ":{"ha":815,"x_min":-24,"x_max":788,"o":"m 639 987 l 505 191 q 504 163 504 178 q 514 140 503 149 q 543 157 530 142 q 563 191 555 171 q 577 236 572 212 q 587 285 583 261 q 592 329 590 309 q 596 361 594 349 q 608 497 606 429 q 598 633 610 566 l 775 633 q 786 497 784 565 q 779 362 788 430 q 764 281 773 324 q 739 196 754 238 q 701 115 723 154 q 649 47 679 77 q 581 1 619 18 q 495 -14 543 -16 q 409 7 444 -13 q 354 60 374 27 q 327 136 334 94 q 323 226 320 179 l 352 410 l 234 410 l 163 0 l -24 0 l 148 987 l 334 987 l 260 563 l 378 563 l 452 987 l 639 987 z "},"ԋ":{"ha":815,"x_min":-26,"x_max":762,"o":"m 304 291 l 210 291 l 159 0 l -26 0 l 101 734 l 286 734 l 235 444 l 330 444 l 380 734 l 564 734 l 477 210 q 476 187 476 198 q 479 166 476 176 q 488 149 481 157 q 506 138 494 142 q 529 155 519 142 q 546 185 539 168 q 557 225 553 203 q 564 267 561 246 q 568 304 566 287 q 570 333 569 322 q 583 461 578 397 q 582 590 587 526 l 756 590 q 760 462 762 526 q 750 334 759 398 q 736 259 745 298 q 713 180 727 219 q 679 105 699 141 q 631 43 659 70 q 568 1 604 16 q 488 -14 533 -15 q 399 3 437 -14 q 336 48 361 19 q 300 119 311 78 q 293 211 289 161 l 304 291 z "},"Ԍ":{"ha":815,"x_min":56,"x_max":770,"o":"m 373 -14 q 225 24 288 -12 q 124 120 163 61 q 71 253 85 178 q 66 405 56 327 l 94 583 q 142 742 106 666 q 233 877 177 819 q 362 969 288 935 q 526 1002 436 1003 q 648 987 589 1001 q 762 940 707 973 l 704 800 q 613 835 661 823 q 516 848 566 847 q 422 824 463 848 q 353 762 382 800 q 306 676 323 724 q 281 584 288 629 l 253 404 q 249 350 250 379 q 252 292 248 321 q 265 236 256 263 q 290 189 274 210 q 330 154 306 168 q 387 140 353 141 q 457 150 425 139 q 515 182 490 161 q 556 233 540 203 q 580 300 573 263 q 590 417 590 358 q 580 534 589 477 l 759 534 q 767 417 764 475 q 763 301 770 359 q 719 166 753 226 q 632 66 684 106 q 514 4 581 25 q 373 -14 448 -16 z "},"ԍ":{"ha":815,"x_min":73,"x_max":741,"o":"m 421 138 q 469 143 446 138 q 510 160 492 149 q 540 191 528 172 q 557 237 552 210 q 563 301 562 269 q 557 366 563 333 l 732 365 q 738 301 736 333 q 737 238 741 270 q 701 125 731 173 q 625 46 671 77 q 523 -1 580 14 q 406 -14 466 -16 q 263 15 326 -13 q 156 91 199 43 q 93 206 113 140 q 80 351 73 272 l 83 380 q 128 529 92 461 q 220 646 164 597 q 347 722 275 694 q 500 748 419 749 q 611 738 556 747 q 714 701 665 728 l 667 553 q 582 585 627 576 q 490 595 536 595 q 405 577 444 595 q 338 531 367 560 q 291 462 309 501 q 266 380 272 423 l 262 351 q 265 272 258 311 q 291 204 272 234 q 343 157 311 175 q 421 138 375 139 z "},"Ԏ":{"ha":815,"x_min":118,"x_max":784,"o":"m 328 831 l 118 831 l 145 987 l 760 987 l 732 831 l 513 831 l 416 252 q 415 218 415 237 q 419 182 414 199 q 435 153 424 165 q 466 140 446 141 q 507 150 489 138 q 538 181 525 161 q 561 225 551 200 q 576 275 570 250 q 586 323 582 300 q 591 361 589 346 q 604 497 602 429 q 594 633 606 566 l 770 633 q 782 497 780 565 q 774 362 784 430 q 756 273 768 318 q 725 185 744 228 q 680 106 706 143 q 619 43 653 70 q 542 0 585 16 q 448 -14 499 -15 q 345 7 388 -14 q 274 63 301 27 q 236 147 247 98 q 230 253 225 195 l 328 831 z "},"ԏ":{"ha":815,"x_min":73,"x_max":748,"o":"m 259 581 l 73 581 l 100 734 l 698 734 l 671 581 l 444 581 l 389 251 q 388 215 387 234 q 395 178 389 195 q 414 150 401 161 q 449 138 427 138 q 498 153 477 137 q 531 192 518 168 q 552 242 545 215 q 563 292 559 269 q 549 488 578 391 l 722 487 q 741 390 733 439 q 742 293 748 342 q 710 174 734 230 q 646 75 686 117 q 553 9 607 33 q 431 -14 498 -16 q 327 6 371 -14 q 254 61 282 26 q 213 144 225 96 q 205 252 201 193 l 259 581 z "},"Ԑ":{"ha":815,"x_min":16,"x_max":787,"o":"m 21 271 q 41 356 24 318 q 84 423 57 393 q 146 474 111 452 q 224 511 182 496 q 140 597 170 545 q 114 714 110 649 q 154 846 119 791 q 242 936 189 901 q 364 987 296 971 q 500 1002 431 1003 q 615 980 562 1000 q 706 924 668 960 q 766 837 745 888 q 785 722 787 785 l 600 722 q 593 771 600 749 q 572 810 587 794 q 537 836 558 827 q 488 846 515 846 q 422 839 455 847 q 363 815 390 831 q 319 772 337 798 q 296 711 300 746 q 298 654 292 678 q 321 613 305 629 q 362 588 338 597 q 418 578 387 579 l 558 578 l 532 429 l 411 429 q 337 420 372 429 q 275 393 302 412 q 231 345 248 374 q 208 273 213 315 q 216 213 204 239 q 250 171 228 188 q 301 146 271 155 q 361 138 330 138 q 420 146 392 137 q 471 174 448 156 q 508 217 493 192 q 528 273 523 242 l 714 275 q 675 148 708 203 q 593 57 643 94 q 479 2 543 20 q 348 -14 416 -16 q 222 4 283 -13 q 114 57 161 22 q 42 145 68 92 q 21 271 16 199 z "}," ":{"ha":815,"x_min":0,"x_max":0,"o":""}," ":{"ha":815,"x_min":0,"x_max":0,"o":""}," ":{"ha":815,"x_min":0,"x_max":0,"o":""}," ":{"ha":815,"x_min":0,"x_max":0,"o":""}," ":{"ha":815,"x_min":0,"x_max":0,"o":""}," ":{"ha":815,"x_min":0,"x_max":0,"o":""}," ":{"ha":815,"x_min":0,"x_max":0,"o":""}," ":{"ha":815,"x_min":0,"x_max":0,"o":""}," ":{"ha":815,"x_min":0,"x_max":0,"o":""}," ":{"ha":815,"x_min":0,"x_max":0,"o":""}," ":{"ha":815,"x_min":0,"x_max":0,"o":""},"​":{"ha":815,"x_min":0,"x_max":0,"o":""},"–":{"ha":815,"x_min":39,"x_max":812,"o":"m 776 408 l 39 408 l 75 562 l 812 562 l 776 408 z "},"—":{"ha":815,"x_min":37,"x_max":809,"o":"m 774 408 l 37 408 l 72 562 l 809 562 l 774 408 z "},"‗":{"ha":815,"x_min":-23,"x_max":635,"o":"m 578 -324 l -23 -324 l 3 -177 l 604 -177 l 578 -324 m 608 -147 l 7 -147 l 33 0 l 635 0 l 608 -147 z "},"‘":{"ha":815,"x_min":371,"x_max":632,"o":"m 391 805 q 411 881 397 844 q 446 952 425 918 q 493 1016 467 986 q 549 1071 519 1046 l 632 1016 q 574 916 599 967 q 539 806 550 865 l 519 686 l 371 686 l 391 805 z "},"’":{"ha":815,"x_min":363,"x_max":624,"o":"m 605 941 q 585 865 599 902 q 550 794 570 828 q 503 730 529 760 q 446 675 477 701 l 363 730 q 421 830 397 779 q 456 941 446 881 l 476 1058 l 624 1058 l 605 941 z "},"‚":{"ha":815,"x_min":207,"x_max":475,"o":"m 452 45 q 396 -101 439 -33 q 294 -220 353 -170 l 207 -165 q 263 -66 240 -117 q 296 43 286 -15 l 321 182 l 475 182 l 452 45 z "},"‛":{"ha":815,"x_min":183,"x_max":444,"o":"m 202 941 q 222 865 208 902 q 257 794 237 828 q 304 730 278 760 q 361 675 330 701 l 444 730 q 386 830 410 779 q 351 941 361 881 l 331 1058 l 183 1058 l 202 941 z "},"“":{"ha":815,"x_min":262,"x_max":748,"o":"m 282 805 q 302 881 288 844 q 337 952 317 918 q 384 1016 358 986 q 441 1071 410 1046 l 524 1016 q 466 916 490 967 q 431 806 441 865 l 410 686 l 262 686 l 282 805 m 507 805 q 527 881 513 844 q 562 952 541 918 q 609 1016 583 986 q 665 1071 635 1046 l 748 1016 q 690 916 715 967 q 655 806 666 865 l 635 686 l 487 686 l 507 805 z "},"”":{"ha":815,"x_min":254,"x_max":751,"o":"m 496 941 q 475 865 490 902 q 440 794 461 828 q 394 730 420 760 q 337 675 368 701 l 254 730 q 312 830 288 779 q 347 941 336 881 l 367 1058 l 515 1058 l 496 941 m 732 941 q 711 865 726 902 q 676 794 697 828 q 630 730 656 760 q 573 675 604 701 l 490 730 q 548 830 524 779 q 583 941 572 881 l 603 1058 l 751 1058 l 732 941 z "},"„":{"ha":815,"x_min":113,"x_max":593,"o":"m 359 44 q 305 -103 347 -34 q 203 -222 264 -172 l 113 -167 q 169 -67 146 -118 q 202 42 192 -16 l 222 159 l 376 159 l 359 44 m 574 44 q 554 -32 568 5 q 519 -103 540 -69 q 472 -167 498 -137 q 415 -222 446 -197 l 325 -167 q 382 -67 357 -118 q 418 42 408 -17 l 439 159 l 593 159 l 574 44 z "},"†":{"ha":815,"x_min":96,"x_max":773,"o":"m 748 576 l 513 576 l 422 0 l 238 0 l 328 576 l 96 576 l 121 734 l 353 734 l 393 987 l 577 987 l 537 734 l 773 734 l 748 576 z "},"‡":{"ha":815,"x_min":20,"x_max":787,"o":"m 672 0 l 437 0 l 392 -282 l 208 -282 l 252 0 l 20 0 l 44 151 l 275 151 l 342 581 l 111 581 l 135 734 l 366 734 l 406 987 l 591 987 l 551 734 l 787 734 l 762 581 l 527 581 l 460 151 l 696 151 l 672 0 z "},"•":{"ha":815,"x_min":284,"x_max":595,"o":"m 286 529 q 300 593 288 564 q 334 643 313 622 q 386 676 356 664 q 450 688 415 688 q 511 675 484 687 q 557 643 538 663 q 585 594 576 622 q 594 532 595 566 l 592 494 q 576 431 589 459 q 542 382 564 403 q 491 351 520 362 q 427 340 462 340 q 368 352 395 340 q 322 382 341 363 q 294 429 304 402 q 284 488 284 456 l 286 529 z "},"‥":{"ha":815,"x_min":106,"x_max":668,"o":"m 106 104 q 116 157 106 133 q 143 198 126 180 q 185 225 161 215 q 237 235 209 235 q 286 226 263 235 q 325 201 309 217 q 351 163 341 185 q 360 114 360 140 q 350 62 360 86 q 322 22 340 39 q 281 -5 305 5 q 230 -14 257 -14 q 181 -6 203 -14 q 142 18 159 3 q 116 56 125 34 q 106 104 106 78 m 414 104 q 424 157 414 133 q 451 198 434 180 q 493 225 469 215 q 545 235 517 235 q 594 226 571 235 q 633 201 616 217 q 659 163 649 185 q 668 114 668 140 q 658 62 668 86 q 630 22 648 39 q 589 -5 613 5 q 538 -14 565 -14 q 489 -6 511 -14 q 450 18 467 3 q 424 56 433 34 q 414 104 414 78 z "},"…":{"ha":815,"x_min":15,"x_max":791,"o":"m 15 104 q 25 156 15 132 q 52 197 35 180 q 93 224 69 214 q 145 234 117 234 q 194 225 172 234 q 233 200 217 216 q 259 162 250 184 q 269 113 269 140 q 258 62 269 85 q 231 21 248 38 q 190 -5 214 4 q 138 -15 165 -15 q 90 -6 112 -15 q 51 18 67 2 q 24 55 34 33 q 15 104 15 77 m 276 104 q 286 156 276 132 q 313 197 296 180 q 354 224 330 214 q 406 234 378 234 q 455 225 433 234 q 494 200 478 216 q 520 162 511 184 q 530 113 530 140 q 519 62 530 85 q 492 21 509 38 q 451 -5 475 4 q 399 -15 427 -15 q 351 -6 373 -15 q 312 18 328 2 q 286 55 295 33 q 276 104 276 77 m 537 104 q 547 156 537 132 q 574 197 557 180 q 615 224 591 214 q 667 234 640 234 q 716 225 694 234 q 755 200 739 216 q 781 162 772 184 q 791 113 791 140 q 781 62 791 85 q 753 21 770 38 q 712 -5 736 4 q 661 -15 688 -15 q 612 -6 634 -15 q 573 18 589 2 q 547 55 556 33 q 537 104 537 77 z "},"‰":{"ha":815,"x_min":65,"x_max":758,"o":"m 173 197 q 192 273 176 237 q 232 336 207 309 q 293 378 258 363 q 371 393 328 394 q 433 381 404 393 q 485 346 463 370 q 542 379 512 368 q 607 391 572 391 q 676 374 647 390 q 723 333 705 359 q 749 274 741 307 q 755 203 758 240 l 754 177 q 735 101 750 136 q 694 40 720 66 q 635 -1 669 14 q 557 -16 600 -16 q 495 -4 524 -15 q 443 31 466 7 q 386 -2 416 9 q 322 -13 357 -14 q 254 3 283 -12 q 205 43 224 18 q 178 101 186 68 q 171 170 169 134 l 173 197 m 118 806 q 135 880 121 844 q 173 943 149 916 q 229 986 196 970 q 304 1002 262 1002 q 375 985 345 1001 q 423 944 404 970 q 451 884 442 918 q 458 812 460 850 l 456 787 q 437 712 452 747 q 397 651 422 677 q 337 610 372 625 q 262 596 303 595 q 195 612 223 597 q 148 654 166 628 q 122 712 130 680 q 116 781 114 745 l 118 806 m 121 321 l 65 389 l 672 792 l 728 724 l 121 321 m 532 171 q 532 146 531 160 q 537 121 533 133 q 550 102 542 110 q 574 94 559 94 q 602 101 591 94 q 619 121 612 109 q 628 148 625 133 q 632 176 631 162 l 634 201 q 634 226 635 212 q 629 252 633 240 q 616 272 625 264 q 593 280 608 280 q 566 272 576 280 q 549 252 555 264 q 538 225 542 239 q 534 197 535 210 l 532 171 m 296 171 q 297 146 296 160 q 302 121 298 133 q 315 102 307 110 q 338 94 323 94 q 366 101 355 94 q 383 121 376 109 q 392 148 389 133 q 397 176 395 162 l 399 201 q 399 226 399 212 q 394 252 398 240 q 381 272 390 264 q 357 280 372 280 q 330 272 341 280 q 313 252 319 264 q 302 225 306 239 q 298 197 299 210 l 296 171 m 233 781 q 233 756 232 770 q 237 731 233 743 q 250 712 241 720 q 275 704 259 704 q 301 712 290 704 q 318 732 312 720 q 329 759 325 745 q 334 786 332 774 l 336 810 q 336 835 336 821 q 331 861 335 849 q 318 882 327 873 q 294 890 309 890 q 267 882 278 890 q 249 862 256 874 q 239 834 243 849 q 235 806 236 819 l 233 781 z "},"‹":{"ha":815,"x_min":248,"x_max":607,"o":"m 393 349 l 503 87 l 393 87 l 248 351 l 250 364 l 476 629 l 607 629 l 393 349 z "},"›":{"ha":815,"x_min":193,"x_max":551,"o":"m 406 628 l 551 365 l 550 351 l 323 86 l 193 86 l 405 366 l 296 628 l 406 628 z "},"⁄":{"ha":815,"x_min":147,"x_max":675,"o":"m 233 155 l 147 205 l 589 834 l 675 785 l 233 155 z "},"⁴":{"ha":815,"x_min":196,"x_max":724,"o":"m 627 594 l 724 594 l 708 504 l 611 504 l 589 380 l 473 380 l 495 504 l 196 504 l 206 579 l 572 1002 l 697 1002 l 627 594 m 342 594 l 510 594 l 560 853 l 544 827 l 342 594 z "},"ⁿ":{"ha":815,"x_min":202,"x_max":711,"o":"m 403 986 l 404 903 q 470 969 433 943 q 559 994 508 995 q 635 976 605 994 q 683 930 665 959 q 705 863 700 901 q 707 786 711 826 l 651 443 l 513 443 l 562 745 q 565 786 564 764 q 561 827 566 808 q 542 859 555 846 q 503 872 529 871 q 447 858 471 873 q 406 817 424 842 l 341 443 l 202 443 l 296 985 l 403 986 z "},"₤":{"ha":815,"x_min":3,"x_max":820,"o":"m 541 318 l 357 319 l 353 292 q 329 216 346 250 q 281 151 311 182 l 725 153 l 698 0 l 3 0 l 30 153 l 81 152 q 116 173 102 159 q 139 205 130 187 q 153 242 148 222 q 163 283 159 262 l 170 319 l 57 318 l 75 422 l 179 422 l 191 499 l 89 499 l 106 603 l 205 603 l 218 705 q 255 827 227 772 q 329 921 284 882 q 432 981 374 960 q 559 1001 490 1002 q 672 979 623 1000 q 754 922 721 959 q 804 834 787 886 q 817 721 820 783 l 639 722 q 635 771 640 748 q 619 810 631 793 q 588 837 608 827 q 539 848 568 847 q 485 837 509 848 q 445 805 462 825 q 417 759 428 785 q 403 706 407 733 l 391 603 l 590 603 l 572 499 l 377 499 l 366 422 l 559 422 l 541 318 z "},"₧":{"ha":815,"x_min":10,"x_max":836,"o":"m 819 632 l 704 632 l 631 201 q 629 173 630 189 q 631 140 628 156 q 642 114 633 125 q 669 102 650 102 q 693 105 681 102 q 717 111 705 107 l 728 14 q 683 -8 709 -2 q 633 -14 657 -14 q 561 7 589 -13 q 519 59 534 28 q 501 129 505 91 q 501 203 498 168 l 572 632 l 524 632 q 486 536 509 582 q 431 456 464 490 q 355 401 399 421 q 253 380 311 380 l 213 382 l 142 0 l 10 0 l 181 987 l 339 986 q 428 962 391 984 q 489 905 465 940 q 522 825 512 869 q 528 733 531 780 l 589 734 l 620 910 l 753 910 l 722 734 l 836 734 l 819 632 m 223 488 l 258 487 q 319 509 294 488 q 360 559 344 529 q 384 623 376 589 q 396 688 393 658 q 399 719 397 701 q 401 759 401 738 q 398 800 401 779 q 389 837 396 820 q 370 865 382 854 q 338 878 357 876 l 299 880 l 223 488 z "},"€":{"ha":815,"x_min":70,"x_max":829,"o":"m 593 353 l 369 352 q 370 268 364 307 q 395 202 376 230 q 447 157 414 174 q 529 140 480 141 q 597 145 564 140 q 663 161 630 151 l 670 5 q 505 -13 589 -14 q 361 15 425 -12 q 256 91 298 43 q 195 207 214 140 q 188 353 177 273 l 70 353 l 87 453 l 199 453 l 214 538 l 102 538 l 119 638 l 227 638 q 287 788 248 720 q 381 903 326 855 q 509 977 437 951 q 670 1002 581 1002 q 750 995 711 1001 q 829 980 789 989 l 791 825 q 730 842 761 836 q 668 848 700 848 q 575 834 616 849 q 503 791 534 819 q 450 725 471 764 q 414 638 428 686 l 644 638 l 626 538 l 401 538 l 385 453 l 612 453 l 593 353 z "},"℅":{"ha":815,"x_min":93,"x_max":750,"o":"m 446 723 q 429 650 443 683 q 390 592 414 616 q 331 554 365 568 q 256 543 298 541 q 182 561 214 543 q 131 606 151 578 q 102 670 111 634 q 96 745 93 707 l 100 798 q 119 877 104 839 q 160 942 135 914 q 221 987 186 970 q 301 1002 256 1003 q 373 987 341 1001 q 426 949 404 973 q 458 891 447 924 q 469 820 469 859 l 346 821 q 345 846 346 833 q 338 869 343 859 q 323 886 333 880 q 299 893 314 893 q 268 884 281 893 q 246 860 255 874 q 232 829 237 846 q 225 798 227 812 l 218 745 q 217 718 217 733 q 221 687 217 702 q 233 663 224 673 q 258 652 242 652 q 284 659 273 652 q 303 674 295 665 q 316 696 311 684 q 323 721 321 709 l 446 723 m 386 241 q 405 320 390 283 q 445 386 420 358 q 506 431 471 414 q 587 446 542 447 q 661 428 629 445 q 712 383 692 411 q 741 318 732 355 q 747 242 750 281 l 743 190 q 724 111 739 149 q 683 46 709 74 q 623 1 658 18 q 543 -14 587 -15 q 468 4 500 -14 q 416 49 437 21 q 387 114 396 77 q 381 190 378 151 l 386 241 m 505 189 q 505 161 505 177 q 510 131 506 146 q 523 106 514 117 q 548 95 532 96 q 580 103 567 94 q 601 127 593 113 q 613 158 609 141 q 619 190 617 175 l 624 243 q 625 271 625 255 q 621 301 625 287 q 607 326 616 316 q 581 337 598 336 q 551 328 564 337 q 530 304 538 318 q 517 273 522 290 q 510 242 512 256 l 505 189 m 254 155 l 169 205 l 610 834 l 696 785 l 254 155 z "},"ℓ":{"ha":815,"x_min":90,"x_max":758,"o":"m 510 -15 q 383 8 443 -12 q 281 66 323 28 q 220 160 239 104 q 213 291 200 216 l 215 302 q 153 295 184 297 q 90 291 121 292 l 103 418 q 228 427 165 418 l 270 664 q 300 780 278 724 q 358 878 322 836 q 446 944 394 920 q 564 966 497 968 q 650 946 613 965 q 712 897 688 928 q 747 824 736 865 q 754 736 758 783 l 751 707 q 730 627 747 665 q 688 555 713 589 q 629 492 662 521 q 560 438 596 463 q 487 393 524 413 q 415 357 450 373 l 410 326 q 407 259 404 288 q 423 209 410 229 q 462 176 437 188 q 526 162 487 164 l 510 -15 m 431 494 q 485 536 459 513 q 530 584 510 558 q 564 641 550 610 q 583 706 578 671 l 587 736 q 588 758 588 746 q 584 782 587 770 q 573 801 581 793 q 552 810 566 808 q 514 799 530 811 q 489 769 498 787 q 474 730 479 751 q 467 692 469 709 l 431 494 z "},"№":{"ha":815,"x_min":7,"x_max":831,"o":"m 422 0 l 297 0 l 237 594 l 134 0 l 7 0 l 178 987 l 304 987 l 364 396 l 467 987 l 594 987 l 422 0 m 621 873 q 631 920 623 897 q 654 960 640 942 q 688 988 668 977 q 735 999 709 999 q 781 988 762 999 q 811 960 800 977 q 827 919 823 942 q 830 873 831 897 l 814 728 q 803 682 812 705 q 781 642 795 659 q 746 614 766 625 q 699 604 726 604 q 654 614 673 604 q 625 643 636 625 q 608 683 613 661 q 605 728 604 705 l 621 873 m 677 734 q 676 715 677 726 q 676 695 675 705 q 684 678 678 685 q 701 671 689 671 q 721 677 713 671 q 733 693 728 684 q 739 714 737 703 q 743 734 741 725 l 758 867 q 760 886 759 876 q 759 907 761 897 q 752 924 758 917 q 734 931 747 931 q 715 924 722 931 q 703 908 707 918 q 696 887 699 899 q 693 867 694 876 l 677 734 m 768 498 l 567 498 l 578 564 l 780 564 l 768 498 z "},"™":{"ha":815,"x_min":163,"x_max":849,"o":"m 743 850 l 631 621 l 583 620 l 550 861 l 507 620 l 424 620 l 488 987 l 589 987 l 623 739 l 751 987 l 849 987 l 785 620 l 701 620 l 743 850 m 431 916 l 344 916 l 293 622 l 201 622 l 252 916 l 163 916 l 176 987 l 444 987 l 431 916 z "},"℮":{"ha":815,"x_min":83,"x_max":768,"o":"m 633 62 q 513 6 577 26 q 381 -13 448 -14 q 250 22 307 -11 q 155 107 193 55 q 100 227 117 160 q 90 361 83 293 q 112 457 95 410 q 157 549 130 505 q 220 629 184 592 q 299 693 256 666 q 390 734 342 720 q 489 747 438 749 q 617 713 563 745 q 705 629 671 681 q 754 513 739 578 q 764 382 768 448 l 761 349 l 254 349 l 212 125 q 284 72 243 90 q 372 52 326 54 q 442 57 408 51 q 509 74 476 63 q 572 101 541 85 q 634 134 604 116 l 633 62 m 497 684 q 442 678 469 684 q 391 660 416 671 q 343 634 366 649 q 299 602 320 618 l 264 413 l 618 413 l 654 608 q 584 663 624 644 q 497 684 544 683 z "},"⅛":{"ha":815,"x_min":140,"x_max":810,"o":"m 319 505 l 200 505 l 258 840 l 141 814 l 158 914 l 383 984 l 398 984 l 319 505 m 258 155 l 172 205 l 614 834 l 700 785 l 258 155 m 808 356 q 800 319 806 336 q 782 289 793 303 q 756 264 771 275 q 725 244 742 253 q 770 199 754 226 q 784 137 785 172 q 765 70 782 98 q 720 25 748 43 q 659 0 693 8 q 590 -7 624 -8 q 528 1 559 -7 q 472 24 497 8 q 433 66 448 40 q 420 128 418 91 q 428 169 421 151 q 449 202 436 187 q 479 229 462 217 q 515 251 496 241 q 478 292 491 267 q 465 346 464 316 q 482 410 466 383 q 524 455 498 437 q 582 481 549 472 q 647 489 614 489 q 707 481 678 488 q 760 457 737 473 q 796 416 782 441 q 808 356 809 391 m 666 148 q 664 169 668 161 q 653 184 660 178 q 635 193 645 190 q 613 196 624 196 q 588 193 601 196 q 566 182 576 189 q 548 165 555 175 q 538 142 541 155 q 540 119 537 129 q 551 103 544 110 q 569 94 558 97 q 591 91 579 91 q 616 95 604 91 q 639 106 629 98 q 657 124 649 113 q 666 148 664 134 m 689 346 q 680 379 693 367 q 647 390 668 390 q 606 377 624 390 q 584 340 588 363 q 593 307 581 319 q 626 295 605 295 q 667 309 649 295 q 689 346 685 323 z "},"⅜":{"ha":815,"x_min":66,"x_max":808,"o":"m 219 792 l 269 792 q 297 796 283 793 q 323 807 311 800 q 342 825 334 814 q 352 851 350 836 q 351 872 354 863 q 340 886 348 880 q 323 894 333 891 q 303 897 313 897 q 263 887 280 897 q 236 857 245 878 l 113 857 q 132 920 116 893 q 175 963 149 946 q 233 987 200 980 q 299 995 265 995 q 361 987 329 995 q 418 964 393 980 q 459 923 443 948 q 473 861 475 898 q 463 822 471 839 q 442 791 455 804 q 412 768 429 778 q 376 749 395 757 q 429 710 412 737 q 446 645 447 683 q 425 577 445 605 q 376 531 406 549 q 310 506 346 514 q 240 499 274 499 q 173 509 204 500 q 118 537 142 519 q 81 584 95 556 q 67 650 67 612 l 184 649 q 203 610 186 622 q 248 598 221 598 q 275 602 262 598 q 300 612 289 605 q 319 630 312 619 q 329 656 327 641 q 328 682 332 672 q 315 698 324 692 q 294 706 306 704 q 269 709 282 709 l 213 709 l 219 792 m 254 149 l 169 199 l 610 828 l 696 779 l 254 149 m 806 356 q 798 319 805 336 q 781 289 792 303 q 755 264 770 275 q 724 244 740 253 q 768 199 753 226 q 782 137 784 172 q 764 70 781 98 q 719 25 746 43 q 657 0 691 8 q 589 -7 623 -8 q 527 1 558 -7 q 471 24 495 8 q 432 66 447 40 q 419 128 417 91 q 427 169 419 151 q 448 202 435 187 q 478 229 461 217 q 514 251 495 241 q 476 292 489 267 q 464 346 463 316 q 481 410 464 383 q 522 455 497 437 q 580 481 548 472 q 646 489 613 489 q 706 481 676 488 q 758 457 735 473 q 795 416 781 441 q 806 356 808 391 m 665 148 q 663 169 666 161 q 651 184 659 178 q 633 193 644 190 q 612 196 623 196 q 587 193 599 196 q 564 182 575 189 q 547 165 554 175 q 537 142 539 155 q 539 119 535 129 q 550 103 542 110 q 567 94 557 97 q 589 91 578 91 q 615 95 602 91 q 638 106 628 98 q 655 124 648 113 q 665 148 663 134 m 688 346 q 679 379 691 367 q 646 390 666 390 q 604 377 622 390 q 583 340 586 363 q 592 307 580 319 q 625 295 604 295 q 666 309 648 295 q 688 346 684 323 z "},"⅝":{"ha":815,"x_min":64,"x_max":785,"o":"m 92 746 l 166 992 l 465 992 l 448 895 l 250 896 l 217 810 q 291 825 253 825 q 353 815 325 826 q 399 785 380 805 q 427 738 418 766 q 435 676 437 710 q 418 603 434 636 q 374 549 401 571 q 312 515 347 527 q 238 503 277 503 q 175 514 206 504 q 121 541 145 523 q 82 586 97 559 q 65 647 67 613 l 182 647 q 199 610 183 620 q 239 602 214 601 q 293 623 273 603 q 318 677 314 644 q 307 724 322 707 q 263 742 293 742 q 226 737 243 743 q 192 720 208 731 l 92 746 m 246 155 l 161 205 l 602 834 l 688 785 l 246 155 m 783 354 q 775 317 782 334 q 757 287 768 301 q 732 262 746 273 q 701 242 717 251 q 745 197 730 224 q 759 135 761 169 q 741 68 758 96 q 696 23 723 41 q 634 -2 668 6 q 566 -9 600 -10 q 504 -1 535 -9 q 448 22 472 6 q 409 64 424 38 q 396 126 394 89 q 404 167 396 149 q 425 200 412 185 q 455 227 438 215 q 491 249 472 239 q 453 290 466 265 q 441 344 440 314 q 457 408 441 381 q 499 453 474 435 q 557 479 525 470 q 623 487 590 487 q 683 479 653 486 q 735 455 712 471 q 771 414 758 439 q 783 354 785 389 m 641 146 q 640 167 643 158 q 628 182 636 176 q 610 191 621 188 q 589 194 600 194 q 564 191 576 194 q 541 180 552 187 q 524 163 531 173 q 514 140 516 153 q 516 117 512 127 q 527 101 519 108 q 544 92 534 95 q 566 89 555 89 q 592 93 579 89 q 615 104 605 96 q 632 122 625 111 q 641 146 640 132 m 665 344 q 656 377 668 365 q 623 388 643 388 q 581 375 599 388 q 560 338 563 361 q 569 305 557 317 q 602 293 581 293 q 643 307 625 293 q 665 344 661 321 z "},"⅞":{"ha":815,"x_min":122,"x_max":800,"o":"m 520 911 l 256 507 l 122 507 l 386 889 l 137 889 l 155 988 l 533 988 l 520 911 m 229 155 l 143 205 l 585 834 l 671 785 l 229 155 m 798 356 q 790 319 797 336 q 772 289 783 303 q 747 264 761 275 q 716 244 732 253 q 760 199 745 226 q 774 137 775 172 q 756 70 773 98 q 711 25 738 43 q 649 0 683 8 q 581 -7 615 -8 q 518 1 550 -7 q 463 24 487 8 q 424 66 439 40 q 410 128 409 91 q 419 169 411 151 q 440 202 427 187 q 470 229 453 217 q 506 251 487 241 q 468 292 481 267 q 456 346 455 316 q 472 410 456 383 q 514 455 489 437 q 572 481 540 472 q 637 489 605 489 q 698 481 668 488 q 750 457 727 473 q 786 416 773 441 q 798 356 800 391 m 656 148 q 655 169 658 161 q 643 184 651 178 q 625 193 636 190 q 604 196 615 196 q 579 193 591 196 q 556 182 567 189 q 539 165 546 175 q 529 142 531 155 q 531 119 527 129 q 542 103 534 110 q 559 94 549 97 q 581 91 570 91 q 607 95 594 91 q 630 106 620 98 q 647 124 640 113 q 656 148 655 134 m 680 346 q 671 379 683 367 q 637 390 658 390 q 596 377 614 390 q 575 340 578 363 q 584 307 572 319 q 617 295 596 295 q 658 309 640 295 q 680 346 676 323 z "},"∂":{"ha":815,"x_min":56,"x_max":764,"o":"m 424 702 q 522 680 477 701 q 603 621 567 660 q 602 679 604 648 q 592 738 600 709 q 573 793 585 766 q 542 840 560 819 q 497 872 523 860 q 438 886 471 884 q 352 878 393 888 q 269 853 311 868 l 255 991 q 355 1028 304 1016 q 462 1040 407 1041 q 589 1013 536 1039 q 676 943 641 987 q 730 843 711 900 q 756 724 749 786 q 762 599 764 663 q 752 479 760 536 l 747 439 q 724 332 739 387 q 684 227 708 277 q 627 131 660 176 q 553 54 595 87 q 459 3 511 21 q 346 -14 408 -16 q 212 16 269 -13 q 120 94 155 45 q 70 208 84 143 q 62 344 56 272 l 64 359 q 101 494 73 431 q 176 604 130 557 q 285 677 222 651 q 424 702 347 703 m 433 550 q 357 535 390 551 q 302 490 325 518 q 265 425 279 461 q 247 349 252 388 l 245 336 q 244 268 242 302 q 258 204 246 233 q 294 156 270 175 q 360 136 319 138 q 419 145 393 135 q 465 174 445 155 q 500 216 485 192 q 525 268 515 241 q 542 324 536 296 q 553 379 549 353 l 565 453 q 516 524 551 499 q 433 550 481 549 z "},"∏":{"ha":815,"x_min":12,"x_max":789,"o":"m 609 -168 l 424 -168 l 581 838 l 355 838 l 198 -168 l 12 -168 l 193 987 l 789 987 l 609 -168 z "},"∑":{"ha":815,"x_min":-78,"x_max":871,"o":"m 594 394 l 205 -30 l 722 -30 l 694 -182 l -78 -182 l -59 -73 l 404 414 l 108 892 l 125 987 l 871 987 l 844 835 l 344 835 l 597 417 l 594 394 z "},"−":{"ha":815,"x_min":98,"x_max":692,"o":"m 665 408 l 98 408 l 125 562 l 692 562 l 665 408 z "},"√":{"ha":815,"x_min":16,"x_max":843,"o":"m 327 210 l 328 163 l 353 221 l 687 987 l 843 987 l 384 0 l 230 0 l 165 363 l 16 363 l 43 517 l 288 517 l 327 210 z "},"∞":{"ha":815,"x_min":35,"x_max":812,"o":"m 807 408 q 787 315 803 359 q 743 237 771 271 q 673 184 714 203 q 579 167 633 165 q 523 178 549 168 q 476 208 497 189 q 438 250 454 226 q 412 300 422 273 q 373 251 394 275 q 328 208 352 227 q 274 177 303 189 q 212 166 245 165 q 127 187 161 167 q 72 239 92 207 q 43 314 52 272 q 38 401 35 356 l 40 426 q 60 518 44 474 q 104 595 76 562 q 173 648 132 629 q 267 665 214 667 q 322 654 296 664 q 369 626 348 644 q 407 586 391 609 q 434 536 423 563 q 474 585 452 562 q 520 626 495 608 q 573 655 545 644 q 635 665 602 666 q 720 645 685 665 q 775 592 754 625 q 804 518 795 559 q 809 433 812 477 l 807 408 m 674 433 q 675 468 675 450 q 669 500 674 486 q 651 524 663 515 q 617 534 639 534 q 578 523 598 533 q 542 496 559 512 q 511 461 524 480 q 493 424 498 441 l 491 413 q 497 377 490 396 q 517 340 505 357 q 546 312 529 323 q 580 300 562 300 q 620 308 604 298 q 648 333 637 317 q 664 368 659 349 q 672 408 670 388 l 674 433 m 172 397 q 171 362 170 380 q 177 329 172 344 q 195 306 182 315 q 230 297 208 296 q 270 309 250 298 q 307 338 290 321 q 336 377 323 356 q 354 416 349 397 l 356 427 q 349 461 356 443 q 328 495 341 479 q 299 520 315 510 q 267 531 283 530 q 225 523 242 532 q 198 497 209 513 q 181 462 187 481 q 174 422 176 442 l 172 397 z "},"∫":{"ha":815,"x_min":47,"x_max":766,"o":"m 423 -23 q 395 -133 416 -82 q 339 -220 374 -183 q 255 -277 304 -256 q 143 -298 206 -298 q 95 -294 119 -298 q 47 -285 71 -290 l 70 -136 q 105 -144 87 -141 q 141 -146 123 -147 q 183 -134 166 -146 q 212 -105 201 -123 q 229 -66 223 -87 q 239 -23 235 -44 l 366 814 q 396 923 372 874 q 456 1005 419 971 q 544 1056 494 1038 q 656 1074 595 1074 q 711 1068 684 1073 q 766 1058 739 1063 l 735 913 q 704 919 720 917 q 672 922 688 922 q 590 892 621 922 q 551 814 559 863 l 423 -23 l 423 -23 z "},"≈":{"ha":815,"x_min":62,"x_max":767,"o":"m 127 599 q 160 637 142 619 q 199 669 178 655 q 243 690 220 682 q 293 699 267 699 q 375 684 338 699 q 450 648 412 669 q 519 614 485 628 q 595 600 554 600 q 645 608 621 600 q 690 631 669 616 q 730 663 711 645 q 767 699 749 680 l 758 556 q 727 518 744 536 q 691 487 710 500 q 649 464 671 473 q 602 456 627 456 q 524 470 559 456 q 453 505 489 485 q 378 541 415 526 q 298 555 342 555 q 246 546 271 555 q 199 524 222 538 q 157 493 177 511 q 119 456 137 475 l 127 599 m 68 307 q 101 345 83 327 q 138 376 118 363 q 181 398 159 390 q 231 407 204 407 q 313 393 275 408 q 389 356 350 378 q 458 322 424 336 q 534 309 493 309 q 585 317 561 309 q 631 339 609 325 q 672 371 653 353 q 709 408 692 389 l 701 264 q 669 227 686 244 q 632 195 652 209 q 589 173 612 181 q 540 165 566 165 q 463 179 498 165 q 392 213 427 193 q 318 249 355 234 q 238 263 281 264 q 186 255 211 263 q 140 233 162 246 q 99 201 119 219 q 62 165 79 184 l 68 307 z "},"≠":{"ha":815,"x_min":62,"x_max":764,"o":"m 686 194 l 321 194 l 249 90 l 168 136 l 208 194 l 62 194 l 90 348 l 314 348 l 410 486 l 113 486 l 140 641 l 517 641 l 591 748 l 672 701 l 630 641 l 764 641 l 736 486 l 523 486 l 427 348 l 713 348 l 686 194 z "},"≤":{"ha":815,"x_min":53,"x_max":785,"o":"m 379 573 l 323 555 l 356 543 l 703 428 l 673 269 l 132 493 l 159 630 l 785 855 l 757 686 l 379 573 m 620 24 l 53 24 l 80 178 l 647 178 l 620 24 z "},"≥":{"ha":815,"x_min":49,"x_max":752,"o":"m 172 695 l 202 853 l 752 629 l 726 491 l 89 267 l 122 438 l 513 552 l 564 566 l 535 577 l 172 695 m 616 23 l 49 23 l 76 177 l 643 177 l 616 23 z "},"◊":{"ha":815,"x_min":102,"x_max":745,"o":"m 426 987 l 581 987 l 745 484 l 420 0 l 264 0 l 102 502 l 426 987 m 564 502 l 492 785 l 487 831 l 461 783 l 281 484 l 355 199 l 359 153 l 382 199 l 564 502 z "},"":{"ha":815,"x_min":101,"x_max":312,"o":"m 307 123 q 266 -8 300 54 q 178 -115 231 -70 l 101 -60 q 151 26 130 -18 q 179 121 171 70 l 186 170 l 312 170 l 307 123 z "},"﻿":{"ha":815,"x_min":0,"x_max":0,"o":""}}}
